<?xml version="1.0" encoding="utf-8"?>
<!-- Generator: Adobe Illustrator 18.1.1, SVG Export Plug-In . SVG Version: 6.00 Build 0)  -->
<!DOCTYPE svg PUBLIC "-//W3C//DTD SVG 1.1//EN" "http://www.w3.org/Graphics/SVG/1.1/DTD/svg11.dtd">
<svg version="1.1" xmlns="http://www.w3.org/2000/svg" xmlns:xlink="http://www.w3.org/1999/xlink" x="0px" y="0px"
	 viewBox="0 0 16 16" enable-background="new 0 0 16 16" xml:space="preserve">
<g id="Circle_Center" display="none">
	
		<rect x="0" display="inline" fill="none" stroke="#E30613" stroke-width="6.250000e-02" stroke-miterlimit="10" width="16" height="16"/>
	
		<line display="inline" fill="none" stroke="#E30613" stroke-width="6.250000e-02" stroke-miterlimit="10" x1="0" y1="8" x2="16" y2="8"/>
	
		<line display="inline" fill="none" stroke="#E30613" stroke-width="6.250000e-02" stroke-miterlimit="10" x1="8" y1="0" x2="8" y2="16"/>
	<circle display="inline" fill="none" stroke="#E30613" stroke-width="6.666666e-02" stroke-miterlimit="10" cx="8" cy="8" r="8"/>
</g>
<g id="Layer_3" display="none">
</g>
<g id="Layer_4" display="none">
	
		<rect x="0" y="0" display="inline" fill="none" stroke="#FFED00" stroke-width="0.1" stroke-miterlimit="10" width="16" height="16"/>
</g>
<g id="Layer_1">
	<path fill="#353535" d="M8,16c-4.4,0-8-3.6-8-8s3.6-8,8-8s8,3.6,8,8S12.4,16,8,16z M8,1C4.1,1,1,4.1,1,8s3.1,7,7,7c3.9,0,7-3.1,7-7
		S11.9,1,8,1z"/>
	<g>
		<path fill="#353535" d="M2.5,7.5c0,0,0-0.1,0.1-0.1l0.1,0L5,8.8l0,0L4.6,7.1c0,0,0-0.1,0.1-0.1l0.6-0.1c0,0,0.1,0,0.1,0.1l0.7,3.2
			c0,0,0,0.1-0.1,0.1l-0.1,0c0,0-0.1,0-0.1,0L3.6,8.8l0,0L4,10.5c0,0,0,0.1-0.1,0.1l-0.6,0.1c0,0-0.1,0-0.1-0.1L2.5,7.5z"/>
		<path fill="#353535" d="M6.4,6.7c0,0,0-0.1,0.1-0.1l2-0.4c0.1,0,0.1,0,0.1,0.1l0.1,0.5c0,0,0,0.1-0.1,0.1L7.3,7.1l0.1,0.6l1.1-0.2
			c0,0,0.1,0,0.1,0.1l0.1,0.5c0,0.1,0,0.1-0.1,0.1L7.6,8.4L7.8,9l1.3-0.3c0.1,0,0.1,0,0.1,0.1l0.1,0.5c0,0,0,0.1-0.1,0.1l-2,0.4
			c-0.1,0-0.1,0-0.1-0.1L6.4,6.7z"/>
		<path fill="#353535" d="M9.2,6.1C9.1,6,9.1,6,9.2,6l0.6-0.1c0,0,0.1,0,0.1,0l0.8,1.5l0,0L11,5.6c0,0,0-0.1,0.1-0.1l0.1,0
			c0,0,0.1,0,0.1,0L12.4,7l0,0l0-1.7c0,0,0-0.1,0.1-0.1L13,5.1c0.1,0,0.1,0,0.1,0.1L13,8.6c0,0,0,0.1-0.1,0.1l-0.1,0
			c0,0-0.1,0-0.1,0l-1.3-1.7l0,0L11,9c0,0,0,0.1-0.1,0.1l-0.1,0c0,0-0.1,0-0.1,0L9.2,6.1z"/>
	</g>
</g>
<g id="Text" display="none">
</g>
<g id="Pixel_grid" display="none">
</g>
<g id="Layer_5" display="none">
</g>
<g id="Layer_8" display="none">
</g>
</svg>
