<?xml version="1.0" encoding="utf-8"?>
<!-- Generator: Adobe Illustrator 18.1.1, SVG Export Plug-In . SVG Version: 6.00 Build 0)  -->
<!DOCTYPE svg PUBLIC "-//W3C//DTD SVG 1.1//EN" "http://www.w3.org/Graphics/SVG/1.1/DTD/svg11.dtd">
<svg version="1.1" xmlns="http://www.w3.org/2000/svg" xmlns:xlink="http://www.w3.org/1999/xlink" x="0px" y="0px"
	 viewBox="0 0 64 64" enable-background="new 0 0 64 64" xml:space="preserve">
<g id="Circle_Center" display="none">
	<g display="inline" opacity="0.5">
		<rect fill="none" stroke="#E30613" stroke-width="0.25" stroke-miterlimit="10" width="64" height="64"/>
		<line fill="none" stroke="#E30613" stroke-width="0.25" stroke-miterlimit="10" x1="0" y1="32" x2="64" y2="32"/>
		<line fill="none" stroke="#E30613" stroke-width="0.25" stroke-miterlimit="10" x1="32" y1="0" x2="32" y2="64"/>
		<circle fill="none" stroke="#E30613" stroke-width="0.25" stroke-miterlimit="10" cx="32" cy="32" r="30"/>
	</g>
</g>
<g id="Layer_3" display="none">
</g>
<g id="Layer_4" display="none">
	
		<rect x="2" y="2" display="inline" fill="none" stroke="#FFED00" stroke-width="0.375" stroke-miterlimit="10" width="60" height="60"/>
</g>
<g id="Layer_1">
	<g>
		<path fill="#353535" d="M59.4,27.9c-0.9-0.9-1.9-1.8-2.1-2.7c-0.3-1,0.1-2.3,0.5-3.5c0.5-1.7,1-3.4,0.2-4.7
			c-0.8-1.3-2.5-1.8-4.2-2.2c-1.3-0.3-2.6-0.7-3.3-1.3c-0.7-0.7-1-2-1.3-3.3C48.8,8.5,48.3,6.8,47,6c-1.1-0.7-3-0.3-4.7,0.2
			c-1.3,0.4-2.7,0.7-3.5,0.5c-0.9-0.2-1.8-1.2-2.7-2.1C34.8,3.3,33.6,2,32,2s-2.8,1.3-4.1,2.6c-0.9,0.9-1.8,1.9-2.7,2.1
			c-0.9,0.2-2.3-0.1-3.5-0.5C20,5.7,18.1,5.4,17,6c-1.3,0.8-1.8,2.5-2.2,4.2c-0.3,1.3-0.7,2.6-1.3,3.3c-0.7,0.7-2,1-3.3,1.3
			C8.5,15.2,6.8,15.7,6,17c-0.8,1.3-0.3,3,0.2,4.7c0.4,1.3,0.7,2.6,0.5,3.5c-0.2,0.9-1.2,1.8-2.1,2.7C3.3,29.2,2,30.4,2,32
			s1.3,2.8,2.6,4.1c0.9,0.9,1.9,1.8,2.1,2.7c0.3,1-0.1,2.3-0.5,3.5C5.8,44,5.3,45.7,6,47c0.8,1.3,2.5,1.8,4.2,2.2
			c1.3,0.3,2.6,0.7,3.3,1.3c0.7,0.7,1,2,1.3,3.3c0.4,1.7,0.9,3.4,2.2,4.2c1.1,0.7,3,0.3,4.7-0.2c1.3-0.4,2.7-0.7,3.5-0.5
			c0.9,0.2,1.8,1.2,2.7,2.1c1.2,1.3,2.5,2.6,4.1,2.6s2.8-1.3,4.1-2.6c0.9-0.9,1.8-1.9,2.7-2.1c0.9-0.2,2.3,0.1,3.5,0.5
			c1.7,0.5,3.5,0.9,4.7,0.2c1.3-0.8,1.8-2.5,2.2-4.2c0.3-1.3,0.7-2.6,1.3-3.3c0.7-0.7,2-1,3.3-1.3c1.7-0.4,3.4-0.9,4.2-2.2
			c0.8-1.3,0.3-3-0.2-4.7c-0.4-1.3-0.7-2.6-0.5-3.5c0.2-0.9,1.2-1.8,2.1-2.7c1.3-1.2,2.6-2.5,2.6-4.1S60.7,29.2,59.4,27.9z
			 M58.7,35.3c-1,1-2.1,2-2.4,3.2c-0.3,1.2,0.1,2.7,0.5,4.1c0.4,1.5,0.8,3,0.3,3.9c-0.6,1-2.1,1.3-3.6,1.7c-1.4,0.4-2.9,0.7-3.7,1.6
			c-0.9,0.9-1.2,2.3-1.6,3.7c-0.4,1.5-0.8,3-1.7,3.6c-0.8,0.5-2.4,0.1-3.9-0.3c-1.4-0.4-3-0.8-4.1-0.5c-1.2,0.3-2.2,1.4-3.2,2.4
			C34.3,59.8,33.1,61,32,61s-2.3-1.2-3.3-2.3c-1-1-2-2.1-3.2-2.4c-0.3-0.1-0.6-0.1-1-0.1c-1,0-2.1,0.3-3.1,0.6
			c-1.5,0.4-3.1,0.8-3.9,0.3c-1-0.6-1.3-2.1-1.7-3.6c-0.4-1.4-0.7-2.9-1.6-3.7c-0.9-0.9-2.3-1.2-3.7-1.6c-1.5-0.4-3-0.8-3.6-1.7
			c-0.5-0.9-0.1-2.4,0.3-3.9c0.4-1.4,0.8-2.9,0.5-4.1c-0.3-1.2-1.4-2.2-2.4-3.2C4.2,34.3,3,33.1,3,32s1.2-2.3,2.3-3.3
			c1-1,2.1-2,2.4-3.2c0.3-1.2-0.1-2.7-0.5-4.1c-0.4-1.5-0.8-3-0.3-3.9c0.6-1,2.1-1.3,3.6-1.7c1.4-0.4,2.9-0.7,3.7-1.6
			c0.9-0.9,1.2-2.3,1.6-3.7c0.4-1.5,0.8-3,1.7-3.6c0.8-0.5,2.4-0.1,3.9,0.3c1.4,0.4,3,0.8,4.1,0.5c1.2-0.3,2.2-1.4,3.2-2.4
			C29.7,4.2,30.9,3,32,3s2.3,1.2,3.3,2.3c1,1,2,2.1,3.2,2.4c1.1,0.3,2.7-0.1,4.1-0.5c1.5-0.4,3.1-0.8,3.9-0.3c1,0.6,1.3,2.1,1.7,3.6
			c0.4,1.4,0.7,2.9,1.6,3.7s2.3,1.2,3.7,1.6c1.5,0.4,3,0.8,3.6,1.7c0.5,0.9,0.1,2.4-0.3,3.9c-0.4,1.4-0.8,2.9-0.5,4.1
			c0.3,1.2,1.4,2.2,2.4,3.2c1.1,1.1,2.3,2.2,2.3,3.3S59.8,34.3,58.7,35.3z"/>
		<path fill="#353535" d="M23,29.2l-1.7,0.4c-0.2,0-0.2,0.2-0.2,0.3l1.1,5l0,0l-6.9-4.1L15,30.9c-0.1,0-0.2,0.2-0.2,0.3l2.2,9.5
			c0,0.1,0.2,0.2,0.3,0.2l1.7-0.4c0.2,0,0.2-0.2,0.2-0.3L18,34.9l0,0l6.9,4.3c0,0,0.2,0,0.2,0l0.2-0.1c0.1,0,0.2-0.2,0.2-0.3
			l-2.2-9.5C23.3,29.2,23.1,29.1,23,29.2z"/>
		<path fill="#353535" d="M34.3,34.8l-3.9,0.9l-0.4-1.9l3.2-0.7c0.1,0,0.2-0.2,0.2-0.3L33,31.2c0-0.1-0.2-0.2-0.3-0.2l-3.2,0.7
			L29.1,30l3.9-0.9c0.2,0,0.2-0.2,0.2-0.3l-0.4-1.5c0-0.1-0.2-0.2-0.3-0.2l-5.8,1.3c-0.2,0-0.2,0.2-0.2,0.3l2.1,9.3
			c0,0.1,0.2,0.2,0.3,0.2l5.8-1.3c0.2,0,0.2-0.2,0.2-0.3L34.6,35C34.6,34.9,34.4,34.8,34.3,34.8z"/>
		<path fill="#353535" d="M46.2,23.9l-1.6,0.4c-0.1,0-0.2,0.2-0.2,0.3l-0.1,5.1l-0.1,0l-3.3-4.5c0-0.1-0.1-0.1-0.3-0.1l-0.3,0.1
			c-0.1,0-0.2,0.1-0.2,0.2l-1,5.5l-0.1,0l-2.3-4.5c-0.1-0.1-0.2-0.2-0.3-0.1l-1.7,0.4c-0.2,0-0.3,0.2-0.2,0.4l4.8,8.9
			c0.1,0.1,0.2,0.2,0.3,0.1l0.2-0.1c0.1,0,0.2-0.1,0.2-0.2l1.2-6.4l0,0l3.9,5.2c0.1,0.1,0.2,0.1,0.3,0.1l0.2-0.1
			c0.1,0,0.2-0.1,0.2-0.3l0.5-10.1C46.5,23.9,46.4,23.8,46.2,23.9z"/>
	</g>
</g>
<g id="Text" display="none">
</g>
<g id="Pixel_grid" display="none">
</g>
<g id="Layer_5" display="none">
</g>
<g id="Layer_8" display="none">
</g>
</svg>
