<?xml version="1.0" encoding="utf-8"?>
<!-- Generator: Adobe Illustrator 18.1.1, SVG Export Plug-In . SVG Version: 6.00 Build 0)  -->
<!DOCTYPE svg PUBLIC "-//W3C//DTD SVG 1.1//EN" "http://www.w3.org/Graphics/SVG/1.1/DTD/svg11.dtd">
<svg version="1.1" xmlns="http://www.w3.org/2000/svg" xmlns:xlink="http://www.w3.org/1999/xlink" x="0px" y="0px"
	 viewBox="0 0 32 32" enable-background="new 0 0 32 32" xml:space="preserve">
<g id="Circle_Center" display="none">
	<g display="inline" opacity="0.5">
		<rect y="0" fill="none" stroke="#E30613" stroke-width="0.125" stroke-miterlimit="10" width="32" height="32"/>
		<line fill="none" stroke="#E30613" stroke-width="0.125" stroke-miterlimit="10" x1="0" y1="16" x2="32" y2="16"/>
		<line fill="none" stroke="#E30613" stroke-width="0.125" stroke-miterlimit="10" x1="16" y1="0" x2="16" y2="32"/>
		<circle fill="none" stroke="#E30613" stroke-width="0.125" stroke-miterlimit="10" cx="16" cy="16" r="15"/>
	</g>
</g>
<g id="Layer_3" display="none">
</g>
<g id="Layer_4" display="none">
	
		<rect x="1" y="1" display="inline" fill="none" stroke="#FFED00" stroke-width="0.1875" stroke-miterlimit="10" width="30" height="30"/>
</g>
<g id="Layer_1">
	<path fill="#353535" d="M16,31c-1.3,0-2.3-0.9-3.3-1.7c-0.6-0.5-1.2-1-1.7-1.2c-0.6-0.3-1.4-0.3-2.2-0.4c-1.3-0.1-2.6-0.2-3.4-1.1
		c-0.9-0.9-1-2.2-1.1-3.4c-0.1-0.8-0.2-1.6-0.4-2.2c-0.2-0.6-0.7-1.1-1.2-1.7c-0.8-1-1.7-2-1.7-3.3s0.9-2.3,1.7-3.3
		c0.5-0.6,1-1.2,1.2-1.7c0.3-0.6,0.3-1.4,0.4-2.2c0.1-1.3,0.2-2.6,1.1-3.4c0.9-0.9,2.2-1,3.4-1.1c0.8-0.1,1.6-0.2,2.2-0.4
		c0.6-0.2,1.1-0.7,1.7-1.2c1-0.8,2-1.7,3.3-1.7s2.3,0.9,3.3,1.7c0.6,0.5,1.2,1,1.7,1.2c0.6,0.3,1.4,0.3,2.2,0.4
		c1.3,0.1,2.6,0.2,3.4,1.1c0.9,0.9,1,2.2,1.1,3.4c0.1,0.8,0.2,1.6,0.4,2.2c0.2,0.6,0.7,1.1,1.2,1.7c0.8,1,1.7,2,1.7,3.3
		s-0.9,2.3-1.7,3.3c-0.5,0.6-1,1.2-1.2,1.7c-0.3,0.6-0.3,1.4-0.4,2.2c-0.1,1.3-0.2,2.6-1.1,3.4c-0.9,0.9-2.2,1-3.4,1.1
		c-0.8,0.1-1.6,0.2-2.2,0.4c-0.6,0.2-1.1,0.7-1.7,1.2C18.3,30.1,17.3,31,16,31z M16,2c-0.9,0-1.8,0.7-2.7,1.4
		c-0.6,0.5-1.3,1.1-2,1.4c-0.7,0.3-1.6,0.4-2.4,0.5C7.8,5.4,6.7,5.5,6.1,6.1C5.5,6.7,5.4,7.8,5.3,8.9c-0.1,0.8-0.2,1.7-0.5,2.4
		c-0.3,0.7-0.8,1.4-1.4,2C2.7,14.2,2,15.1,2,16s0.7,1.8,1.4,2.7c0.5,0.6,1.1,1.3,1.4,2c0.3,0.7,0.4,1.6,0.5,2.4
		c0.1,1.1,0.2,2.2,0.8,2.8c0.6,0.6,1.7,0.7,2.8,0.8c0.8,0.1,1.7,0.2,2.4,0.5c0.7,0.3,1.4,0.8,2,1.4c0.9,0.7,1.7,1.4,2.7,1.4
		s1.8-0.7,2.7-1.4c0.6-0.5,1.3-1.1,2-1.4c0.7-0.3,1.6-0.4,2.4-0.5c1.1-0.1,2.2-0.2,2.8-0.8c0.6-0.6,0.7-1.7,0.8-2.8
		c0.1-0.8,0.2-1.7,0.5-2.4c0.3-0.7,0.8-1.4,1.4-2c0.7-0.9,1.4-1.7,1.4-2.7s-0.7-1.8-1.4-2.7c-0.5-0.6-1.1-1.3-1.4-2
		c-0.3-0.7-0.4-1.6-0.5-2.4c-0.1-1.1-0.2-2.2-0.8-2.8c-0.6-0.6-1.7-0.7-2.8-0.8c-0.8-0.1-1.7-0.2-2.4-0.5c-0.7-0.3-1.4-0.8-2-1.4
		C17.8,2.7,16.9,2,16,2z"/>
	<g>
		<path fill="#353535" d="M5.9,15.3c0-0.1,0-0.2,0.1-0.2l0.2,0l4,2.4l0,0l-0.7-2.9c0-0.1,0-0.2,0.1-0.2l1-0.2c0.1,0,0.2,0,0.2,0.1
			l1.3,5.6c0,0.1,0,0.2-0.1,0.2l-0.1,0c0,0-0.1,0-0.1,0l-4-2.5l0,0l0.7,3.1c0,0.1,0,0.2-0.1,0.2l-1,0.2c-0.1,0-0.2,0-0.2-0.1
			L5.9,15.3z"/>
		<path fill="#353535" d="M12.7,13.9c0-0.1,0-0.2,0.1-0.2l3.4-0.8c0.1,0,0.2,0,0.2,0.1l0.2,0.9c0,0.1,0,0.2-0.1,0.2l-2.3,0.5l0.2,1
			l1.9-0.4c0.1,0,0.2,0,0.2,0.1l0.2,0.9c0,0.1,0,0.2-0.1,0.2l-1.9,0.4L15,18l2.3-0.5c0.1,0,0.2,0,0.2,0.1l0.2,0.9
			c0,0.1,0,0.2-0.1,0.2l-3.4,0.8c-0.1,0-0.2,0-0.2-0.1L12.7,13.9z"/>
		<path fill="#353535" d="M17.5,12.8c-0.1-0.1,0-0.2,0.1-0.2l1-0.2c0.1,0,0.1,0,0.2,0.1l1.4,2.6l0,0l0.6-3.2c0-0.1,0.1-0.1,0.1-0.1
			l0.1,0c0.1,0,0.1,0,0.2,0.1l1.9,2.6l0,0l0.1-3c0-0.1,0.1-0.1,0.1-0.1l1-0.2c0.1,0,0.2,0,0.2,0.2l-0.3,5.9c0,0.1-0.1,0.1-0.1,0.2
			l-0.1,0c-0.1,0-0.1,0-0.2-0.1l-2.3-3l0,0l-0.7,3.7c0,0.1-0.1,0.1-0.1,0.1l-0.1,0c-0.1,0-0.1,0-0.2-0.1L17.5,12.8z"/>
	</g>
</g>
<g id="Text" display="none">
</g>
<g id="Pixel_grid" display="none">
</g>
<g id="Layer_5" display="none">
</g>
<g id="Layer_8" display="none">
</g>
</svg>
