<?xml version="1.0" encoding="utf-8"?>
<!-- Generator: Adobe Illustrator 18.1.1, SVG Export Plug-In . SVG Version: 6.00 Build 0)  -->
<!DOCTYPE svg PUBLIC "-//W3C//DTD SVG 1.1//EN" "http://www.w3.org/Graphics/SVG/1.1/DTD/svg11.dtd">
<svg version="1.1" id="Layer_1" xmlns="http://www.w3.org/2000/svg" xmlns:xlink="http://www.w3.org/1999/xlink" x="0px" y="0px"
	 viewBox="0 0 100 100" enable-background="new 0 0 100 100" xml:space="preserve">
<g id="Circle_Center" display="none">
	<g display="inline" opacity="0.5">
		<rect fill="none" stroke="#E30613" stroke-width="0.25" stroke-miterlimit="10" width="100" height="100"/>
		<line fill="none" stroke="#E30613" stroke-width="0.25" stroke-miterlimit="10" x1="0" y1="50" x2="100" y2="50"/>
		<line fill="none" stroke="#E30613" stroke-width="0.25" stroke-miterlimit="10" x1="50" y1="0" x2="50" y2="100"/>
		<circle fill="none" stroke="#E30613" stroke-width="0.25" stroke-miterlimit="10" cx="50" cy="50" r="46.9"/>
	</g>
</g>
<g id="Layer_3" display="none">
</g>
<g id="Layer_4" display="none">
	
		<rect x="3.1" y="3.1" display="inline" fill="none" stroke="#FFED00" stroke-width="0.375" stroke-miterlimit="10" width="93.8" height="93.8"/>
</g>
<g id="Layer_1_1_">
	<g>
		<path fill="#353535" d="M37,88.1c-6.7,0-13.1-1.7-18.7-5.2L6.9,86.1c-0.3,0-0.6,0-0.8-0.2c-0.2-0.2-0.3-0.5-0.2-0.8l2.8-10.9
			C5,69.4,3.1,63.4,3.1,57.5c0-14.4,11.2-27,26.6-30c0.3-0.2,0.8,0.2,0.9,0.5c0.2,0.5-0.2,0.8-0.5,0.9H30c-14.7,3-25.3,15-25.3,28.6
			c0,5.8,1.9,11.4,5.5,16.2c0.2,0.2,0.2,0.5,0.2,0.6l-2.7,10l10.5-3c0.2,0,0.5,0,0.6,0.2c5.3,3.3,11.7,5,18.1,5
			c9.7,0,18.9-3.9,25-10.8c0.3-0.3,0.8-0.3,1.1,0c0.3,0.3,0.3,0.8,0,1.1C56.7,84.1,47.2,88.1,37,88.1z"/>
	</g>
	<path fill="#353535" d="M50.8,48.4h-3.3c-1.2,0-2.3-1.1-2.3-2.3v-3.3c0-1.2,1.1-2.3,2.3-2.3h3.3c1.2,0,2.3,1.1,2.3,2.3v3.3
		C53.1,47.3,52,48.4,50.8,48.4z M47.5,42c-0.5,0-0.8,0.3-0.8,0.8v3.3c0,0.5,0.3,0.8,0.8,0.8h3.3c0.5,0,0.8-0.3,0.8-0.8v-3.3
		c0-0.5-0.3-0.8-0.8-0.8H47.5z"/>
	<path fill="#353535" d="M64.8,48.4h-3.3c-1.2,0-2.3-1.1-2.3-2.3v-3.3c0-1.2,1.1-2.3,2.3-2.3h3.3c1.2,0,2.3,1.1,2.3,2.3v3.3
		C67.2,47.3,66.1,48.4,64.8,48.4z M61.6,42c-0.5,0-0.8,0.3-0.8,0.8v3.3c0,0.5,0.3,0.8,0.8,0.8h3.3c0.5,0,0.8-0.3,0.8-0.8v-3.3
		c0-0.5-0.3-0.8-0.8-0.8H61.6z"/>
	<path fill="#353535" d="M78.9,48.4h-3.3c-1.2,0-2.3-1.1-2.3-2.3v-3.3c0-1.2,1.1-2.3,2.3-2.3h3.3c1.2,0,2.3,1.1,2.3,2.3v3.3
		C81.2,47.3,80.2,48.4,78.9,48.4z M75.6,42c-0.5,0-0.8,0.3-0.8,0.8v3.3c0,0.5,0.3,0.8,0.8,0.8h3.3c0.5,0,0.8-0.3,0.8-0.8v-3.3
		c0-0.5-0.3-0.8-0.8-0.8H75.6z"/>
	<path fill="#353535" d="M87.7,77.5c-0.2,0-0.3,0-0.3-0.2l-11.4-5.9c-4.2,1.6-8.8,2.5-13.3,2.5c-18.9,0-34.2-13.9-34.2-31.1
		s15.3-31.1,34.2-31.1S96.9,25.8,96.9,43c0,7.8-3.1,15.2-9.1,20.9l0.6,12.8c0,0.3-0.2,0.5-0.3,0.6C88,77.5,87.8,77.5,87.7,77.5z
		 M75.9,69.8c0.2,0,10.8,5.6,10.8,5.6l-0.5-11.7c0-0.2,0-0.5,0.3-0.6c5.6-5.6,8.8-12.7,8.8-20.2c0-16.4-14.7-29.5-32.7-29.5
		S29.8,26.6,29.8,43c0,16.3,14.7,29.5,32.7,29.5c4.5,0,8.9-1,13.1-2.7C75.8,69.8,75.9,69.8,75.9,69.8z"/>
</g>
<g id="Text" display="none">
</g>
<g id="Pixel_grid" display="none">
</g>
<g id="Layer_5" display="none">
</g>
<g id="Layer_8" display="none">
</g>
</svg>
