<?xml version="1.0" encoding="utf-8"?>
<!-- Generator: Adobe Illustrator 18.1.1, SVG Export Plug-In . SVG Version: 6.00 Build 0)  -->
<!DOCTYPE svg PUBLIC "-//W3C//DTD SVG 1.1//EN" "http://www.w3.org/Graphics/SVG/1.1/DTD/svg11.dtd">
<svg version="1.1" xmlns="http://www.w3.org/2000/svg" xmlns:xlink="http://www.w3.org/1999/xlink" x="0px" y="0px"
	 viewBox="0 0 32 32" enable-background="new 0 0 32 32" xml:space="preserve">
<g id="Circle_Center" display="none">
	<g display="inline" opacity="0.5">
		<rect y="0" fill="none" stroke="#E30613" stroke-width="0.125" stroke-miterlimit="10" width="32" height="32"/>
		<line fill="none" stroke="#E30613" stroke-width="0.125" stroke-miterlimit="10" x1="0" y1="16" x2="32" y2="16"/>
		<line fill="none" stroke="#E30613" stroke-width="0.125" stroke-miterlimit="10" x1="16" y1="0" x2="16" y2="32"/>
		<circle fill="none" stroke="#E30613" stroke-width="0.125" stroke-miterlimit="10" cx="16" cy="16" r="15"/>
	</g>
</g>
<g id="Layer_3" display="none">
</g>
<g id="Layer_4" display="none">
	
		<rect x="1" y="1" display="inline" fill="none" stroke="#FFED00" stroke-width="0.1875" stroke-miterlimit="10" width="30" height="30"/>
</g>
<g id="Layer_1">
	<path fill="#353535" d="M10.8,18H9.2C8.6,18,8,17.5,8,16.8v-1.6C8,14.6,8.6,14,9.2,14h1.6c0.7,0,1.2,0.6,1.2,1.2v1.6
		C12,17.5,11.5,18,10.8,18z M9.2,15C9.1,15,9,15.1,9,15.2v1.6C9,16.9,9.1,17,9.2,17h1.6c0.1,0,0.2-0.1,0.2-0.2v-1.6
		c0-0.1-0.1-0.2-0.2-0.2H9.2z"/>
	<path fill="#353535" d="M22.8,18.1h-1.6c-0.7,0-1.2-0.6-1.2-1.2v-1.6c0-0.7,0.6-1.2,1.2-1.2h1.6c0.7,0,1.2,0.6,1.2,1.2v1.6
		C24,17.5,23.5,18.1,22.8,18.1z M21.2,15c-0.1,0-0.2,0.1-0.2,0.2v1.6c0,0.1,0.1,0.2,0.2,0.2h1.6c0.1,0,0.2-0.1,0.2-0.2v-1.6
		c0-0.1-0.1-0.2-0.2-0.2H21.2z"/>
	<path fill="#353535" d="M16.8,18.1h-1.6c-0.7,0-1.2-0.6-1.2-1.2v-1.6c0-0.7,0.6-1.2,1.2-1.2h1.6c0.7,0,1.2,0.6,1.2,1.2v1.6
		C18,17.5,17.5,18.1,16.8,18.1z M15.2,15c-0.1,0-0.2,0.1-0.2,0.2v1.6c0,0.1,0.1,0.2,0.2,0.2h1.6c0.1,0,0.2-0.1,0.2-0.2v-1.6
		c0-0.1-0.1-0.2-0.2-0.2H15.2z"/>
	<path fill="#353535" d="M26.8,30.8c-0.1,0-0.2,0-0.2-0.1l-4.9-2.5c-1.8,0.7-3.8,1-5.8,1c-8.3,0-15-6.1-15-13.6S7.7,2,16,2
		s15,6.1,15,13.6c0,3.4-1.4,6.6-3.9,9.1l0.2,5.5c0,0.2-0.1,0.3-0.2,0.4C27,30.8,26.9,30.8,26.8,30.8z M21.8,27.2
		c0.1,0,0.2,0,0.2,0.1l4.3,2.2l-0.2-4.8c0-0.1,0-0.3,0.2-0.4c2.4-2.4,3.8-5.4,3.8-8.6C30,8.7,23.7,3,16,3S2,8.7,2,15.6
		s6.3,12.6,14,12.6c1.9,0,3.8-0.4,5.6-1.1C21.7,27.2,21.7,27.2,21.8,27.2z"/>
</g>
<g id="Text" display="none">
</g>
<g id="Pixel_grid" display="none">
</g>
<g id="Layer_5" display="none">
</g>
<g id="Layer_8" display="none">
</g>
</svg>
