<?xml version="1.0" encoding="utf-8"?>
<!-- Generator: Adobe Illustrator 18.1.1, SVG Export Plug-In . SVG Version: 6.00 Build 0)  -->
<!DOCTYPE svg PUBLIC "-//W3C//DTD SVG 1.1//EN" "http://www.w3.org/Graphics/SVG/1.1/DTD/svg11.dtd">
<svg version="1.1" xmlns="http://www.w3.org/2000/svg" xmlns:xlink="http://www.w3.org/1999/xlink" x="0px" y="0px"
	 viewBox="0 0 16 16" enable-background="new 0 0 16 16" xml:space="preserve">
<g id="Circle_Center" display="none">
	
		<rect x="0" display="inline" fill="none" stroke="#E30613" stroke-width="6.250000e-02" stroke-miterlimit="10" width="16" height="16"/>
	
		<line display="inline" fill="none" stroke="#E30613" stroke-width="6.250000e-02" stroke-miterlimit="10" x1="0" y1="8" x2="16" y2="8"/>
	
		<line display="inline" fill="none" stroke="#E30613" stroke-width="6.250000e-02" stroke-miterlimit="10" x1="8" y1="0" x2="8" y2="16"/>
	<circle display="inline" fill="none" stroke="#E30613" stroke-width="6.666666e-02" stroke-miterlimit="10" cx="8" cy="8" r="8"/>
</g>
<g id="Layer_3" display="none">
</g>
<g id="Layer_4" display="none">
	
		<rect x="0" y="0" display="inline" fill="none" stroke="#FFED00" stroke-width="0.1" stroke-miterlimit="10" width="16" height="16"/>
</g>
<g id="Layer_1">
	<g>
		<path fill="#353535" d="M13.6,15.3c-0.1,0-0.2,0-0.2-0.1L11,14C10,14.3,9,14.5,8,14.5c-4.4,0-8-3.3-8-7.3s3.6-7.3,8-7.3
			s8,3.3,8,7.3c0,1.8-0.7,3.5-2,4.8l0.1,2.7c0,0.2-0.1,0.3-0.2,0.4C13.8,15.3,13.7,15.3,13.6,15.3z M11,12.9c0.1,0,0.2,0,0.2,0.1
			l1.8,1L13,11.9c0-0.1,0-0.3,0.2-0.4c1.2-1.2,1.9-2.7,1.9-4.3c0-3.5-3.1-6.3-7-6.3c-3.9,0-7,2.8-7,6.3s3.1,6.3,7,6.3
			c1,0,1.9-0.2,2.8-0.5C10.9,13,10.9,12.9,11,12.9z"/>
	</g>
</g>
<g id="Text" display="none">
</g>
<g id="Pixel_grid" display="none">
</g>
<g id="Layer_5" display="none">
</g>
<g id="Layer_8" display="none">
</g>
</svg>
