<?xml version="1.0" encoding="utf-8"?>
<!-- Generator: Adobe Illustrator 18.1.1, SVG Export Plug-In . SVG Version: 6.00 Build 0)  -->
<!DOCTYPE svg PUBLIC "-//W3C//DTD SVG 1.1//EN" "http://www.w3.org/Graphics/SVG/1.1/DTD/svg11.dtd">
<svg version="1.1" id="Layer_1" xmlns="http://www.w3.org/2000/svg" xmlns:xlink="http://www.w3.org/1999/xlink" x="0px" y="0px"
	 viewBox="0 0 100 100" enable-background="new 0 0 100 100" xml:space="preserve">
<g id="Circle_Center" display="none">
	<g display="inline" opacity="0.5">
		<rect fill="none" stroke="#E30613" stroke-width="0.125" stroke-miterlimit="10" width="100" height="100"/>
		<line fill="none" stroke="#E30613" stroke-width="0.125" stroke-miterlimit="10" x1="0" y1="50" x2="100" y2="50"/>
		<line fill="none" stroke="#E30613" stroke-width="0.125" stroke-miterlimit="10" x1="50" y1="0" x2="50" y2="100"/>
		<circle fill="none" stroke="#E30613" stroke-width="0.125" stroke-miterlimit="10" cx="50" cy="50" r="46.9"/>
	</g>
</g>
<g id="Layer_3" display="none">
</g>
<g id="Layer_4" display="none">
	
		<rect x="3.1" y="3.1" display="inline" fill="none" stroke="#FFED00" stroke-width="0.1875" stroke-miterlimit="10" width="93.8" height="93.8"/>
</g>
<g>
	<path fill="#353535" d="M95.9,39.4L71.6,15c-1.6-1.2-3.8-1.2-5,0L15,66.2c-0.6,0.6-0.9,1.6-0.9,2.5s0.3,1.9,0.9,2.5l24.4,24.4
		c0.6,0.6,1.6,0.9,2.5,0.9s1.6-0.3,2.2-0.9l51.9-51.2C97.2,42.8,97.2,40.6,95.9,39.4z M93.4,41.9L41.9,93.4c-0.3,0-0.3,0-0.3,0
		L17.2,69.1c0,0-0.1-0.2,0-0.3S23,63,23,63l6.4,6.7c0.3,0.3,0.9,0.3,1.2,0.3s0.6,0,1.2-0.3c0.6-0.6,0.6-1.6,0-2.2l-6.7-6.7l7-7
		l6.6,6.6c0.3,0.3,0.9,0.3,1.2,0.3s0.9-0.3,0.9-0.3c0.6-0.6,0.6-1.6,0-2.2l-6.6-6.6l7.3-7.3l6.4,6.4c0.3,0.3,0.9,0.3,1.2,0.3
		c0.6,0,0.9,0,0.9-0.3c0.6-0.6,0.6-1.6,0-2.2L43.9,42l7.3-7.3l6.6,6.6c0.3,0.3,0.9,0.3,1.2,0.3s0.6,0,0.9-0.3c0.6-0.6,0.6-1.6,0-2.2
		l-6.6-6.6l7.2-7.2l6.6,6.6c0.3,0.3,0.9,0.3,1.2,0.3s0.9-0.3,1.2-0.3c0.6-0.6,0.6-1.6,0-2.2L63,23c0,0,5.7-5.7,5.8-5.8s0.3,0,0.3,0
		l24.4,24.4V41.9z"/>
	<path fill="#353535" d="M10.9,56.2H8.4L56.2,8.4v2.5c0,0.9,0.6,1.6,1.6,1.6s1.6-0.6,1.6-1.6V4.7c0-0.9-0.6-1.6-1.6-1.6h-6.2
		c-0.9,0-1.6,0.6-1.6,1.6s0.6,1.6,1.6,1.6h2.5L6.2,54.1v-2.5c0-0.9-0.6-1.6-1.6-1.6s-1.6,0.6-1.6,1.6v6.2c0,0.9,0.6,1.6,1.6,1.6h6.2
		c0.9,0,1.6-0.6,1.6-1.6S11.9,56.2,10.9,56.2z"/>
</g>
<g id="Text" display="none">
</g>
<g id="Pixel_grid" display="none">
</g>
<g id="Layer_5" display="none">
</g>
<g id="Layer_8" display="none">
</g>
</svg>
