<?xml version="1.0" encoding="utf-8"?>
<!-- Generator: Adobe Illustrator 18.1.1, SVG Export Plug-In . SVG Version: 6.00 Build 0)  -->
<!DOCTYPE svg PUBLIC "-//W3C//DTD SVG 1.1//EN" "http://www.w3.org/Graphics/SVG/1.1/DTD/svg11.dtd">
<svg version="1.1" id="Layer_1" xmlns="http://www.w3.org/2000/svg" xmlns:xlink="http://www.w3.org/1999/xlink" x="0px" y="0px"
	 viewBox="0 0 100 100" enable-background="new 0 0 100 100" xml:space="preserve">
<g id="Circle_Center" display="none">
	<g display="inline" opacity="0.5">
		<rect fill="none" stroke="#E30613" stroke-width="0.25" stroke-miterlimit="10" width="100" height="100"/>
		<line fill="none" stroke="#E30613" stroke-width="0.25" stroke-miterlimit="10" x1="0" y1="50" x2="100" y2="50"/>
		<line fill="none" stroke="#E30613" stroke-width="0.25" stroke-miterlimit="10" x1="50" y1="0" x2="50" y2="100"/>
		<circle fill="none" stroke="#E30613" stroke-width="0.25" stroke-miterlimit="10" cx="50" cy="50" r="46.9"/>
	</g>
</g>
<g id="Layer_3" display="none">
</g>
<g id="Layer_4" display="none">
	
		<rect x="3.1" y="3.1" display="inline" fill="none" stroke="#FFED00" stroke-width="0.375" stroke-miterlimit="10" width="93.8" height="93.8"/>
</g>
<g>
	<path fill="#353535" d="M79.7,35.9c-1.2,0-2.3,0.5-3.3,1.4c-0.9,0.8-1.4,2-1.4,3.3c0,2.7,2.2,4.7,4.7,4.7c1.2,0,2.5-0.5,3.3-1.4
		c0.9-0.8,1.4-2,1.4-3.3C84.4,38,82.3,35.9,79.7,35.9z M81.9,42.8c-0.6,0.6-1.4,0.9-2.2,0.9c-1.7,0-3.1-1.4-3.1-3.1
		c0-0.8,0.3-1.6,0.9-2.2c0.5-0.6,1.2-0.9,2.2-0.9c1.7,0,3.1,1.4,3.1,3.1C82.8,41.4,82.5,42.2,81.9,42.8z"/>
	<path fill="#353535" d="M96.2,40L70.9,14.7c-0.9-0.8-2.3-0.8-3.1,0L14.7,67.8c-0.5,0.5-0.6,0.9-0.6,1.6s0.2,1.1,0.6,1.6L40,96.2
		c0.5,0.5,0.9,0.6,1.6,0.6s1.2-0.2,1.6-0.6l53.1-53.1c0.5-0.5,0.6-0.9,0.6-1.6S96.7,40.5,96.2,40z M95.2,42L42,95.2
		c-0.3,0.3-0.6,0.3-0.9,0L15.8,69.8c-0.2-0.2-0.2-0.3-0.2-0.5s0-0.3,0.2-0.5l5-5l4.7,4.7c0.2,0.2,0.5,0.2,0.6,0.2
		c0.3,0,0.5,0,0.5-0.2c0.3-0.3,0.3-0.8,0-1.1l-4.7-4.7l4.2-4.2l9.8,9.8c0.2,0.2,0.5,0.2,0.6,0.2s0.3,0,0.5-0.2
		c0.3-0.3,0.3-0.8,0-1.1l-9.8-9.8l4.2-4.2l4.7,4.7c0.2,0.2,0.5,0.2,0.6,0.2S37,58,37.2,58c0.3-0.3,0.3-0.8,0-1.1l-4.7-4.7l4.1-4.1
		l4.6,4.6c0.2,0.2,0.5,0.2,0.6,0.2s0.5-0.2,0.5-0.2c0.3-0.3,0.3-0.8,0-1.1L37.7,47l4.3-4.3l9.7,9.8c0.2,0.2,0.5,0.2,0.6,0.2
		c0.3,0,0.5-0.2,0.6-0.2c0.3-0.3,0.3-0.8,0-1.1l-9.8-9.8l4.2-4.2L52,42c0.2,0.2,0.5,0.2,0.6,0.2s0.3,0,0.5-0.2
		c0.3-0.3,0.3-0.8,0-1.1l-4.7-4.7l4.1-4.1l4.6,4.6c0.2,0.2,0.5,0.2,0.6,0.2c0.3,0,0.5,0,0.5-0.2c0.3-0.3,0.3-0.8,0-1.1L53.7,31
		l4.2-4.2l9.8,9.8c0.2,0.2,0.5,0.2,0.6,0.2s0.5,0,0.5-0.2c0.3-0.3,0.3-0.8,0-1.1L59,25.7l4.2-4.2l4.6,4.6c0.2,0.2,0.5,0.2,0.6,0.2
		s0.3-0.2,0.5-0.2c0.3-0.3,0.3-0.8,0-1.1l-4.6-4.6l4.6-4.6c0.2-0.2,0.3-0.2,0.5-0.2s0.3,0,0.3,0.2l25.5,25.3
		c0.2,0.2,0.2,0.3,0.2,0.5S95.3,41.9,95.2,42z"/>
	<path fill="#353535" d="M10.9,57.8H5.8l52-52v5.2c0,0.5,0.3,0.8,0.8,0.8s0.8-0.3,0.8-0.8v-7c0-0.5-0.3-0.8-0.8-0.8h-7
		c-0.5,0-0.8,0.3-0.8,0.8s0.3,0.8,0.8,0.8h5.2l-52,52v-5.2c0-0.5-0.3-0.8-0.8-0.8s-0.8,0.3-0.8,0.8v7c0,0.5,0.3,0.8,0.8,0.8h7
		c0.5,0,0.8-0.3,0.8-0.8S11.4,57.8,10.9,57.8z"/>
</g>
<g id="Text" display="none">
</g>
<g id="Pixel_grid" display="none">
</g>
<g id="Layer_5" display="none">
</g>
<g id="Layer_8" display="none">
</g>
</svg>
