<?xml version="1.0" encoding="utf-8"?>
<!-- Generator: Adobe Illustrator 18.1.1, SVG Export Plug-In . SVG Version: 6.00 Build 0)  -->
<!DOCTYPE svg PUBLIC "-//W3C//DTD SVG 1.1//EN" "http://www.w3.org/Graphics/SVG/1.1/DTD/svg11.dtd">
<svg version="1.1" id="Layer_1" xmlns="http://www.w3.org/2000/svg" xmlns:xlink="http://www.w3.org/1999/xlink" x="0px" y="0px"
	 viewBox="0 0 100 100" enable-background="new 0 0 100 100" xml:space="preserve">
<g id="Circle_Center" display="none">
	<g display="inline" opacity="0.5">
		<rect fill="none" stroke="#E30613" stroke-width="0.125" stroke-miterlimit="10" width="100" height="100"/>
		<line fill="none" stroke="#E30613" stroke-width="0.125" stroke-miterlimit="10" x1="0" y1="50" x2="100" y2="50"/>
		<line fill="none" stroke="#E30613" stroke-width="0.125" stroke-miterlimit="10" x1="50" y1="0" x2="50" y2="100"/>
		<circle fill="none" stroke="#E30613" stroke-width="0.125" stroke-miterlimit="10" cx="50" cy="50" r="46.9"/>
	</g>
</g>
<g id="Layer_3" display="none">
</g>
<g id="Layer_4" display="none">
	
		<rect x="3.1" y="3.1" display="inline" fill="none" stroke="#FFED00" stroke-width="0.1875" stroke-miterlimit="10" width="93.8" height="93.8"/>
</g>
<g>
	<path fill="#353535" d="M95.9,29.4c-0.9-0.9-1.9-1.2-2.8-1.2H82.8c-0.9,0-1.6,0.6-1.6,1.6s0.6,1.6,1.6,1.6h10.3l-8.8,40.3
		c0,0.3-0.3,0.3-0.3,0.3H68.9l1.4-18.8c0-0.6-0.6-1.6-1.6-1.6c-0.6,0-1.6,0.6-1.6,1.6l-1.4,18.8H49.9l-1.4-18.8
		c0-0.9-0.6-1.6-1.6-1.6s-1.6,0.6-1.6,1.6l1.4,18.8H31l-0.7-3.1c-0.1-0.3-8.1-37.2-8.1-37.2l0.3-0.3h10.3c0.9,0,1.6-0.6,1.6-1.6
		s-0.6-1.6-1.6-1.6H22.5c-0.3,0-0.7,0.1-1,0.2l-2.5-11.5c-0.3-0.6-0.9-1.2-1.6-1.2H4.7c-0.9,0-1.6,0.6-1.6,1.6s0.6,1.6,1.6,1.6h11.6
		l10.9,50.1c0,0.2,0,0.3,0.1,0.5l2.7,12.6c-2.7,1.2-4.6,3.9-4.6,7.1c0,4.4,3.4,7.8,7.8,7.8c3.8,0,7-2.6,7.7-6.2h25
		c0.7,3.6,3.8,6.2,7.7,6.2c4.4,0,7.8-3.4,7.8-7.8s-3.4-7.8-7.8-7.8c-3.8,0-7,2.6-7.7,6.2h-25c-0.7-3.6-3.8-6.2-7.7-6.2
		c0,0-0.1,0-0.1,0L31.7,75h52.7c1.6,0,3.1-1.2,3.8-2.8l8.4-40C96.9,31.2,96.9,30.3,95.9,29.4z M73.4,84.4c2.5,0,4.7,2.2,4.7,4.7
		s-2.2,4.7-4.7,4.7s-4.7-2.2-4.7-4.7S70.9,84.4,73.4,84.4z M37.8,89.1c0,2.5-2.2,4.7-4.7,4.7s-4.7-2.2-4.7-4.7s2.2-4.7,4.7-4.7
		S37.8,86.6,37.8,89.1z"/>
	<path fill="#353535" d="M50,37.5c0.3,0.3,0.9,0.3,1.2,0.3s0.6,0,0.9-0.3l5.5-5.5l5.5,5.5c0.3,0.3,0.9,0.3,1.2,0.3s0.9,0,0.9-0.3
		c0.6-0.6,0.6-1.6,0-2.2l-5.5-5.5l5.8-5.8c0.6-0.6,0.6-1.6,0-2.2s-1.6-0.6-2.2,0l-5.8,5.8l-5.5-5.5c-0.6-0.6-1.6-0.6-2.2,0
		s-0.6,1.6,0,2.2l5.5,5.5L50,35.3C49.4,35.9,49.4,36.9,50,37.5z"/>
	<path fill="#353535" d="M57.8,50c11.2,0,20.3-9.1,20.3-20.3S69.1,9.4,57.8,9.4s-20.3,9.1-20.3,20.3S46.6,50,57.8,50z M57.8,12.5
		C67.2,12.5,75,20,75,29.7s-7.8,17.2-17.2,17.2s-17.2-7.8-17.2-17.2S48.4,12.5,57.8,12.5z"/>
</g>
<g id="Text" display="none">
</g>
<g id="Pixel_grid" display="none">
</g>
<g id="Layer_5" display="none">
</g>
<g id="Layer_8" display="none">
</g>
</svg>
