<?xml version="1.0" encoding="utf-8"?>
<!-- Generator: Adobe Illustrator 18.1.1, SVG Export Plug-In . SVG Version: 6.00 Build 0)  -->
<!DOCTYPE svg PUBLIC "-//W3C//DTD SVG 1.1//EN" "http://www.w3.org/Graphics/SVG/1.1/DTD/svg11.dtd">
<svg version="1.1" xmlns="http://www.w3.org/2000/svg" xmlns:xlink="http://www.w3.org/1999/xlink" x="0px" y="0px"
	 viewBox="0 0 32 32" enable-background="new 0 0 32 32" xml:space="preserve">
<g id="Circle_Center" display="none">
	<g display="inline" opacity="0.5">
		<rect y="0" fill="none" stroke="#E30613" stroke-width="0.125" stroke-miterlimit="10" width="32" height="32"/>
		<line fill="none" stroke="#E30613" stroke-width="0.125" stroke-miterlimit="10" x1="0" y1="16" x2="32" y2="16"/>
		<line fill="none" stroke="#E30613" stroke-width="0.125" stroke-miterlimit="10" x1="16" y1="0" x2="16" y2="32"/>
		<circle fill="none" stroke="#E30613" stroke-width="0.125" stroke-miterlimit="10" cx="16" cy="16" r="15"/>
	</g>
</g>
<g id="Layer_3" display="none">
</g>
<g id="Layer_4" display="none">
	
		<rect x="1" y="1" display="inline" fill="none" stroke="#FFED00" stroke-width="0.1875" stroke-miterlimit="10" width="30" height="30"/>
</g>
<g id="Layer_1">
	<path fill="#353535" d="M25.5,8.5c-0.5,0-1-0.2-1.4-0.6c-0.8-0.8-0.8-2,0-2.8c0.8-0.8,2.1-0.8,2.8,0c0.8,0.8,0.8,2,0,2.8
		C26.6,8.3,26,8.5,25.5,8.5z M25.5,5.5c-0.3,0-0.5,0.1-0.7,0.3c-0.4,0.4-0.4,1,0,1.4c0.4,0.4,1,0.4,1.4,0c0.4-0.4,0.4-1,0-1.4
		C26,5.6,25.8,5.5,25.5,5.5z"/>
	<path fill="#353535" d="M11.3,31c-0.3,0-0.6-0.1-0.8-0.3l-9.1-9.1C1.1,21.3,1,21,1,20.7c0-0.3,0.1-0.6,0.3-0.8L19.9,1.3
		C20.1,1.1,20.3,1,20.6,1l0.1,0l9.1,0C30.5,1,31,1.5,31,2.2v9.1c0,0,0,0.1,0,0.2c0,0.2-0.1,0.4-0.3,0.6L12.1,30.7
		C11.9,30.9,11.6,31,11.3,31z M20.7,2L20.7,2L2.1,20.6c-0.1,0.1-0.1,0.2,0,0.3l9.1,9.1c0.1,0.1,0.2,0.1,0.3,0L30,11.4l0-9.2
		C30,2.1,29.9,2,29.8,2H20.7z"/>
	<path fill="#353535" d="M7.7,21.6c-0.1,0-0.3,0-0.4-0.1c-0.2-0.2-0.2-0.5,0-0.7L19,9c0.2-0.2,0.5-0.2,0.7,0s0.2,0.5,0,0.7L8,21.5
		C7.9,21.6,7.8,21.6,7.7,21.6z"/>
	<path fill="#353535" d="M10.9,24.8c-0.1,0-0.3,0-0.4-0.1c-0.2-0.2-0.2-0.5,0-0.7l11.7-11.7c0.2-0.2,0.5-0.2,0.7,0s0.2,0.5,0,0.7
		L11.2,24.7C11.1,24.8,11,24.8,10.9,24.8z"/>
</g>
<g id="Text" display="none">
</g>
<g id="Pixel_grid" display="none">
</g>
<g id="Layer_5" display="none">
</g>
<g id="Layer_8" display="none">
</g>
</svg>
