<?xml version="1.0" encoding="utf-8"?>
<!-- Generator: Adobe Illustrator 18.1.1, SVG Export Plug-In . SVG Version: 6.00 Build 0)  -->
<!DOCTYPE svg PUBLIC "-//W3C//DTD SVG 1.1//EN" "http://www.w3.org/Graphics/SVG/1.1/DTD/svg11.dtd">
<svg version="1.1" xmlns="http://www.w3.org/2000/svg" xmlns:xlink="http://www.w3.org/1999/xlink" x="0px" y="0px"
	 viewBox="0 0 64 64" enable-background="new 0 0 64 64" xml:space="preserve">
<g id="Circle_Center" display="none">
	<g display="inline" opacity="0.5">
		<rect fill="none" stroke="#E30613" stroke-width="0.25" stroke-miterlimit="10" width="64" height="64"/>
		<line fill="none" stroke="#E30613" stroke-width="0.25" stroke-miterlimit="10" x1="0" y1="32" x2="64" y2="32"/>
		<line fill="none" stroke="#E30613" stroke-width="0.25" stroke-miterlimit="10" x1="32" y1="0" x2="32" y2="64"/>
		<circle fill="none" stroke="#E30613" stroke-width="0.25" stroke-miterlimit="10" cx="32" cy="32" r="30"/>
	</g>
</g>
<g id="Layer_3" display="none">
</g>
<g id="Layer_4" display="none">
	
		<rect x="2" y="2" display="inline" fill="none" stroke="#FFED00" stroke-width="0.375" stroke-miterlimit="10" width="60" height="60"/>
</g>
<g id="Layer_1">
	<path fill="#353535" d="M45,22c-0.8,0-1.5-0.3-2.1-0.9c-1.2-1.2-1.2-3.1,0-4.2c1.1-1.1,3.1-1.2,4.2,0c0.6,0.6,0.9,1.3,0.9,2.1
		c0,0.8-0.3,1.6-0.9,2.1C46.6,21.7,45.8,22,45,22z M45,17c-0.5,0-1.1,0.2-1.4,0.6c-0.8,0.8-0.8,2.1,0,2.8c0.8,0.7,2.1,0.7,2.8,0
		c0.8-0.8,0.8-2.1,0-2.8C46,17.2,45.6,17,45,17z"/>
	<path fill="#353535" d="M20.2,61.3c-0.5,0-0.9-0.2-1.2-0.5L3.2,45c-0.3-0.3-0.5-0.7-0.5-1.2c0-0.5,0.2-0.9,0.5-1.2l32.2-32.2
		c0.3-0.3,0.6-0.4,1-0.4l0.2,0l15.8,0c0.9,0,1.7,0.8,1.7,1.7v16c0,0,0,0.1,0,0.1c-0.1,0.4-0.2,0.6-0.4,0.8L21.4,60.8
		C21.1,61.1,20.6,61.3,20.2,61.3z M36.6,11l-0.2,0c-0.1,0-0.2,0-0.3,0.1L3.9,43.3c-0.1,0.1-0.2,0.3-0.2,0.5c0,0.2,0.1,0.4,0.2,0.5
		l15.8,15.8c0.3,0.3,0.7,0.3,1,0l32.2-32.2c0.1-0.1,0.1-0.2,0.1-0.2c0,0,0,0,0-0.1V11.7c0-0.4-0.3-0.7-0.7-0.7H36.6z"/>
	<path fill="#353535" d="M13.9,46.4c-0.5,0-1-0.2-1.4-0.6c-0.4-0.4-0.6-0.9-0.6-1.4c0-0.5,0.2-1,0.6-1.4l20.4-20.4
		c0.7-0.7,2-0.7,2.8,0c0.4,0.4,0.6,0.9,0.6,1.4s-0.2,1-0.6,1.4L15.3,45.8C14.9,46.2,14.4,46.4,13.9,46.4z M34.2,23
		c-0.3,0-0.5,0.1-0.7,0.3L13.2,43.7c-0.2,0.2-0.3,0.4-0.3,0.7c0,0.3,0.1,0.5,0.3,0.7c0.5,0.4,1.1,0.4,1.4,0L35,24.8
		c0.2-0.2,0.3-0.4,0.3-0.7s-0.1-0.5-0.3-0.7C34.8,23.1,34.5,23,34.2,23z"/>
	<path fill="#353535" d="M19.6,52c-0.5,0-1-0.2-1.4-0.6c-0.4-0.4-0.6-0.9-0.6-1.4c0-0.5,0.2-1,0.6-1.4l20.4-20.4
		c0.7-0.7,2-0.7,2.8,0c0.4,0.4,0.6,0.9,0.6,1.4s-0.2,1-0.6,1.4L20.9,51.5C20.6,51.8,20.1,52,19.6,52z M39.9,28.7
		c-0.3,0-0.5,0.1-0.7,0.3L18.8,49.4c-0.2,0.2-0.3,0.4-0.3,0.7c0,0.3,0.1,0.5,0.3,0.7c0.5,0.5,1.1,0.4,1.4,0l20.4-20.4
		c0.2-0.2,0.3-0.4,0.3-0.7s-0.1-0.5-0.3-0.7C40.4,28.8,40.2,28.7,39.9,28.7z"/>
</g>
<g id="Text" display="none">
</g>
<g id="Pixel_grid" display="none">
</g>
<g id="Layer_5" display="none">
</g>
<g id="Layer_8" display="none">
</g>
</svg>
