<?xml version="1.0" encoding="utf-8"?>
<!-- Generator: Adobe Illustrator 18.1.1, SVG Export Plug-In . SVG Version: 6.00 Build 0)  -->
<!DOCTYPE svg PUBLIC "-//W3C//DTD SVG 1.1//EN" "http://www.w3.org/Graphics/SVG/1.1/DTD/svg11.dtd">
<svg version="1.1" id="Layer_1" xmlns="http://www.w3.org/2000/svg" xmlns:xlink="http://www.w3.org/1999/xlink" x="0px" y="0px"
	 viewBox="0 0 100 100" enable-background="new 0 0 100 100" xml:space="preserve">
<g id="Circle_Center" display="none">
	<g display="inline" opacity="0.5">
		<rect fill="none" stroke="#E30613" stroke-width="0.25" stroke-miterlimit="10" width="100" height="100"/>
		<line fill="none" stroke="#E30613" stroke-width="0.25" stroke-miterlimit="10" x1="0" y1="50" x2="100" y2="50"/>
		<line fill="none" stroke="#E30613" stroke-width="0.25" stroke-miterlimit="10" x1="50" y1="0" x2="50" y2="100"/>
		<circle fill="none" stroke="#E30613" stroke-width="0.25" stroke-miterlimit="10" cx="50" cy="50" r="46.9"/>
	</g>
</g>
<g id="Layer_3" display="none">
</g>
<g id="Layer_4" display="none">
	
		<rect x="3.1" y="3.1" display="inline" fill="none" stroke="#FFED00" stroke-width="0.375" stroke-miterlimit="10" width="93.8" height="93.8"/>
</g>
<g>
	<path fill="#353535" d="M83.1,42.5c1.6-1.6,3.1-3.1,3.1-5s-1.6-3.4-3.1-5c-1.1-0.9-2.2-2-2.5-3.1s0.2-2.7,0.6-4.2
		c0.5-2,1.1-4.2,0.2-5.8s-3.1-2.2-5.2-2.7c-1.6-0.3-3.1-0.8-3.9-1.6s-1.2-2.3-1.6-3.9c-0.5-2-0.9-4.2-2.7-5.2
		c-1.4-0.9-3.8-0.5-5.8,0.2c-1.6,0.5-3.3,0.9-4.2,0.6s-2-1.4-3.1-2.5c-1.6-1.6-3.1-3.1-5-3.1s-3.4,1.6-5,3.1c-0.9,1.1-2,2.2-3.1,2.5
		c-1.1,0.2-2.7-0.2-4.2-0.6c-2.2-0.5-4.4-0.9-5.8-0.2c-1.6,0.9-2.2,3.1-2.7,5.2c-0.3,1.6-0.8,3.1-1.6,3.9s-2.3,1.2-3.9,1.6
		c-2,0.5-4.2,0.9-5.2,2.7s-0.5,3.8,0.2,5.8c0.5,1.6,0.9,3.1,0.6,4.2c-0.3,0.9-1.4,2-2.5,3.1c-1.6,1.6-3.1,3.1-3.1,5s1.6,3.4,3.1,5
		c1.1,0.9,2.2,2,2.5,3.1s-0.2,2.7-0.6,4.2c-0.5,2-1.1,4.2-0.2,5.8s3.1,2.2,5.2,2.7c1.6,0.3,3.1,0.8,3.9,1.6s1.2,2.3,1.6,3.9
		c0.5,2,0.9,4.2,2.7,5.2c0.2,0.1,0.4,0.2,0.6,0.3L22.8,93c-0.2,0.3-0.2,0.8,0.2,0.9c0.3,0.3,0.6,0.3,0.9,0.2l7.5-4.4l1.2,5.5
		c0.2,0.3,0.3,0.6,0.6,0.6c0.3,0.2,0.6,0,0.8-0.2l4.1-4.2l3.9,7.5c0,0.3,0.3,0.5,0.6,0.5s0.6-0.3,0.6-0.5L49,73.6
		c0.3,0.1,0.6,0.2,1,0.2c0.5,0,1-0.2,1.5-0.4L55,95.9c0,0.3,0.3,0.6,0.8,0.6c0.3,0,0.5-0.2,0.8-0.5l4.2-11.6l5,6.4
		c0.2,0.3,0.5,0.3,0.8,0.3c0.3-0.2,0.6-0.3,0.6-0.6l1.1-5.8l7.5,4.7c0.3,0.3,0.6,0.2,0.9,0c0.3-0.3,0.5-0.6,0.3-0.9l-7.8-20.8
		c0.8-1.1,1.2-2.6,1.5-4.1c0.3-1.6,0.8-3.1,1.6-3.9s2.3-1.2,3.9-1.6c2-0.5,4.2-0.9,5.2-2.7s0.5-3.8-0.2-5.8
		c-0.5-1.6-0.9-3.1-0.6-4.2C80.9,44.7,82,43.6,83.1,42.5z M42.2,96.4l-3.3-6.6c-0.2-0.3-0.3-0.5-0.6-0.5c-0.2-0.2-0.5,0-0.6,0.2
		l-3.9,3.9l-1.2-5.2c0-0.2-0.3-0.3-0.5-0.5s-0.5-0.2-0.6,0L25,91.6l9-22.1c1.2,0,2.5-0.3,3.6-0.7c1.6-0.5,3.3-0.9,4.2-0.6
		s2,1.4,3.1,2.5c0.8,0.8,1.7,1.7,2.6,2.3L42.2,96.4z M68.3,83c-0.3-0.2-0.5-0.2-0.8,0S67,83.3,67,83.6l-0.9,5.2l-4.8-6.2
		c-0.2-0.3-0.5-0.3-0.8-0.3s-0.5,0.2-0.6,0.5l-3.8,10L53,72.4c0.7-0.6,1.3-1.2,2-1.8c0.9-1.1,2-2.2,3.1-2.5c1.1-0.2,2.7,0.2,4.2,0.6
		c2.1,0.5,4.3,0.9,5.7,0.2L74.8,87L68.3,83z M79.8,50.2c0.5,1.7,0.9,3.4,0.3,4.5s-2.5,1.6-4.2,2s-3.4,0.9-4.5,2s-1.6,2.8-2,4.5
		s-0.9,3.6-2,4.2c-0.9,0.6-2.8,0.2-4.5-0.3s-3.6-0.9-5-0.6c-1.4,0.5-2.7,1.7-3.9,3s-2.7,2.7-3.9,2.7s-2.7-1.4-3.9-2.7
		s-2.5-2.7-3.9-3c-0.5-0.2-0.8-0.2-1.2-0.2c-1.1,0-2.5,0.3-3.8,0.8c-1.7,0.5-3.6,0.8-4.5,0.3c-1.1-0.6-1.6-2.5-2-4.2s-0.9-3.4-2-4.5
		s-2.8-1.6-4.5-2s-3.6-0.9-4.2-2s-0.2-2.8,0.3-4.5s1.1-3.4,0.6-5c-0.5-1.4-1.7-2.7-3-3.9s-2.7-2.7-2.7-3.9s1.4-2.7,2.7-3.9
		s2.7-2.5,3-3.9c0.3-1.6-0.2-3.3-0.6-5s-0.9-3.4-0.3-4.5s2.5-1.6,4.2-2s3.4-0.9,4.5-2s1.6-2.8,2-4.5s0.9-3.6,2-4.2
		c0.9-0.6,2.8-0.2,4.5,0.3s3.6,0.9,5,0.6c1.4-0.5,2.7-1.7,3.9-3s2.7-2.7,3.9-2.7s2.7,1.4,3.9,2.7s2.5,2.7,3.9,3s3.3-0.2,5-0.6
		s3.6-0.8,4.5-0.3c1.1,0.6,1.6,2.5,2,4.2s0.9,3.4,2,4.5s2.8,1.6,4.5,2s3.6,0.9,4.2,2s0.2,2.8-0.3,4.5s-1.1,3.4-0.6,5
		c0.5,1.4,1.7,2.7,3,3.9s2.7,2.7,2.7,3.9s-1.4,2.7-2.7,3.9s-2.7,2.5-3,3.9C78.9,46.7,79.4,48.4,79.8,50.2z"/>
	<path fill="#353535" d="M50,17.2c-11.2,0-20.3,9.1-20.3,20.3S38.8,57.8,50,57.8s20.3-9.1,20.3-20.3S61.2,17.2,50,17.2z M50,56.2
		c-10.3,0-18.8-8.4-18.8-18.8S39.7,18.8,50,18.8s18.8,8.4,18.8,18.8S60.3,56.2,50,56.2z"/>
	<path fill="#353535" d="M50,21.9c-8.6,0-15.6,7-15.6,15.6s7,15.6,15.6,15.6s15.6-7,15.6-15.6S58.6,21.9,50,21.9z M50,51.6
		c-7.8,0-14.1-6.2-14.1-14.1S42.2,23.4,50,23.4s14.1,6.2,14.1,14.1S57.8,51.6,50,51.6z"/>
</g>
<g id="Text" display="none">
</g>
<g id="Pixel_grid" display="none">
</g>
<g id="Layer_5" display="none">
</g>
<g id="Layer_8" display="none">
</g>
</svg>
