<?xml version="1.0" encoding="utf-8"?>
<!-- Generator: Adobe Illustrator 18.1.1, SVG Export Plug-In . SVG Version: 6.00 Build 0)  -->
<!DOCTYPE svg PUBLIC "-//W3C//DTD SVG 1.1//EN" "http://www.w3.org/Graphics/SVG/1.1/DTD/svg11.dtd">
<svg version="1.1" id="Layer_1" xmlns="http://www.w3.org/2000/svg" xmlns:xlink="http://www.w3.org/1999/xlink" x="0px" y="0px"
	 viewBox="0 0 100 100" enable-background="new 0 0 100 100" xml:space="preserve">
<g id="Circle_Center" display="none">
	<g display="inline" opacity="0.5">
		<rect fill="none" stroke="#E30613" stroke-width="0.125" stroke-miterlimit="10" width="100" height="100"/>
		<line fill="none" stroke="#E30613" stroke-width="0.125" stroke-miterlimit="10" x1="0" y1="50" x2="100" y2="50"/>
		<line fill="none" stroke="#E30613" stroke-width="0.125" stroke-miterlimit="10" x1="50" y1="0" x2="50" y2="100"/>
		<circle fill="none" stroke="#E30613" stroke-width="0.125" stroke-miterlimit="10" cx="50" cy="50" r="46.9"/>
	</g>
</g>
<g id="Layer_3" display="none">
</g>
<g id="Layer_4" display="none">
	
		<rect x="3.1" y="3.1" display="inline" fill="none" stroke="#FFED00" stroke-width="0.1875" stroke-miterlimit="10" width="93.8" height="93.8"/>
</g>
<g>
	<path fill="#353535" d="M66.3,64.7c10.8-5.8,18-17.1,18-30.3C84.4,15.3,69.1,0,50,0S15.6,15.3,15.6,34.4c0,13.3,7.5,24.8,18.4,30.5
		L21.6,94.1c-0.3,0.6-0.3,1.6,0.3,1.9c0.6,0.6,1.2,0.6,1.9,0.3L35,90.6l5.6,8.8c0.3,0.3,0.6,0.6,1.2,0.6c0.9,0,1.6-0.6,1.6-1.6
		L50,70l4,28.7c0.3,0.6,0.6,1.2,1.2,1.2h0.3c0.3,0,0.9-0.3,1.2-0.6l6.9-9.4l10.3,5c0.3,0.3,0.9,0,1.6-0.3c0.3-0.3,0.6-0.9,0.3-1.6
		L66.3,64.7z M18.8,34.4C18.8,17.2,32.8,3.1,50,3.1s31.2,14.1,31.2,31.2S67.2,65.6,50,65.6S18.8,51.6,18.8,34.4z M41.2,94.1
		l-4.4-6.6c-0.3-0.6-1.2-0.9-1.9-0.6l-8.8,4.4l10.6-25.1c3.2,1.3,6.6,2.2,10.2,2.4L41.2,94.1z M63.8,86.9c-0.6-0.3-1.6,0-1.9,0.6
		l-5.3,7.2L53,68.6c3.8-0.3,7.3-1.2,10.6-2.7l8.2,24.7L63.8,86.9z"/>
	<path fill="#353535" d="M75,34.4c0-13.8-11.2-25-25-25s-25,11.2-25,25s11.2,25,25,25S75,48.1,75,34.4z M28.1,34.4
		c0-12.2,9.7-21.9,21.9-21.9s21.9,9.7,21.9,21.9S62.2,56.2,50,56.2S28.1,46.6,28.1,34.4z"/>
</g>
<g id="Text" display="none">
</g>
<g id="Pixel_grid" display="none">
</g>
<g id="Layer_5" display="none">
</g>
<g id="Layer_8" display="none">
</g>
</svg>
