<?xml version="1.0" encoding="utf-8"?>
<!-- Generator: Adobe Illustrator 18.1.1, SVG Export Plug-In . SVG Version: 6.00 Build 0)  -->
<!DOCTYPE svg PUBLIC "-//W3C//DTD SVG 1.1//EN" "http://www.w3.org/Graphics/SVG/1.1/DTD/svg11.dtd">
<svg version="1.1" id="Layer_1" xmlns="http://www.w3.org/2000/svg" xmlns:xlink="http://www.w3.org/1999/xlink" x="0px" y="0px"
	 viewBox="0 0 100 100" enable-background="new 0 0 100 100" xml:space="preserve">
<g id="Circle_Center" display="none">
	
		<rect display="inline" fill="none" stroke="#E30613" stroke-width="6.250000e-02" stroke-miterlimit="10" width="100" height="100"/>
	
		<line display="inline" fill="none" stroke="#E30613" stroke-width="6.250000e-02" stroke-miterlimit="10" x1="0" y1="50" x2="100" y2="50"/>
	
		<line display="inline" fill="none" stroke="#E30613" stroke-width="6.250000e-02" stroke-miterlimit="10" x1="50" y1="0" x2="50" y2="100"/>
	
		<circle display="inline" fill="none" stroke="#E30613" stroke-width="6.666666e-02" stroke-miterlimit="10" cx="50" cy="50" r="50"/>
</g>
<g id="Layer_3" display="none">
</g>
<g id="Layer_4" display="none">
	<rect display="inline" fill="none" stroke="#FFED00" stroke-width="0.1" stroke-miterlimit="10" width="100" height="100"/>
</g>
<g>
	<path fill="#353535" d="M98.8,66.2l-4.4-7.5c-1.2-2.5-3.8-4.4-6.9-4.4H80c-0.6,0-1.3,0.1-1.9,0.2v-5.9c0-2.5-2.5-5-5-5H15.6
		c-1.9,0-3.1,1.2-3.1,3.1s1.2,3.1,3.1,3.1h56.2v13.1v8.8v12.9c-0.8,0.8-1.4,1.7-1.9,2.7H41.9c-1.2-2.9-4.1-5-7.5-5s-6.3,2.1-7.5,5
		H15.6c-1.9,0-3.1,1.2-3.1,3.1s1.2,3.1,3.1,3.1h11.2c1.2,2.9,4.1,5,7.5,5s6.3-2.1,7.5-5H70c1.2,2.9,4.1,5,7.5,5s6.3-2.1,7.5-5h6.9
		c4.4,0,8.1-3.8,8.1-8.8V70.6C100,69.4,99.4,67.5,98.8,66.2z M93.8,85c0,1.2-0.6,2.5-1.9,2.5H85c-1.1-2.8-3.8-4.7-6.9-5V71.9v-8.8
		c0-1.2,0.6-2.5,1.9-2.5h6.9c0.6,0,1.2,0.6,1.9,1.2l4.4,7.5c0.6,0.6,0.6,0.6,0.6,1.2V85z"/>
	<path fill="#353535" d="M6.2,62.5h31.9c1.9,0,3.1-1.2,3.1-3.1s-1.2-3.1-3.1-3.1H6.2c-1.9,0-3.1,1.2-3.1,3.1S4.4,62.5,6.2,62.5z"/>
	<path fill="#353535" d="M38.1,71.9c0-1.9-1.2-3.1-3.1-3.1H3.1C1.2,68.8,0,70,0,71.9S1.2,75,3.1,75H35C36.9,75,38.1,73.8,38.1,71.9z
		"/>
</g>
<g id="Text" display="none">
</g>
<g id="Pixel_grid" display="none">
</g>
<g id="Layer_5" display="none">
</g>
<g id="Layer_8" display="none">
</g>
</svg>
