<?xml version="1.0" encoding="utf-8"?>
<!-- Generator: Adobe Illustrator 18.1.1, SVG Export Plug-In . SVG Version: 6.00 Build 0)  -->
<!DOCTYPE svg PUBLIC "-//W3C//DTD SVG 1.1//EN" "http://www.w3.org/Graphics/SVG/1.1/DTD/svg11.dtd">
<svg version="1.1" id="Layer_1" xmlns="http://www.w3.org/2000/svg" xmlns:xlink="http://www.w3.org/1999/xlink" x="0px" y="0px"
	 viewBox="0 0 100 100" enable-background="new 0 0 100 100" xml:space="preserve">
<g id="Circle_Center" display="none">
	<g display="inline" opacity="0.5">
		<rect fill="none" stroke="#E30613" stroke-width="0.125" stroke-miterlimit="10" width="100" height="100"/>
		<line fill="none" stroke="#E30613" stroke-width="0.125" stroke-miterlimit="10" x1="0" y1="50" x2="100" y2="50"/>
		<line fill="none" stroke="#E30613" stroke-width="0.125" stroke-miterlimit="10" x1="50" y1="0" x2="50" y2="100"/>
		<circle fill="none" stroke="#E30613" stroke-width="0.125" stroke-miterlimit="10" cx="50" cy="50" r="46.9"/>
	</g>
</g>
<g id="Layer_3" display="none">
</g>
<g id="Layer_4" display="none">
	
		<rect x="3.1" y="3.1" display="inline" fill="none" stroke="#FFED00" stroke-width="0.1875" stroke-miterlimit="10" width="93.8" height="93.8"/>
</g>
<g>
	<path fill="#353535" d="M96.2,67.2l-5.3-9.4c-0.9-1.2-2.5-2.2-4.1-2.2H76.6c-0.5,0-1.1,0.1-1.6,0.3v-5c0-1.9-1.6-3.4-3.4-3.4H19.1
		c-1.9,0-3.4,1.6-3.4,3.4v5.3c0,0.9,0.6,1.6,1.6,1.6s1.6-0.6,1.6-1.6v-5.3c0-0.3,0-0.3,0.3-0.3h52.5c0.3,0,0.3,0,0.3,0.3v9.4v20v0.6
		c-2.8,1.4-4.7,4.2-4.7,7.6h-2.8H42.5c0-4.7-3.8-8.4-8.4-8.4s-8.4,3.8-8.4,8.4h-6.6c-0.3,0-0.3,0-0.3-0.3v-6.9
		c0-0.9-0.6-1.6-1.6-1.6s-1.6,0.6-1.6,1.6v6.9c0,1.9,1.6,3.4,3.4,3.4h7.2c1.2,3.1,4.3,5.3,7.8,5.3s6.6-2.2,7.8-5.3h22.5h3.4
		c1.2,3.1,4.3,5.3,7.8,5.3s6.6-2.2,7.8-5.3h8.7c2.5,0,4.7-2.2,4.7-4.7V69.7C96.9,68.8,96.6,67.8,96.2,67.2z M34.1,93.8
		c-3.1,0-5.3-2.5-5.3-5.3s2.5-5.3,5.3-5.3s5.3,2.5,5.3,5.3S37.2,93.8,34.1,93.8z M75.6,93.8c-2.8,0-5.3-2.5-5.3-5.3s2.5-5.3,5.3-5.3
		s5.3,2.5,5.3,5.3S78.4,93.8,75.6,93.8z M93.8,86.9c0,0.9-0.6,1.6-1.6,1.6h-8.1c0-4.7-3.8-8.4-8.4-8.4c-0.2,0-0.4,0-0.6,0V60.3
		c0-0.9,0.6-1.6,1.6-1.6h10.3c0.6,0,0.9,0,1.2,0.6l5.3,9.4c0.3,0.3,0.3,0.6,0.3,0.9V86.9z"/>
	<circle fill="#353535" cx="82.8" cy="65.6" r="3.1"/>
	<path fill="#353535" d="M42.2,64.1c0-0.9-0.6-1.6-1.6-1.6H4.7c-0.9,0-1.6,0.6-1.6,1.6s0.6,1.6,1.6,1.6h35.9
		C41.6,65.6,42.2,65,42.2,64.1z"/>
	<path fill="#353535" d="M40.6,73.4c0-0.9-0.6-1.6-1.6-1.6H9.4c-0.9,0-1.6,0.6-1.6,1.6S8.4,75,9.4,75h29.7
		C40,75,40.6,74.4,40.6,73.4z"/>
</g>
<g id="Text" display="none">
</g>
<g id="Pixel_grid" display="none">
</g>
<g id="Layer_5" display="none">
</g>
<g id="Layer_8" display="none">
</g>
</svg>
