<?xml version="1.0" encoding="utf-8"?>
<!-- Generator: Adobe Illustrator 18.1.1, SVG Export Plug-In . SVG Version: 6.00 Build 0)  -->
<!DOCTYPE svg PUBLIC "-//W3C//DTD SVG 1.1//EN" "http://www.w3.org/Graphics/SVG/1.1/DTD/svg11.dtd">
<svg version="1.1" id="Layer_1" xmlns="http://www.w3.org/2000/svg" xmlns:xlink="http://www.w3.org/1999/xlink" x="0px" y="0px"
	 viewBox="0 0 100 100" enable-background="new 0 0 100 100" xml:space="preserve">
<g id="Circle_Center" display="none">
	<g display="inline" opacity="0.5">
		<rect fill="none" stroke="#E30613" stroke-width="0.25" stroke-miterlimit="10" width="100" height="100"/>
		<line fill="none" stroke="#E30613" stroke-width="0.25" stroke-miterlimit="10" x1="0" y1="50" x2="100" y2="50"/>
		<line fill="none" stroke="#E30613" stroke-width="0.25" stroke-miterlimit="10" x1="50" y1="0" x2="50" y2="100"/>
		<circle fill="none" stroke="#E30613" stroke-width="0.25" stroke-miterlimit="10" cx="50" cy="50" r="46.9"/>
	</g>
</g>
<g id="Layer_3" display="none">
</g>
<g id="Layer_4" display="none">
	
		<rect x="3.1" y="3.1" display="inline" fill="none" stroke="#FFED00" stroke-width="0.375" stroke-miterlimit="10" width="93.8" height="93.8"/>
</g>
<g>
	<path fill="#353535" d="M96.7,86.6V67.3c0-0.5,0-0.9-0.3-1.2L90,55.8c-0.3-0.6-1.2-1.1-2-1.1H74.4c-0.3,0-0.6,0.1-0.9,0.2v-5.5
		c0-1.4-1.1-2.5-2.5-2.5H16.6c-1.4,0-2.5,1.1-2.5,2.5v4.5c0,0.5,0.3,0.8,0.8,0.8s0.8-0.3,0.8-0.8v-4.5c0-0.5,0.5-0.9,0.9-0.9h54.4
		c0.5,0,0.9,0.5,0.9,0.9v7.8v22.2c-2.8,1.6-4.7,4.7-4.7,8.1H43.8c0-5.2-4.2-9.4-9.4-9.4S25,82.3,25,87.5h-8.4
		c-0.5,0-0.9-0.5-0.9-0.9v-7.7c0-0.5-0.3-0.8-0.8-0.8s-0.8,0.3-0.8,0.8v7.7c0,1.4,1.1,2.5,2.7,2.5h8.4c0.8,4.4,4.6,7.8,9.2,7.8
		s8.5-3.4,9.2-7.8h23.7c0.8,4.4,4.6,7.8,9.2,7.8s8.5-3.4,9.2-7.8h8.6C95.8,89.1,96.9,88,96.7,86.6z M34.4,95.3
		c-4.4,0-7.8-3.4-7.8-7.8s3.4-7.8,7.8-7.8s7.8,3.4,7.8,7.8S38.8,95.3,34.4,95.3z M76.6,95.3c-4.4,0-7.8-3.4-7.8-7.8s3.4-7.8,7.8-7.8
		s7.8,3.4,7.8,7.8S80.9,95.3,76.6,95.3z M95.3,86.6c0,0.6-0.5,0.9-0.9,0.9h-8.4c0-5.2-4.2-9.4-9.4-9.4c-1.1,0-2.1,0.2-3.1,0.6V57.2
		c0-0.6,0.5-0.9,0.9-0.9H88c0.3,0,0.6,0.2,0.8,0.5L95.2,67c0.2,0.2,0.2,0.3,0.2,0.5V86.6z"/>
	<path fill="#353535" d="M88.8,67.5l-3-6.1c0-0.3-0.3-0.5-0.6-0.5h-6.2c-0.5,0-0.8,0.3-0.8,0.8V68c0,0.5,0.3,0.8,0.8,0.8h9.4
		c0.5,0,0.8-0.3,0.6-0.8C88.9,67.8,88.9,67.7,88.8,67.5z M79.7,67.2v-4.7h5l2.3,4.7H79.7z"/>
	<circle fill="#353535" cx="34.4" cy="87.5" r="3.1"/>
	<circle fill="#353535" cx="76.6" cy="87.5" r="3.1"/>
	<path fill="#353535" d="M42.2,58.6c0-0.5-0.3-0.8-0.8-0.8H3.9c-0.5,0-0.8,0.3-0.8,0.8s0.3,0.8,0.8,0.8h37.5
		C41.7,59.4,42.2,59.1,42.2,58.6z"/>
	<path fill="#353535" d="M11.6,65.6c-0.5,0-0.8,0.3-0.8,0.8s0.3,0.8,0.8,0.8h29.8c0.3,0,0.8-0.3,0.8-0.8s-0.3-0.8-0.8-0.8H11.6z"/>
	<path fill="#353535" d="M36.6,74.2c0-0.5-0.3-0.8-0.8-0.8H6.1c-0.5,0-0.6,0.3-0.6,0.8S5.8,75,6.2,75h29.7
		C36.2,75,36.6,74.7,36.6,74.2z"/>
</g>
<g id="Text" display="none">
</g>
<g id="Pixel_grid" display="none">
</g>
<g id="Layer_5" display="none">
</g>
<g id="Layer_8" display="none">
</g>
</svg>
