<?xml version="1.0" encoding="utf-8"?>
<!-- Generator: Adobe Illustrator 18.1.1, SVG Export Plug-In . SVG Version: 6.00 Build 0)  -->
<!DOCTYPE svg PUBLIC "-//W3C//DTD SVG 1.1//EN" "http://www.w3.org/Graphics/SVG/1.1/DTD/svg11.dtd">
<svg version="1.1" xmlns="http://www.w3.org/2000/svg" xmlns:xlink="http://www.w3.org/1999/xlink" x="0px" y="0px"
	 viewBox="0 0 64 64" enable-background="new 0 0 64 64" xml:space="preserve">
<g id="Circle_Center" display="none">
	<g display="inline" opacity="0.5">
		<rect fill="none" stroke="#E30613" stroke-width="0.25" stroke-miterlimit="10" width="64" height="64"/>
		<line fill="none" stroke="#E30613" stroke-width="0.25" stroke-miterlimit="10" x1="0" y1="32" x2="64" y2="32"/>
		<line fill="none" stroke="#E30613" stroke-width="0.25" stroke-miterlimit="10" x1="32" y1="0" x2="32" y2="64"/>
		<circle fill="none" stroke="#E30613" stroke-width="0.25" stroke-miterlimit="10" cx="32" cy="32" r="30"/>
	</g>
</g>
<g id="Layer_3" display="none">
</g>
<g id="Layer_4" display="none">
	
		<rect x="2" y="2" display="inline" fill="none" stroke="#FFED00" stroke-width="0.375" stroke-miterlimit="10" width="60" height="60"/>
</g>
<g id="Layer_1">
	<path fill="#353535" d="M32,62C15.5,62,2,48.5,2,32S15.5,2,32,2s30,13.5,30,30S48.5,62,32,62z M32,3C16,3,3,16,3,32s13,29,29,29
		s29-13,29-29S48,3,32,3z"/>
	<path fill="#353535" d="M23.7,47.6c-0.1,0-0.3,0-0.4-0.1L8.5,32.6c-0.2-0.2-0.2-0.5,0-0.7s0.5-0.2,0.7,0l14.5,14.5l27.8-27.8
		c0.2-0.2,0.5-0.2,0.7,0s0.2,0.5,0,0.7L24,47.4C24,47.5,23.8,47.6,23.7,47.6z"/>
</g>
<g id="Text" display="none">
</g>
<g id="Pixel_grid" display="none">
</g>
<g id="Layer_5" display="none">
</g>
<g id="Layer_8" display="none">
</g>
</svg>
