<?xml version="1.0" encoding="utf-8"?>
<!-- Generator: Adobe Illustrator 18.1.1, SVG Export Plug-In . SVG Version: 6.00 Build 0)  -->
<!DOCTYPE svg PUBLIC "-//W3C//DTD SVG 1.1//EN" "http://www.w3.org/Graphics/SVG/1.1/DTD/svg11.dtd">
<svg version="1.1" id="Layer_1" xmlns="http://www.w3.org/2000/svg" xmlns:xlink="http://www.w3.org/1999/xlink" x="0px" y="0px"
	 viewBox="0 0 100 100" enable-background="new 0 0 100 100" xml:space="preserve">
<g id="Circle_Center" display="none">
	<g display="inline" opacity="0.5">
		<rect fill="none" stroke="#E30613" stroke-width="0.25" stroke-miterlimit="10" width="100" height="100"/>
		<line fill="none" stroke="#E30613" stroke-width="0.25" stroke-miterlimit="10" x1="0" y1="50" x2="100" y2="50"/>
		<line fill="none" stroke="#E30613" stroke-width="0.25" stroke-miterlimit="10" x1="50" y1="0" x2="50" y2="100"/>
		<circle fill="none" stroke="#E30613" stroke-width="0.25" stroke-miterlimit="10" cx="50" cy="50" r="46.9"/>
	</g>
</g>
<g id="Layer_3" display="none">
</g>
<g id="Layer_4" display="none">
	
		<rect x="3.1" y="3.1" display="inline" fill="none" stroke="#FFED00" stroke-width="0.375" stroke-miterlimit="10" width="93.8" height="93.8"/>
</g>
<g>
	<circle fill="#353535" cx="32" cy="88.3" r="2.3"/>
	<circle fill="#353535" cx="72.7" cy="88.3" r="2.3"/>
	<path fill="#353535" d="M96.1,26.1c-0.5-0.6-1.2-0.9-2-0.9H23l-2.7-10.6c-0.2-1.2-1.2-2-2.5-2H6.2c-1.7,0-3.1,1.4-3.1,3.1
		s1.4,3.1,3.1,3.1h7.8c0.6,0,1.1,0.3,1.1,0.8l2,8.7c0,0,0,0.1,0,0.1l1.7,7.1l0.2,0.9l0,0L24,57.1l0,0l5.3,23
		c-3.4,1.2-5.9,4.4-5.9,8.1c0,4.7,3.9,8.6,8.6,8.6c4.4,0,8.1-3.5,8.6-7.8h23.5c0.4,4.3,4.1,7.8,8.6,7.8c4.7,0,8.6-3.9,8.6-8.6
		s-3.9-8.6-8.6-8.6c-4.4,0-8.1,3.5-8.6,7.8H40.6c-0.4-4.3-4.1-7.8-8.6-7.8c-0.4,0-0.8,0-1.2,0.1l-1.5-6.4c0.2,0,0.3,0,0.5,0h54.4
		c1.2,0,2.3-0.8,2.3-2l10-43.1C96.7,27.5,96.6,26.7,96.1,26.1z M72.7,81.2c3.9,0,7,3.1,7,7s-3.1,7-7,7s-7-3.1-7-7
		S68.8,81.2,72.7,81.2z M39.1,88.3c0,3.9-3.1,7-7,7s-7-3.1-7-7s3.1-7,7-7S39.1,84.4,39.1,88.3z M66.7,56.2H45.8l-1-14.1h22.9
		L66.7,56.2z M69.2,42.2H92l-3.3,14.1H68.3L69.2,42.2z M66.6,57.8l-1,14.1H46.9l-1-14.1H66.6z M25.3,56.2L22,42.2h21.2l1,14.1H25.3z
		 M44.7,40.6l-1-14.1h25.1l-1,14.1H44.7z M14.1,17.2H6.2c-0.9,0-1.6-0.6-1.6-1.6s0.8-1.6,1.6-1.6h11.6c0.6,0,0.9,0.3,0.9,0.8
		l2.6,10.3h-1.7c-0.5,0-1,0.2-1.5,0.4l-1.5-6.4C16.4,18,15.3,17.2,14.1,17.2z M18.8,27.9c0-0.4,0-0.7,0.3-0.9
		c0.2-0.3,0.5-0.5,0.8-0.5h22.2l1,14.1H21.7l-1.1-4.7l0,0L18.8,27.9z M28.9,71.4l-3.2-13.6h18.6l1,14.1H29.8
		C29.4,71.9,29.1,71.7,28.9,71.4z M85.3,71.1c-0.2,0.5-0.6,0.8-1.1,0.8h-17l1-14.1h20.2L85.3,71.1z M92.4,40.6h-23l1-14.1h24.1
		c0.3,0,0.6,0.2,0.8,0.5s0.2,0.6,0.2,0.9L92.4,40.6z"/>
</g>
<g id="Text" display="none">
</g>
<g id="Pixel_grid" display="none">
</g>
<g id="Layer_5" display="none">
</g>
<g id="Layer_8" display="none">
</g>
</svg>
