<?xml version="1.0" encoding="utf-8"?>
<!-- Generator: Adobe Illustrator 18.1.1, SVG Export Plug-In . SVG Version: 6.00 Build 0)  -->
<!DOCTYPE svg PUBLIC "-//W3C//DTD SVG 1.1//EN" "http://www.w3.org/Graphics/SVG/1.1/DTD/svg11.dtd">
<svg version="1.1" id="Layer_1" xmlns="http://www.w3.org/2000/svg" xmlns:xlink="http://www.w3.org/1999/xlink" x="0px" y="0px"
	 viewBox="0 0 100 100" enable-background="new 0 0 100 100" xml:space="preserve">
<g id="Circle_Center" display="none">
	<g display="inline" opacity="0.5">
		<rect fill="none" stroke="#E30613" stroke-width="0.125" stroke-miterlimit="10" width="100" height="100"/>
		<line fill="none" stroke="#E30613" stroke-width="0.125" stroke-miterlimit="10" x1="0" y1="50" x2="100" y2="50"/>
		<line fill="none" stroke="#E30613" stroke-width="0.125" stroke-miterlimit="10" x1="50" y1="0" x2="50" y2="100"/>
		<circle fill="none" stroke="#E30613" stroke-width="0.125" stroke-miterlimit="10" cx="50" cy="50" r="46.9"/>
	</g>
</g>
<g id="Layer_3" display="none">
</g>
<g id="Layer_4" display="none">
	
		<rect x="3.1" y="3.1" display="inline" fill="none" stroke="#FFED00" stroke-width="0.1875" stroke-miterlimit="10" width="93.8" height="93.8"/>
</g>
<path fill="#353535" d="M95.6,29.4c-0.9-0.9-1.9-1.2-2.8-1.2H22.5c-0.3,0-0.7,0-1,0.1l-2.4-11.4c-0.3-0.6-0.9-1.2-1.6-1.2H4.7
	c-0.9,0-1.6,0.6-1.6,1.6s0.6,1.6,1.6,1.6h11.6l2.8,11.9c0.1,0.1,0.1,0.2,0.2,0.4c-0.1,0.4,0,0.8,0.1,1.2l7.7,36.7
	c0,0.2,0,0.3,0.1,0.5l2.7,12.6c-2.7,1.2-4.6,3.9-4.6,7.1c0,4.4,3.4,7.8,7.8,7.8c3.8,0,7-2.6,7.7-6.2h25c0.7,3.6,3.8,6.2,7.7,6.2
	c4.4,0,7.8-3.4,7.8-7.8s-3.4-7.8-7.8-7.8c-3.8,0-7,2.6-7.7,6.2h-25c-0.7-3.6-3.8-6.2-7.7-6.2c0,0-0.1,0-0.1,0L31.7,75h52.7
	c1.6,0,3.1-1.2,3.4-2.8l8.4-40C96.6,31.2,96.2,30.3,95.6,29.4z M73.4,84.4c2.5,0,4.7,2.2,4.7,4.7s-2.2,4.7-4.7,4.7s-4.7-2.2-4.7-4.7
	S70.9,84.4,73.4,84.4z M37.8,89.1c0,2.5-2.2,4.7-4.7,4.7s-4.7-2.2-4.7-4.7s2.2-4.7,4.7-4.7S37.8,86.6,37.8,89.1z M68.6,31.2
	l-2.9,40.6H49.9L47,31.2H68.6z M30.3,68.8c-0.1-0.3-0.3-0.6-0.4-0.8l-7.7-36.4l0.3-0.3h21.4l2.9,40.6H31L30.3,68.8z M92.8,31.6
	l-8.4,40c0,0.3-0.3,0.3-0.3,0.3H68.9l2.9-40.6h21.4L92.8,31.6z"/>
<g id="Text" display="none">
</g>
<g id="Pixel_grid" display="none">
</g>
<g id="Layer_5" display="none">
</g>
<g id="Layer_8" display="none">
</g>
</svg>
