<svg height="491pt" viewBox="-33 0 491 491.99208" width="491pt" xmlns="http://www.w3.org/2000/svg"><path d="m3.898438 453.601562c2.078124.996094 4.542968.71875 6.34375-.722656l33.65625-26.917968 33.652343 26.917968c2.191407 1.753906 5.308594 1.753906 7.5 0l33.648438-26.917968 33.648437 26.917968c2.191406 1.753906 5.308594 1.753906 7.5 0l36.761719-29.410156c25.125 52.929688 84.804687 79.96875 141.164063 63.953125 56.359374-16.015625 92.90625-70.398437 86.4375-128.628906-6.464844-58.234375-54.050782-103.277344-112.550782-106.535157v-86.300781h78.710938c3.316406 0 6-2.6875 6-6v-111.601562c-.027344-25.792969-20.273438-47.03125-46.035156-48.3007815v-.0546875h-295.214844c-30.152344.0351562-54.589844 24.472656-54.625 54.625v393.566406c0 2.308594 1.320312 4.410156 3.402344 5.410156zm409.039062-81.570312c0 59.632812-48.339844 107.96875-107.96875 107.972656-59.628906 0-107.96875-48.339844-107.96875-107.96875s48.339844-107.96875 107.96875-107.96875c59.601562.066406 107.898438 48.367188 107.96875 107.964844zm-28.566406-323.675781v105.601562h-72.710938v-105.601562c.105469-20.003907 16.351563-36.164063 36.355469-36.164063 20.007813 0 36.253906 16.160156 36.355469 36.164063zm-371.875 6.269531c.027344-23.53125 19.09375-42.597656 42.625-42.625h261.066406c-10.503906 9.164062-16.527344 22.417969-16.527344 36.355469v203.835937c-37.925781 1.675782-72.820312 21.203125-94.082031 52.65625-21.261719 31.449219-26.378906 71.105469-13.800781 106.925782l-2.160156 1.914062-33.527344 26.820312-33.644532-26.917968c-2.191406-1.753906-5.308593-1.753906-7.5 0l-33.648437 26.917968-33.652344-26.917968c-2.191406-1.753906-5.304687-1.753906-7.5 0l-27.648437 22.121094zm0 0"/><path d="m45.316406 203.464844h2.671875c3.316407 0 6-2.6875 6-6s-2.683593-6-6-6h-2.671875c-3.3125 0-6 2.6875-6 6s2.6875 6 6 6zm0 0"/><path d="m74.679688 203.464844h20.203124c3.316407 0 6-2.6875 6-6s-2.683593-6-6-6h-20.203124c-3.3125 0-6 2.6875-6 6s2.6875 6 6 6zm0 0"/><path d="m122.003906 203.464844h144.835938c3.3125 0 6-2.6875 6-6s-2.6875-6-6-6h-144.835938c-3.316406 0-6 2.6875-6 6s2.683594 6 6 6zm0 0"/><path d="m45.316406 146.480469h2.671875c3.316407 0 6-2.6875 6-6s-2.683593-6-6-6h-2.671875c-3.3125 0-6 2.6875-6 6s2.6875 6 6 6zm0 0"/><path d="m74.679688 146.480469h20.203124c3.316407 0 6-2.6875 6-6s-2.683593-6-6-6h-20.203124c-3.3125 0-6 2.6875-6 6s2.6875 6 6 6zm0 0"/><path d="m122.003906 146.480469h144.835938c3.3125 0 6-2.6875 6-6s-2.6875-6-6-6h-144.835938c-3.316406 0-6 2.6875-6 6s2.683594 6 6 6zm0 0"/><path d="m45.316406 89.5h2.671875c3.316407 0 6-2.6875 6-6s-2.683593-6-6-6h-2.671875c-3.3125 0-6 2.6875-6 6s2.6875 6 6 6zm0 0"/><path d="m74.679688 89.5h20.203124c3.316407 0 6-2.6875 6-6s-2.683593-6-6-6h-20.203124c-3.3125 0-6 2.6875-6 6s2.6875 6 6 6zm0 0"/><path d="m122.003906 89.5h144.835938c3.3125 0 6-2.6875 6-6s-2.6875-6-6-6h-144.835938c-3.316406 0-6 2.6875-6 6s2.683594 6 6 6zm0 0"/><path d="m45.316406 260.449219h2.671875c3.316407 0 6-2.6875 6-6 0-3.316407-2.683593-6-6-6h-2.671875c-3.3125 0-6 2.683593-6 6 0 3.3125 2.6875 6 6 6zm0 0"/><path d="m74.679688 260.449219h20.203124c3.316407 0 6-2.6875 6-6 0-3.316407-2.683593-6-6-6h-20.203124c-3.3125 0-6 2.683593-6 6 0 3.3125 2.6875 6 6 6zm0 0"/><path d="m122.003906 260.449219h87.851563c3.3125 0 6-2.6875 6-6 0-3.316407-2.6875-6-6-6h-87.851563c-3.316406 0-6 2.683593-6 6 0 3.3125 2.683594 6 6 6zm0 0"/><path d="m62.429688 378.507812c-.039063 0-.078126-.007812-.121094-.007812-.039063 0-.078125 0-.121094.007812-6.019531-.070312-10.863281-4.964843-10.871094-10.984374 0-3.316407-2.6875-6-6-6s-6 2.683593-6 6c.011719 10.378906 6.972656 19.46875 16.992188 22.191406v4.90625c0 3.316406 2.683594 6 6 6 3.3125 0 6-2.683594 6-6v-4.90625c11.125-3.007813 18.304687-13.792969 16.789062-25.21875-1.519531-11.429688-11.261718-19.964844-22.789062-19.964844-6.070313 0-10.992188-4.921875-10.992188-10.992188 0-6.070312 4.917969-10.992187 10.988282-10.988281 6.070312 0 10.992187 4.917969 10.992187 10.988281 0 3.316407 2.6875 6 6 6s6-2.683593 6-6c-.015625-10.378906-6.972656-19.46875-16.988281-22.191406v-4.132812c0-3.316406-2.6875-6-6-6-3.316406 0-6 2.683594-6 6v4.132812c-11.128906 3.007813-18.3125 13.792969-16.792969 25.21875 1.515625 11.429688 11.261719 19.964844 22.792969 19.964844 6.066406-.035156 11.011718 4.859375 11.046875 10.925781.035156 6.070313-4.859375 11.015625-10.925781 11.050781zm0 0"/><path d="m116.96875 375.226562h50.71875c3.3125 0 6-2.6875 6-6s-2.6875-6-6-6h-50.71875c-3.3125 0-6 2.6875-6 6s2.6875 6 6 6zm0 0"/><path d="m254.53125 360.746094c-1.390625-1.644532-3.550781-2.417969-5.664062-2.027344-2.117188.386719-3.863282 1.878906-4.578126 3.90625-.714843 2.027344-.289062 4.285156 1.117188 5.914062l33.042969 38.699219c2.117187 2.476563 5.820312 2.8125 8.347656.757813l76.957031-62.609375c2.542969-2.097657 2.917969-5.855469.835938-8.414063-2.078125-2.558594-5.835938-2.957031-8.40625-.894531l-72.414063 58.910156zm0 0"/></svg>