<svg height="512pt" viewBox="0 0 512 512" width="512pt" xmlns="http://www.w3.org/2000/svg"><path d="m70.125 117.878906h14.027344c4.148437 0 7.511718-3.367187 7.511718-7.515625 0-4.148437-3.363281-7.515625-7.511718-7.515625h-14.027344c-4.152344 0-7.515625 3.367188-7.515625 7.515625 0 4.148438 3.363281 7.515625 7.515625 7.515625zm0 0"/><path d="m212.894531 117.878906c4.152344 0 7.515625-3.367187 7.515625-7.515625 0-4.148437-3.363281-7.515625-7.515625-7.515625h-94.179687c-4.148438 0-7.511719 3.367188-7.511719 7.515625 0 4.148438 3.363281 7.515625 7.511719 7.515625zm0 0"/><path d="m70.125 148.527344h169.769531c4.152344 0 7.515625-3.363282 7.515625-7.515625 0-4.148438-3.363281-7.511719-7.515625-7.511719h-169.769531c-4.152344 0-7.515625 3.363281-7.515625 7.511719 0 4.148437 3.363281 7.515625 7.515625 7.515625zm0 0"/><path d="m70.125 221.191406h14.027344c4.148437 0 7.511718-3.363281 7.511718-7.515625 0-4.148437-3.363281-7.511719-7.511718-7.511719h-14.027344c-4.152344 0-7.515625 3.363282-7.515625 7.511719 0 4.148438 3.363281 7.515625 7.515625 7.515625zm0 0"/><path d="m164.304688 282.488281c4.148437 0 7.511718-3.363281 7.511718-7.511719 0-4.152343-3.363281-7.515624-7.511718-7.515624h-94.183594c-4.148438 0-7.511719 3.363281-7.511719 7.515624 0 4.148438 3.363281 7.511719 7.511719 7.511719zm0 0"/><path d="m477.898438 170.402344h-98.746094v-136.574219c0-18.652344-15.175782-33.828125-33.828125-33.828125h-264.054688c-.300781 0-.597656.0234375-.894531.0585938-1.238281.1484372-3.074219.9726562-3.949219 1.7109372-.269531.226563-.535156.453125-.804687.675781-7.296875 6.160157-14.597656 12.316407-21.894532 18.472657-10.949218 9.234375-21.898437 18.46875-32.847656 27.703125-4.164062 3.511718-8.328125 7.023437-12.492187 10.539062-3.464844 2.921875-8.085938 5.84375-8.3125002 10.824219-.1679688 3.785156 0 7.617187 0 11.410156v24.847657 34.347656 39.894531 41.5 39.164063 32.875 22.648437 8.46875c0 4.148437 3.3671872 7.515625 7.5156252 7.515625 4.148437 0 7.515625-3.367188 7.515625-7.515625v-247.964844h61.15625c6.902343 0 12.523437-5.621093 12.523437-12.527343v-49.621094h256.539063c10.367187 0 18.800781 8.4375 18.800781 18.800781v136.574219h-129.710938c-18.636718 0-33.796874 15.164062-33.796874 33.800781v1.960937h-81.902344c-4.148438 0-7.511719 3.363282-7.511719 7.511719 0 4.152344 3.363281 7.515625 7.511719 7.515625h81.902344v15.621094h-130.492188c-4.152344 0-7.515625 3.363281-7.515625 7.511719 0 4.152343 3.363281 7.515625 7.515625 7.515625h130.492188v15.621094h-1.746094c-4.152344 0-7.515625 3.363281-7.515625 7.515624 0 4.148438 3.363281 7.511719 7.515625 7.511719h1.746094v195.710938c0 6.941406 2.105468 13.398437 5.707031 18.773437h-172.417969c-10.367188 0-18.800781-8.4375-18.800781-18.800781v-117.972656c0-4.148438-3.363281-7.515625-7.515625-7.515625-4.148438 0-7.511719 3.367187-7.511719 7.515625v117.972656c-.0039062 18.652344 15.171875 33.828125 33.828125 33.828125h443.992188c18.636718 0 33.796874-15.160156 33.796874-33.800781v-274c0-18.632813-15.160156-33.796875-33.796874-33.796875zm-449.746094-108.257813 45.601562-38.460937v38.460937zm468.515625 416.054688c0 10.351562-8.421875 18.773437-18.769531 18.773437h-243.484376c-10.347656 0-18.769531-8.421875-18.769531-18.773437v-274c0-10.347657 8.421875-18.769531 18.769531-18.769531h243.484376c10.347656 0 18.769531 8.421874 18.769531 18.769531zm0 0"/><path d="m449.367188 215.164062-120.714844.003907c-4.148438 0-7.515625 3.363281-7.515625 7.511719 0 4.152343 3.367187 7.515624 7.515625 7.515624l120.714844-.003906c1.945312 0 3.527343 1.585938 3.527343 3.53125v40.589844c0 1.945312-1.582031 3.527344-3.527343 3.527344h-186.421876c-1.945312 0-3.527343-1.582032-3.527343-3.527344v-40.589844c0-1.945312 1.582031-3.53125 3.527343-3.53125h31.015626c4.148437 0 7.515624-3.363281 7.515624-7.511718 0-4.152344-3.367187-7.515626-7.515624-7.515626h-31.015626c-10.230468 0-18.554687 8.324219-18.554687 18.558594v40.589844c0 10.230469 8.324219 18.554688 18.554687 18.554688h186.421876c10.234374 0 18.558593-8.320313 18.558593-18.554688v-40.589844c0-10.234375-8.324219-18.558594-18.558593-18.558594zm0 0"/><path d="m291.179688 311.578125h-28.234376c-10.230468 0-18.554687 8.324219-18.554687 18.558594v28.234375c0 10.230468 8.324219 18.554687 18.554687 18.554687h28.234376c10.230468 0 18.558593-8.324219 18.558593-18.554687v-28.234375c0-10.234375-8.328125-18.558594-18.558593-18.558594zm3.53125 46.792969c0 1.945312-1.585938 3.527344-3.53125 3.527344h-28.234376c-1.945312 0-3.527343-1.582032-3.527343-3.527344v-28.234375c0-1.945313 1.582031-3.53125 3.527343-3.53125h28.234376c1.945312 0 3.53125 1.585937 3.53125 3.53125zm0 0"/><path d="m370.273438 311.578125h-28.234376c-10.230468 0-18.558593 8.324219-18.558593 18.558594v28.234375c0 10.230468 8.324219 18.554687 18.558593 18.554687h28.234376c10.234374 0 18.558593-8.324219 18.558593-18.554687v-28.234375c0-10.234375-8.324219-18.558594-18.558593-18.558594zm3.527343 46.792969c0 1.945312-1.582031 3.527344-3.527343 3.527344h-28.234376c-1.945312 0-3.527343-1.582032-3.527343-3.527344v-28.234375c0-1.945313 1.582031-3.53125 3.527343-3.53125h28.234376c1.945312 0 3.527343 1.585937 3.527343 3.53125zm0 0"/><path d="m449.367188 311.578125h-28.234376c-10.230468 0-18.558593 8.324219-18.558593 18.558594v118.542969c0 10.230468 8.324219 18.558593 18.558593 18.558593h28.234376c10.234374 0 18.558593-8.328125 18.558593-18.558593v-118.542969c0-10.234375-8.324219-18.558594-18.558593-18.558594zm3.527343 137.101563c0 1.945312-1.582031 3.53125-3.527343 3.53125h-28.234376c-1.945312 0-3.527343-1.585938-3.527343-3.53125v-118.542969c0-1.945313 1.582031-3.53125 3.527343-3.53125h28.234376c1.945312 0 3.527343 1.585937 3.527343 3.53125zm0 0"/><path d="m291.179688 401.886719h-28.234376c-10.230468 0-18.554687 8.328125-18.554687 18.558593v28.234376c0 10.230468 8.324219 18.554687 18.554687 18.554687h28.234376c10.230468 0 18.558593-8.324219 18.558593-18.554687v-28.234376c0-10.230468-8.328125-18.558593-18.558593-18.558593zm3.53125 46.792969c0 1.945312-1.585938 3.53125-3.53125 3.53125h-28.234376c-1.945312 0-3.527343-1.585938-3.527343-3.53125v-28.234376c0-1.945312 1.582031-3.527343 3.527343-3.527343h28.234376c1.945312 0 3.53125 1.582031 3.53125 3.527343zm0 0"/><path d="m370.273438 401.886719h-28.234376c-10.230468 0-18.558593 8.328125-18.558593 18.558593v28.234376c0 10.230468 8.324219 18.554687 18.558593 18.554687h28.234376c10.234374 0 18.558593-8.324219 18.558593-18.554687v-28.234376c0-10.230468-8.324219-18.558593-18.558593-18.558593zm3.527343 46.792969c0 1.945312-1.582031 3.53125-3.527343 3.53125h-28.234376c-1.945312 0-3.527343-1.585938-3.527343-3.53125v-28.234376c0-1.945312 1.582031-3.527343 3.527343-3.527343h28.234376c1.945312 0 3.527343 1.582031 3.527343 3.527343zm0 0"/></svg>