<svg height="461pt" viewBox="0 -4 461.88905 461" width="461pt" xmlns="http://www.w3.org/2000/svg"><path d="m427.902344 145.507812-111.070313-110.992187c-26.617187 15.570313-50.09375 35.972656-69.226562 60.152344l-102.328125 129.449219c-2.519532 3.1875-2.25 7.753906.625 10.625l81.6875 81.703124c2.871094 2.875 7.445312 3.140626 10.632812.613282l129.449219-102.324219c24.207031-19.128906 44.632813-42.605469 60.230469-69.226563zm-199.199219 99.457032-5.65625 5.65625c-3.121094 3.128906-8.1875 3.132812-11.316406.011718-3.128907-3.121093-3.132813-8.1875-.011719-11.316406l5.65625-5.65625c3.136719-3.03125 8.128906-2.988281 11.214844.097656 3.085937 3.085938 3.128906 8.074219.097656 11.214844zm45.253906-45.25-22.628906 22.625c-3.140625 3.03125-8.128906 2.988281-11.214844-.097656-3.085937-3.085938-3.128906-8.074219-.097656-11.214844l22.628906-22.621094c3.140625-3.035156 8.128907-2.988281 11.214844.097656 3.085937 3.082032 3.128906 8.074219.097656 11.210938zm75.875-30.628906c-13.496093 13.492187-34.644531 15.570312-50.511719 4.964843-15.863281-10.605469-22.027343-30.941406-14.722656-48.570312 7.304688-17.628907 26.046875-27.640625 44.765625-23.914063 18.714844 3.726563 32.191407 20.15625 32.1875 39.238282.023438 10.617187-4.203125 20.800781-11.738281 28.28125zm0 0"/><path d="m321.535156 116.804688c-9.707031 0-18.457031 5.847656-22.167968 14.816406-3.714844 8.964844-1.664063 19.289062 5.199218 26.152344 9.496094 9.0625 24.4375 9.0625 33.9375 0 6.859375-6.863282 8.914063-17.1875 5.199219-26.152344-3.714844-8.96875-12.464844-14.816406-22.167969-14.816406zm0 0"/><path d="m461.167969 1.277344-.105469-.105469c-6.34375-.488281-12.695312-.726563-19.007812-.726563-38.375 0-76.226563 8.925782-110.558594 26.070313l104.328125 104.289063c20.003906-40.089844 28.761719-84.855469 25.34375-129.527344zm0 0"/><path d="m261.871094 318.757812 53.765625 53.710938c24.191406-28.882812 27.183593-70.003906 7.433593-102.089844zm0 0"/><path d="m146.140625 126.277344c-20.574219-.027344-40.5 7.207031-56.269531 20.421875l53.710937 53.777343 48.382813-61.207031c-13.765625-8.515625-29.636719-13.015625-45.824219-12.992187zm0 0"/><path d="m153.765625 333.132812c9.382813 9.359376 24.570313 9.359376 33.953125 0l16.96875-16.96875-58.511719-58.503906-16.976562 16.960938c-9.355469 9.382812-9.355469 24.566406 0 33.953125zm0 0"/><path d="m106.503906 412.40625c10.179688-10.089844 14.183594-24.855469 10.496094-38.703125-3.6875-13.851563-14.503906-24.667969-28.351562-28.359375-13.847657-3.691406-28.613282.308594-38.707032 10.484375-10.96875 10.96875-24 55.632813-31.480468 88.039063 32.417968-7.4375 77.082031-20.503907 88.042968-31.460938zm0 0"/><path d="m180.285156 426.058594c-3.234375 0-6.148437-1.949219-7.386718-4.9375-1.238282-2.988282-.554688-6.429688 1.730468-8.714844l33.9375-33.945312c3.140625-3.03125 8.128906-2.988282 11.214844.097656 3.085938 3.085937 3.128906 8.074218.097656 11.214844l-33.9375 33.941406c-1.5 1.503906-3.535156 2.34375-5.65625 2.34375zm0 0"/><path d="m244.285156 434.058594c-3.234375 0-6.148437-1.949219-7.386718-4.9375-1.238282-2.988282-.554688-6.429688 1.730468-8.714844l33.9375-33.945312c3.140625-3.03125 8.128906-2.988282 11.214844.097656 3.085938 3.085937 3.128906 8.074218.097656 11.214844l-33.9375 33.941406c-1.5 1.503906-3.535156 2.34375-5.65625 2.34375zm0 0"/><path d="m152 454.339844c-3.238281 0-6.152344-1.949219-7.390625-4.9375-1.238281-2.988282-.554687-6.429688 1.734375-8.71875l5.65625-5.65625c2.007812-2.078125 4.980469-2.914063 7.777344-2.179688 2.796875.730469 4.980468 2.914063 5.714844 5.710938.730468 2.800781-.101563 5.773437-2.183594 7.78125l-5.65625 5.65625c-1.496094 1.5-3.53125 2.34375-5.652344 2.34375zm0 0"/><path d="m36.285156 290.058594c-3.234375 0-6.148437-1.949219-7.386718-4.9375-1.238282-2.988282-.554688-6.429688 1.730468-8.714844l33.9375-33.945312c3.140625-3.03125 8.128906-2.988282 11.214844.097656 3.085938 3.085937 3.128906 8.074218.097656 11.214844l-33.9375 33.941406c-1.5 1.503906-3.535156 2.34375-5.65625 2.34375zm0 0"/><path d="m36.285156 226.058594c-3.234375 0-6.148437-1.949219-7.386718-4.9375-1.238282-2.988282-.554688-6.429688 1.730468-8.714844l33.9375-33.945312c3.140625-3.03125 8.128906-2.988282 11.214844.097656 3.085938 3.085937 3.128906 8.074218.097656 11.214844l-33.9375 33.941406c-1.5 1.503906-3.535156 2.34375-5.65625 2.34375zm0 0"/><path d="m8 318.339844c-3.238281 0-6.152344-1.949219-7.390625-4.9375-1.238281-2.988282-.5546875-6.429688 1.734375-8.71875l5.65625-5.65625c2.007812-2.078125 4.980469-2.914063 7.777344-2.179688 2.796875.730469 4.980468 2.914063 5.714844 5.710938.730468 2.800781-.101563 5.773437-2.183594 7.78125l-5.65625 5.65625c-1.496094 1.5-3.53125 2.34375-5.652344 2.34375zm0 0"/></svg>