<?xml version="1.0" encoding="utf-8"?>
<!-- Generator: Adobe Illustrator 18.1.1, SVG Export Plug-In . SVG Version: 6.00 Build 0)  -->
<!DOCTYPE svg PUBLIC "-//W3C//DTD SVG 1.1//EN" "http://www.w3.org/Graphics/SVG/1.1/DTD/svg11.dtd">
<svg version="1.1" xmlns="http://www.w3.org/2000/svg" xmlns:xlink="http://www.w3.org/1999/xlink" x="0px" y="0px"
	 viewBox="0 0 64 64" enable-background="new 0 0 64 64" xml:space="preserve">
<g id="Circle_Center" display="none">
	<g display="inline" opacity="0.5">
		<rect fill="none" stroke="#E30613" stroke-width="0.25" stroke-miterlimit="10" width="64" height="64"/>
		<line fill="none" stroke="#E30613" stroke-width="0.25" stroke-miterlimit="10" x1="0" y1="32" x2="64" y2="32"/>
		<line fill="none" stroke="#E30613" stroke-width="0.25" stroke-miterlimit="10" x1="32" y1="0" x2="32" y2="64"/>
		<circle fill="none" stroke="#E30613" stroke-width="0.25" stroke-miterlimit="10" cx="32" cy="32" r="30"/>
	</g>
</g>
<g id="Layer_3" display="none">
</g>
<g id="Layer_4" display="none">
	
		<rect x="2" y="2" display="inline" fill="none" stroke="#FFED00" stroke-width="0.375" stroke-miterlimit="10" width="60" height="60"/>
</g>
<g id="Layer_1">
	<path fill="#353535" d="M61.7,26.2c-0.3-0.4-0.8-0.7-1.3-0.7H45l-0.8-10.7c-0.1-1.7-1.6-3.1-3.3-3.1h-19c-1.7,0-3.2,1.4-3.3,3.1
		l-0.8,10.7H4c-0.7,0-1.3,0.3-1.6,0.8c-0.4,0.5-0.5,1-0.4,1.6l7.6,32.7c0.2,0.9,1,1.5,1.9,1.5h41.2c0.9,0,1.7-0.6,1.9-1.5L62,27.9
		C62.2,27.3,62,26.7,61.7,26.2z M19.5,14.9c0.1-1.2,1.1-2.2,2.3-2.2h19c1.2,0,2.2,0.9,2.3,2.2L44,25.6h-2.1l-0.6-9.2
		c-0.1-0.9-0.8-1.6-1.7-1.6H23.1c-0.9,0-1.6,0.7-1.7,1.6l-0.6,9.2h-2.1L19.5,14.9z M39.3,49.2H23.4l-0.8-10.8h17.4L39.3,49.2z
		 M41.1,38.4h17.5l-2.5,10.8H40.3L41.1,38.4z M39.3,50.2l-0.8,10.8H24.2l0.1,0l-0.8-10.8H39.3z M5.4,38.4h16.2l0.8,10.8H7.9
		L5.4,38.4z M22.6,37.4l-0.8-10.8h19.1l-0.8,10.8H22.6z M21.8,25.6l0.6-9.2c0-0.4,0.3-0.7,0.7-0.7h16.4c0.4,0,0.7,0.3,0.7,0.6
		l0.6,9.2H21.8z M3.1,26.9c0.2-0.2,0.5-0.4,0.8-0.4h16.9l0.8,10.8H5.2l-2.3-9.7C2.9,27.4,2.9,27.2,3.1,26.9z M10.5,60.4L8.2,50.2
		h14.4l0.8,10.8H11.4C11,61.1,10.6,60.8,10.5,60.4z M53.5,60.4c-0.1,0.4-0.5,0.7-0.9,0.7H39.5l0.8-10.8h15.6L53.5,60.4z M61.1,27.7
		l-2.3,9.7H41.2l0.8-10.8h18.4c0.2,0,0.4,0.1,0.6,0.3C61.1,27.1,61.1,27.4,61.1,27.7z"/>
</g>
<g id="Text" display="none">
</g>
<g id="Pixel_grid" display="none">
</g>
<g id="Layer_5" display="none">
</g>
<g id="Layer_8" display="none">
</g>
</svg>
