<?xml version="1.0" encoding="utf-8"?>
<!-- Generator: Adobe Illustrator 18.1.1, SVG Export Plug-In . SVG Version: 6.00 Build 0)  -->
<!DOCTYPE svg PUBLIC "-//W3C//DTD SVG 1.1//EN" "http://www.w3.org/Graphics/SVG/1.1/DTD/svg11.dtd">
<svg version="1.1" id="Layer_1" xmlns="http://www.w3.org/2000/svg" xmlns:xlink="http://www.w3.org/1999/xlink" x="0px" y="0px"
	 viewBox="0 0 100 100" enable-background="new 0 0 100 100" xml:space="preserve">
<g id="Circle_Center" display="none">
	
		<rect display="inline" fill="none" stroke="#E30613" stroke-width="6.250000e-02" stroke-miterlimit="10" width="100" height="100"/>
	
		<line display="inline" fill="none" stroke="#E30613" stroke-width="6.250000e-02" stroke-miterlimit="10" x1="0" y1="50" x2="100" y2="50"/>
	
		<line display="inline" fill="none" stroke="#E30613" stroke-width="6.250000e-02" stroke-miterlimit="10" x1="50" y1="0" x2="50" y2="100"/>
	
		<circle display="inline" fill="none" stroke="#E30613" stroke-width="6.666666e-02" stroke-miterlimit="10" cx="50" cy="50" r="50"/>
</g>
<g id="Layer_3" display="none">
</g>
<g id="Layer_4" display="none">
	<rect display="inline" fill="none" stroke="#FFED00" stroke-width="0.1" stroke-miterlimit="10" width="100" height="100"/>
</g>
<path fill="none" stroke="#353535" stroke-miterlimit="10" d="M98.1,36.2c-1.2-1.2-2.5-1.9-4.4-1.9H74.4l-5-22.5
	c-0.6-1.2-1.9-2.5-3.1-2.5H33.8c-1.2,0-2.5,1.2-3.1,2.5l-5,22.5H6.2c-1.9,0-3.1,0.6-4.4,1.9c-0.6,1.2-1.2,3.1-0.6,5l10,45
	c0.6,2.5,2.5,4.4,5.6,4.4h65.6c2.5,0,5-1.9,5.6-4.4l11.2-45.6C99.4,39.4,98.8,37.5,98.1,36.2z M36.2,15.6h27.5l4.4,18.8H31.9
	L36.2,15.6z M81.2,84.4H17.5l-10-43.8h85L81.2,84.4z"/>
<g id="Text" display="none">
</g>
<g id="Pixel_grid" display="none">
</g>
<g id="Layer_5" display="none">
</g>
<g id="Layer_8" display="none">
</g>
</svg>
