<?xml version="1.0" encoding="utf-8"?>
<!-- Generator: Adobe Illustrator 18.1.1, SVG Export Plug-In . SVG Version: 6.00 Build 0)  -->
<!DOCTYPE svg PUBLIC "-//W3C//DTD SVG 1.1//EN" "http://www.w3.org/Graphics/SVG/1.1/DTD/svg11.dtd">
<svg version="1.1" xmlns="http://www.w3.org/2000/svg" xmlns:xlink="http://www.w3.org/1999/xlink" x="0px" y="0px"
	 viewBox="0 0 32 32" enable-background="new 0 0 32 32" xml:space="preserve">
<g id="Circle_Center" display="none">
	<g display="inline" opacity="0.5">
		<rect y="0" fill="none" stroke="#E30613" stroke-width="0.125" stroke-miterlimit="10" width="32" height="32"/>
		<line fill="none" stroke="#E30613" stroke-width="0.125" stroke-miterlimit="10" x1="0" y1="16" x2="32" y2="16"/>
		<line fill="none" stroke="#E30613" stroke-width="0.125" stroke-miterlimit="10" x1="16" y1="0" x2="16" y2="32"/>
		<circle fill="none" stroke="#E30613" stroke-width="0.125" stroke-miterlimit="10" cx="16" cy="16" r="15"/>
	</g>
</g>
<g id="Layer_3" display="none">
</g>
<g id="Layer_4" display="none">
	
		<rect x="1" y="1" display="inline" fill="none" stroke="#FFED00" stroke-width="0.1875" stroke-miterlimit="10" width="30" height="30"/>
</g>
<g id="Layer_1">
	<path fill="#353535" d="M31.5,12.9c-0.2-0.3-0.6-0.5-1-0.5h-7.4l-1.2-6.6c0-0.2-0.2-0.4-0.5-0.4h-4.7h-1.5h-4.8
		c-0.2,0-0.5,0.2-0.5,0.4l-1.1,6.6H1.5c-0.4,0-0.8,0.2-1,0.5S0.2,13.6,0.3,14l3.5,16.5c0.1,0.6,0.7,1,1.3,1H27c0.6,0,1.1-0.4,1.3-1
		L31.7,14C31.8,13.6,31.7,13.2,31.5,12.9z M10.9,6.4h4.3h1.5H21l1.1,6H9.9L10.9,6.4z M20.5,13.4l-1.2,17h-6.6l-1.2-17H20.5z
		 M4.8,30.2L1.3,13.8c0-0.1,0-0.2,0.1-0.2c0,0,0.1-0.1,0.2-0.1h8.9l1.2,17H5C4.9,30.4,4.8,30.3,4.8,30.2z M27.2,30.2
		c0,0.1-0.1,0.2-0.3,0.2h-6.6l1.2-17h8.9c0.1,0,0.2,0.1,0.2,0.1c0,0,0.1,0.1,0.1,0.2L27.2,30.2z"/>
</g>
<g id="Text" display="none">
</g>
<g id="Pixel_grid" display="none">
</g>
<g id="Layer_5" display="none">
</g>
<g id="Layer_8" display="none">
</g>
</svg>
