<?xml version="1.0" encoding="utf-8"?>
<!-- Generator: Adobe Illustrator 18.1.1, SVG Export Plug-In . SVG Version: 6.00 Build 0)  -->
<!DOCTYPE svg PUBLIC "-//W3C//DTD SVG 1.1//EN" "http://www.w3.org/Graphics/SVG/1.1/DTD/svg11.dtd">
<svg version="1.1" xmlns="http://www.w3.org/2000/svg" xmlns:xlink="http://www.w3.org/1999/xlink" x="0px" y="0px"
	 viewBox="0 0 32 32" enable-background="new 0 0 32 32" xml:space="preserve">
<g id="Circle_Center" display="none">
	<g display="inline" opacity="0.5">
		<rect y="0" fill="none" stroke="#E30613" stroke-width="0.125" stroke-miterlimit="10" width="32" height="32"/>
		<line fill="none" stroke="#E30613" stroke-width="0.125" stroke-miterlimit="10" x1="0" y1="16" x2="32" y2="16"/>
		<line fill="none" stroke="#E30613" stroke-width="0.125" stroke-miterlimit="10" x1="16" y1="0" x2="16" y2="32"/>
		<circle fill="none" stroke="#E30613" stroke-width="0.125" stroke-miterlimit="10" cx="16" cy="16" r="15"/>
	</g>
</g>
<g id="Layer_3" display="none">
</g>
<g id="Layer_4" display="none">
	
		<rect x="1" y="1" display="inline" fill="none" stroke="#FFED00" stroke-width="0.1875" stroke-miterlimit="10" width="30" height="30"/>
</g>
<g id="Layer_1">
	<g>
		<g>
			<path fill="#353535" d="M16,31c-0.1,0-0.2,0-0.3-0.1C15.1,30.5,1,20.3,1,12.4C1,7.1,4.9,4,8.7,4c2.6,0,5.7,1.6,7.3,5.8
				C17.6,5.6,20.7,4,23.3,4c3.8,0,7.7,3.1,7.7,8.4c0,7.9-14.1,18.1-14.7,18.5C16.2,31,16.1,31,16,31z M8.7,5C5.4,5,2,7.8,2,12.4
				c0,6.8,12,16,14,17.5c2-1.5,14-10.7,14-17.5C30,7.8,26.6,5,23.3,5c-3.3,0-5.8,2.5-6.8,6.6c-0.1,0.4-0.9,0.4-1,0
				C14.5,7.5,11.9,5,8.7,5z"/>
		</g>
		<g>
			<path fill="#353535" d="M25.3,16.1c-0.1,0-0.2,0-0.3-0.1c-0.2-0.2-0.2-0.5,0-0.7c1-1.1,1.4-2.3,1.2-3.6c-0.2-1.1-0.8-2-1.7-2.5
				c-0.2-0.1-0.3-0.4-0.2-0.7c0.1-0.2,0.4-0.3,0.7-0.2c1.2,0.6,2,1.8,2.3,3.2c0.3,1.5-0.2,3.1-1.4,4.4C25.6,16,25.4,16.1,25.3,16.1z
				"/>
		</g>
	</g>
</g>
<g id="Text" display="none">
</g>
<g id="Pixel_grid" display="none">
</g>
<g id="Layer_5" display="none">
</g>
<g id="Layer_8" display="none">
</g>
</svg>
