<?xml version="1.0" encoding="utf-8"?>
<!-- Generator: Adobe Illustrator 18.1.1, SVG Export Plug-In . SVG Version: 6.00 Build 0)  -->
<!DOCTYPE svg PUBLIC "-//W3C//DTD SVG 1.1//EN" "http://www.w3.org/Graphics/SVG/1.1/DTD/svg11.dtd">
<svg version="1.1" id="Layer_1" xmlns="http://www.w3.org/2000/svg" xmlns:xlink="http://www.w3.org/1999/xlink" x="0px" y="0px"
	 viewBox="0 0 100 100" enable-background="new 0 0 100 100" xml:space="preserve">
<g id="Circle_Center" display="none">
	<g display="inline" opacity="0.5">
		<rect fill="none" stroke="#E30613" stroke-width="0.25" stroke-miterlimit="10" width="100" height="100"/>
		<line fill="none" stroke="#E30613" stroke-width="0.25" stroke-miterlimit="10" x1="0" y1="50" x2="100" y2="50"/>
		<line fill="none" stroke="#E30613" stroke-width="0.25" stroke-miterlimit="10" x1="50" y1="0" x2="50" y2="100"/>
		<circle fill="none" stroke="#E30613" stroke-width="0.25" stroke-miterlimit="10" cx="50" cy="50" r="46.9"/>
	</g>
</g>
<g id="Layer_3" display="none">
</g>
<g id="Layer_4" display="none">
	
		<rect x="3.1" y="3.1" display="inline" fill="none" stroke="#FFED00" stroke-width="0.375" stroke-miterlimit="10" width="93.8" height="93.8"/>
</g>
<g id="Layer_1_1_">
	<g>
		<g>
			<path fill="#353535" d="M50,96.9c-0.2,0-0.3,0-0.5-0.2c-0.2-0.2-11.7-8.6-23.1-20.2C10.9,61.1,3.1,48,3.1,37.3
				c0-16.6,12-26.4,23.6-26.4c10.8,0,19.4,7.7,23.3,20.5c3.9-12.8,12.5-20.5,23.3-20.5c11.6,0,23.6,9.8,23.6,26.4
				c0,10.6-7.8,23.7-23.3,39.4c-11.4,11.4-23,20-23.1,20.2C50.3,96.9,50.2,96.9,50,96.9z M26.7,12.5c-10.8,0-22,9.2-22,24.8
				c0,23,40.5,54.2,45.3,57.8c4.8-3.6,45.3-34.8,45.3-57.8c0-15.6-11.2-24.8-22-24.8c-4.1,0-17.7,1.6-22.5,22.2
				c-0.2,0.6-1.4,0.6-1.6,0C44.4,14.1,30.8,12.5,26.7,12.5z"/>
		</g>
		<g>
			<path fill="#353535" d="M82.5,52c-0.2,0-0.3,0-0.5-0.2c-0.3-0.3-0.3-0.8,0-1.1c4.4-5,6.2-10.9,5.3-16.9
				c-0.9-5.2-3.9-9.4-8.1-11.7c-0.3-0.2-0.5-0.6-0.3-1.1c0.2-0.3,0.6-0.5,1.1-0.3c4.7,2.5,8,7.2,8.9,12.8c1.1,6.2-0.9,12.8-5.6,18.1
				C83,51.9,82.7,52,82.5,52z"/>
		</g>
		<g>
			<path fill="#353535" d="M76.2,50c-0.2,0-0.3,0-0.5-0.2c-0.3-0.3-0.3-0.8,0-1.1c3.3-3.6,4.7-8,3.9-12.3c-0.6-3.8-2.8-6.9-5.9-8.6
				c-0.3-0.2-0.5-0.6-0.3-1.1c0.2-0.3,0.6-0.5,1.1-0.3c3.6,1.9,6.1,5.5,6.7,9.7c0.8,4.7-0.8,9.7-4.2,13.6C76.7,50,76.4,50,76.2,50z"
				/>
		</g>
	</g>
</g>
<g id="Text" display="none">
</g>
<g id="Pixel_grid" display="none">
</g>
<g id="Layer_5" display="none">
</g>
<g id="Layer_8" display="none">
</g>
</svg>
