<?xml version="1.0" encoding="utf-8"?>
<!-- Generator: Adobe Illustrator 18.1.1, SVG Export Plug-In . SVG Version: 6.00 Build 0)  -->
<!DOCTYPE svg PUBLIC "-//W3C//DTD SVG 1.1//EN" "http://www.w3.org/Graphics/SVG/1.1/DTD/svg11.dtd">
<svg version="1.1" xmlns="http://www.w3.org/2000/svg" xmlns:xlink="http://www.w3.org/1999/xlink" x="0px" y="0px"
	 viewBox="0 0 16 16" enable-background="new 0 0 16 16" xml:space="preserve">
<g id="Circle_Center" display="none">
	
		<rect x="0" display="inline" fill="none" stroke="#E30613" stroke-width="6.250000e-02" stroke-miterlimit="10" width="16" height="16"/>
	
		<line display="inline" fill="none" stroke="#E30613" stroke-width="6.250000e-02" stroke-miterlimit="10" x1="0" y1="8" x2="16" y2="8"/>
	
		<line display="inline" fill="none" stroke="#E30613" stroke-width="6.250000e-02" stroke-miterlimit="10" x1="8" y1="0" x2="8" y2="16"/>
	<circle display="inline" fill="none" stroke="#E30613" stroke-width="6.666666e-02" stroke-miterlimit="10" cx="8" cy="8" r="8"/>
</g>
<g id="Layer_3" display="none">
</g>
<g id="Layer_4" display="none">
	
		<rect x="0" y="0" display="inline" fill="none" stroke="#FFED00" stroke-width="0.1" stroke-miterlimit="10" width="16" height="16"/>
</g>
<g id="Layer_1">
	<g>
		<path fill="#353535" d="M8,16c-0.1,0-0.2,0-0.3-0.1C7.4,15.7,0,10.1,0,5.8C0,2.8,2.1,1,4.2,1C5.5,1,7.1,1.7,8,3.7
			c0.9-2,2.5-2.7,3.8-2.7C13.9,1,16,2.8,16,5.8c0,4.3-7.4,9.9-7.7,10.1C8.2,16,8.1,16,8,16z M4.2,2C2.6,2,1,3.4,1,5.8
			c0,3.4,5.6,8,7,9.1c1.4-1.1,7-5.7,7-9.1C15,3.4,13.4,2,11.8,2C10.2,2,9,3.3,8.5,5.4c-0.1,0.5-0.9,0.5-1,0C7,3.3,5.8,2,4.2,2z"/>
	</g>
</g>
<g id="Text" display="none">
</g>
<g id="Pixel_grid" display="none">
	<g display="inline">
		
			<rect x="0" y="0" fill="none" stroke="#3EC11F" stroke-width="0.1" stroke-linecap="round" stroke-linejoin="round" stroke-miterlimit="10" width="16" height="16"/>
		
			<line fill="none" stroke="#3EC11F" stroke-width="0.1" stroke-linecap="round" stroke-linejoin="round" stroke-miterlimit="10" x1="0" y1="1" x2="16" y2="1"/>
		
			<line fill="none" stroke="#3EC11F" stroke-width="0.1" stroke-linecap="round" stroke-linejoin="round" stroke-miterlimit="10" x1="0" y1="2" x2="16" y2="2"/>
		
			<line fill="none" stroke="#3EC11F" stroke-width="0.1" stroke-linecap="round" stroke-linejoin="round" stroke-miterlimit="10" x1="0" y1="3" x2="16" y2="3"/>
		
			<line fill="none" stroke="#3EC11F" stroke-width="0.1" stroke-linecap="round" stroke-linejoin="round" stroke-miterlimit="10" x1="0" y1="4" x2="16" y2="4"/>
		
			<line fill="none" stroke="#3EC11F" stroke-width="0.1" stroke-linecap="round" stroke-linejoin="round" stroke-miterlimit="10" x1="0" y1="5" x2="16" y2="5"/>
		
			<line fill="none" stroke="#3EC11F" stroke-width="0.1" stroke-linecap="round" stroke-linejoin="round" stroke-miterlimit="10" x1="0" y1="6" x2="16" y2="6"/>
		
			<line fill="none" stroke="#3EC11F" stroke-width="0.1" stroke-linecap="round" stroke-linejoin="round" stroke-miterlimit="10" x1="0" y1="7" x2="16" y2="7"/>
		
			<line fill="none" stroke="#3EC11F" stroke-width="0.1" stroke-linecap="round" stroke-linejoin="round" stroke-miterlimit="10" x1="0" y1="8" x2="16" y2="8"/>
		
			<line fill="none" stroke="#3EC11F" stroke-width="0.1" stroke-linecap="round" stroke-linejoin="round" stroke-miterlimit="10" x1="0" y1="9" x2="16" y2="9"/>
		
			<line fill="none" stroke="#3EC11F" stroke-width="0.1" stroke-linecap="round" stroke-linejoin="round" stroke-miterlimit="10" x1="0" y1="10" x2="16" y2="10"/>
		
			<line fill="none" stroke="#3EC11F" stroke-width="0.1" stroke-linecap="round" stroke-linejoin="round" stroke-miterlimit="10" x1="0" y1="11" x2="16" y2="11"/>
		
			<line fill="none" stroke="#3EC11F" stroke-width="0.1" stroke-linecap="round" stroke-linejoin="round" stroke-miterlimit="10" x1="0" y1="12" x2="16" y2="12"/>
		
			<line fill="none" stroke="#3EC11F" stroke-width="0.1" stroke-linecap="round" stroke-linejoin="round" stroke-miterlimit="10" x1="0" y1="13" x2="16" y2="13"/>
		
			<line fill="none" stroke="#3EC11F" stroke-width="0.1" stroke-linecap="round" stroke-linejoin="round" stroke-miterlimit="10" x1="0" y1="14" x2="16" y2="14"/>
		
			<line fill="none" stroke="#3EC11F" stroke-width="0.1" stroke-linecap="round" stroke-linejoin="round" stroke-miterlimit="10" x1="0" y1="15" x2="16" y2="15"/>
		
			<line fill="none" stroke="#3EC11F" stroke-width="0.1" stroke-linecap="round" stroke-linejoin="round" stroke-miterlimit="10" x1="15" y1="0" x2="15" y2="16"/>
		
			<line fill="none" stroke="#3EC11F" stroke-width="0.1" stroke-linecap="round" stroke-linejoin="round" stroke-miterlimit="10" x1="14" y1="0" x2="14" y2="16"/>
		
			<line fill="none" stroke="#3EC11F" stroke-width="0.1" stroke-linecap="round" stroke-linejoin="round" stroke-miterlimit="10" x1="13" y1="0" x2="13" y2="16"/>
		
			<line fill="none" stroke="#3EC11F" stroke-width="0.1" stroke-linecap="round" stroke-linejoin="round" stroke-miterlimit="10" x1="12" y1="0" x2="12" y2="16"/>
		
			<line fill="none" stroke="#3EC11F" stroke-width="0.1" stroke-linecap="round" stroke-linejoin="round" stroke-miterlimit="10" x1="11" y1="0" x2="11" y2="16"/>
		
			<line fill="none" stroke="#3EC11F" stroke-width="0.1" stroke-linecap="round" stroke-linejoin="round" stroke-miterlimit="10" x1="10" y1="0" x2="10" y2="16"/>
		
			<line fill="none" stroke="#3EC11F" stroke-width="0.1" stroke-linecap="round" stroke-linejoin="round" stroke-miterlimit="10" x1="9" y1="0" x2="9" y2="16"/>
		
			<line fill="none" stroke="#3EC11F" stroke-width="0.1" stroke-linecap="round" stroke-linejoin="round" stroke-miterlimit="10" x1="8" y1="0" x2="8" y2="16"/>
		
			<line fill="none" stroke="#3EC11F" stroke-width="0.1" stroke-linecap="round" stroke-linejoin="round" stroke-miterlimit="10" x1="7" y1="0" x2="7" y2="16"/>
		
			<line fill="none" stroke="#3EC11F" stroke-width="0.1" stroke-linecap="round" stroke-linejoin="round" stroke-miterlimit="10" x1="6" y1="0" x2="6" y2="16"/>
		
			<line fill="none" stroke="#3EC11F" stroke-width="0.1" stroke-linecap="round" stroke-linejoin="round" stroke-miterlimit="10" x1="5" y1="0" x2="5" y2="16"/>
		
			<line fill="none" stroke="#3EC11F" stroke-width="0.1" stroke-linecap="round" stroke-linejoin="round" stroke-miterlimit="10" x1="4" y1="0" x2="4" y2="16"/>
		
			<line fill="none" stroke="#3EC11F" stroke-width="0.1" stroke-linecap="round" stroke-linejoin="round" stroke-miterlimit="10" x1="3" y1="0" x2="3" y2="16"/>
		
			<line fill="none" stroke="#3EC11F" stroke-width="0.1" stroke-linecap="round" stroke-linejoin="round" stroke-miterlimit="10" x1="2" y1="0" x2="2" y2="16"/>
		
			<line fill="none" stroke="#3EC11F" stroke-width="0.1" stroke-linecap="round" stroke-linejoin="round" stroke-miterlimit="10" x1="1" y1="0" x2="1" y2="16"/>
	</g>
</g>
<g id="Layer_5" display="none">
</g>
<g id="Layer_8" display="none">
</g>
</svg>
