<?xml version="1.0" encoding="utf-8"?>
<!-- Generator: Adobe Illustrator 18.1.1, SVG Export Plug-In . SVG Version: 6.00 Build 0)  -->
<!DOCTYPE svg PUBLIC "-//W3C//DTD SVG 1.1//EN" "http://www.w3.org/Graphics/SVG/1.1/DTD/svg11.dtd">
<svg version="1.1" id="Layer_1" xmlns="http://www.w3.org/2000/svg" xmlns:xlink="http://www.w3.org/1999/xlink" x="0px" y="0px"
	 viewBox="0 0 100 100" enable-background="new 0 0 100 100" xml:space="preserve">
<g id="Circle_Center" display="none">
	<g display="inline" opacity="0.5">
		<rect fill="none" stroke="#E30613" stroke-width="0.125" stroke-miterlimit="10" width="100" height="100"/>
		<line fill="none" stroke="#E30613" stroke-width="0.125" stroke-miterlimit="10" x1="0" y1="50" x2="100" y2="50"/>
		<line fill="none" stroke="#E30613" stroke-width="0.125" stroke-miterlimit="10" x1="50" y1="0" x2="50" y2="100"/>
		<circle fill="none" stroke="#E30613" stroke-width="0.125" stroke-miterlimit="10" cx="50" cy="50" r="46.9"/>
	</g>
</g>
<g id="Layer_3" display="none">
</g>
<g id="Layer_4" display="none">
	
		<rect x="3.1" y="3.1" display="inline" fill="none" stroke="#FFED00" stroke-width="0.1875" stroke-miterlimit="10" width="93.8" height="93.8"/>
</g>
<g>
	<path fill="#353535" d="M50,3.1C24.1,3.1,3.1,24.1,3.1,50S24.1,96.9,50,96.9S96.9,75.9,96.9,50S75.9,3.1,50,3.1z M50,93.8
		C25.9,93.8,6.2,74.1,6.2,50S25.9,6.2,50,6.2S93.8,25.9,93.8,50S74.1,93.8,50,93.8z"/>
	<path fill="#353535" d="M79.7,48.4H51.6V20.3c0-0.9-0.6-1.6-1.6-1.6s-1.6,0.6-1.6,1.6v28.1H20.3c-0.9,0-1.6,0.9-1.6,1.6
		s0.6,1.6,1.6,1.6h28.1v28.1c0,0.9,0.6,1.6,1.6,1.6s1.6-0.6,1.6-1.6V51.6h28.1c0.9,0,1.6-0.6,1.6-1.6S80.6,48.4,79.7,48.4z"/>
</g>
<g id="Text" display="none">
</g>
<g id="Pixel_grid" display="none">
</g>
<g id="Layer_5" display="none">
</g>
<g id="Layer_8" display="none">
</g>
</svg>
