<?xml version="1.0" encoding="utf-8"?>
<!-- Generator: Adobe Illustrator 18.1.1, SVG Export Plug-In . SVG Version: 6.00 Build 0)  -->
<!DOCTYPE svg PUBLIC "-//W3C//DTD SVG 1.1//EN" "http://www.w3.org/Graphics/SVG/1.1/DTD/svg11.dtd">
<svg version="1.1" id="Layer_1" xmlns="http://www.w3.org/2000/svg" xmlns:xlink="http://www.w3.org/1999/xlink" x="0px" y="0px"
	 viewBox="0 0 100 100" enable-background="new 0 0 100 100" xml:space="preserve">
<g id="Circle_Center" display="none">
</g>
<g id="Layer_3" display="none">
</g>
<g id="Layer_4" display="none">
</g>
<g>
	<path fill="#353535" d="M50,3.1C24.1,3.1,3.1,24.1,3.1,50S24.1,96.9,50,96.9S96.9,75.9,96.9,50S75.9,3.1,50,3.1z M50,93.8
		C25.9,93.8,6.2,74.1,6.2,50S25.9,6.2,50,6.2S93.8,25.9,93.8,50S74.1,93.8,50,93.8z"/>
	<path fill="#353535" d="M72.2,27.8c-0.6-0.6-1.6-0.6-2.2,0l-20,20l-20-20c-0.6-0.6-1.6-0.6-2.2,0s-0.6,1.6,0,2.2l19.9,20.1L27.8,70
		c-0.6,0.6-0.6,1.6,0,2.2c0.3,0.3,0.9,0.3,1.2,0.3s0.6,0,0.9-0.3l19.9-19.9l19.8,19.9c0.3,0.3,0.9,0.3,1.2,0.3c0.6,0,0.9,0,1.2-0.3
		c0.6-0.6,0.6-1.6,0-2.2l-20-20l20-20C72.8,29.4,72.8,28.4,72.2,27.8z"/>
</g>
<g id="Text" display="none">
</g>
<g id="Pixel_grid" display="none">
</g>
<g id="Layer_5" display="none">
</g>
<g id="Layer_8" display="none">
</g>
</svg>
