<?xml version="1.0" encoding="utf-8"?>
<!-- Generator: Adobe Illustrator 18.1.1, SVG Export Plug-In . SVG Version: 6.00 Build 0)  -->
<!DOCTYPE svg PUBLIC "-//W3C//DTD SVG 1.1//EN" "http://www.w3.org/Graphics/SVG/1.1/DTD/svg11.dtd">
<svg version="1.1" id="Layer_1" xmlns="http://www.w3.org/2000/svg" xmlns:xlink="http://www.w3.org/1999/xlink" x="0px" y="0px"
	 viewBox="0 0 100 100" enable-background="new 0 0 100 100" xml:space="preserve">
<g id="Circle_Center" display="none">
</g>
<g id="Layer_3" display="none">
</g>
<g id="Layer_4" display="none">
</g>
<g>
	<path fill="#353535" d="M50,3.1C24.2,3.1,3.1,24.2,3.1,50S24.2,96.9,50,96.9S96.9,75.8,96.9,50S75.8,3.1,50,3.1z M50,95.3
		C25,95.3,4.7,75,4.7,50S25,4.7,50,4.7S95.3,25,95.3,50S75,95.3,50,95.3z"/>
	<path fill="#353535" d="M74.2,25.8c-0.3-0.3-0.8-0.3-1.1,0L50,48.9L26.9,25.8c-0.3-0.3-0.8-0.3-1.1,0s-0.3,0.8,0,1.1L48.9,50
		L25.8,73.1c-0.3,0.3-0.3,0.8,0,1.1c0.2,0.2,0.5,0.2,0.6,0.2s0.3-0.2,0.5-0.3l23-23l23,23.1c0.2,0.2,0.5,0.2,0.6,0.2
		c0.3,0,0.5-0.2,0.6-0.2c0.3-0.3,0.3-0.8,0-1.1L51.1,50l23.2-23.1C74.5,26.6,74.5,26.1,74.2,25.8z"/>
</g>
<g id="Text" display="none">
</g>
<g id="Pixel_grid" display="none">
</g>
<g id="Layer_5" display="none">
</g>
<g id="Layer_8" display="none">
</g>
</svg>
