<?xml version="1.0" encoding="utf-8"?>
<!-- Generator: Adobe Illustrator 18.1.1, SVG Export Plug-In . SVG Version: 6.00 Build 0)  -->
<!DOCTYPE svg PUBLIC "-//W3C//DTD SVG 1.1//EN" "http://www.w3.org/Graphics/SVG/1.1/DTD/svg11.dtd">
<svg version="1.1" id="Layer_1" xmlns="http://www.w3.org/2000/svg" xmlns:xlink="http://www.w3.org/1999/xlink" x="0px" y="0px"
	 viewBox="0 0 100 100" enable-background="new 0 0 100 100" xml:space="preserve">
<g id="Circle_Center" display="none">
</g>
<g id="Layer_3" display="none">
</g>
<g id="Layer_4" display="none">
</g>
<g>
	<path fill="#353535" d="M50,0C22.5,0,0,22.5,0,50s22.5,50,50,50s50-22.5,50-50S77.5,0,50,0z M50,93.8C25.6,93.8,6.2,74.4,6.2,50
		S25.6,6.2,50,6.2S93.8,25.6,93.8,50S74.4,93.8,50,93.8z"/>
	<path fill="#353535" d="M71.9,28.1c-1.2-1.2-3.1-1.2-4.4,0L50,45.6L32.5,28.1c-1.2-1.2-3.1-1.2-4.4,0s-1.2,3.1,0,4.4l17.4,17.6
		L28.1,67.5c-1.2,1.2-1.2,3.1,0,4.4c0.6,0.6,1.9,0.6,2.5,0.6s1.2,0,1.9-0.6l17.3-17.3l17,17.3c0.6,0.6,1.9,0.6,2.5,0.6
		c1.2,0,1.9,0,2.5-0.6c1.2-1.2,1.2-3.1,0-4.4L54.4,50l17.5-17.5C73.1,31.2,73.1,29.4,71.9,28.1z"/>
</g>
<g id="Text" display="none">
</g>
<g id="Pixel_grid" display="none">
</g>
<g id="Layer_5" display="none">
</g>
<g id="Layer_8" display="none">
</g>
</svg>
