<?xml version="1.0" encoding="utf-8"?>
<!-- Generator: Adobe Illustrator 18.1.1, SVG Export Plug-In . SVG Version: 6.00 Build 0)  -->
<!DOCTYPE svg PUBLIC "-//W3C//DTD SVG 1.1//EN" "http://www.w3.org/Graphics/SVG/1.1/DTD/svg11.dtd">
<svg version="1.1" id="Layer_1" xmlns="http://www.w3.org/2000/svg" xmlns:xlink="http://www.w3.org/1999/xlink" x="0px" y="0px"
	 viewBox="0 0 100 100" enable-background="new 0 0 100 100" xml:space="preserve">
<g id="Circle_Center" display="none">
	
		<rect display="inline" fill="none" stroke="#E30613" stroke-width="6.250000e-02" stroke-miterlimit="10" width="100" height="100"/>
	
		<line display="inline" fill="none" stroke="#E30613" stroke-width="6.250000e-02" stroke-miterlimit="10" x1="0" y1="50" x2="100" y2="50"/>
	
		<line display="inline" fill="none" stroke="#E30613" stroke-width="6.250000e-02" stroke-miterlimit="10" x1="50" y1="0" x2="50" y2="100"/>
	
		<circle display="inline" fill="none" stroke="#E30613" stroke-width="6.666666e-02" stroke-miterlimit="10" cx="50" cy="50" r="50"/>
</g>
<g id="Layer_3" display="none">
</g>
<g id="Layer_4" display="none">
	<rect display="inline" fill="none" stroke="#FFED00" stroke-width="0.1" stroke-miterlimit="10" width="100" height="100"/>
</g>
<g>
	<path fill="#353535" d="M91.9,76.2l-4.4-2.5C65,60,35.6,60,13.1,73.8l-4.4,2.5c-1.9,0.6-2.5,1.9-2.5,3.8v15.6
		c0,2.5,1.9,4.4,4.4,4.4h78.8c2.5,0,4.4-1.9,5-4.4V80C94.4,78.8,93.1,76.9,91.9,76.2z M87.5,93.8h-75V80.6l3.8-2.5
		c20-12.5,46.9-12.5,67.5,0l3.8,2.5V93.8z"/>
	<path fill="#353535" d="M50,56.2c9.3,0,18-7.5,22.2-15.9L85,37.5c0.1,0,0.3-0.1,0.4-0.1c0.5-0.1,0.9-0.4,1.3-0.7
		c0.9-0.7,1.3-1.6,0.9-2.9V21.9c0-1.9-1.2-3.1-3.1-3.1s-3.1,1.2-3.1,3.1v9.9l-6.6,1.4c0.2-1.1,0.3-2.2,0.3-3.2v-6.9
		C75,13.1,65,0,55,0h-9.4C35,0,25,12.5,25,22.5v6.2C25,40.6,36.9,56.2,50,56.2z M31.2,22.5c0-6.9,8.1-16.2,14.4-16.2h8.8
		c6.2,0,14.4,10,14.4,16.9V30c0,1.6-0.3,3.1-0.8,4.7l-15.5,3.4c-1.9,0.6-3.1,1.9-2.5,3.8c0,1.2,1.2,2.5,3.1,2.5c0,0,0,0,0.6,0
		l10.1-2.2c-3.7,4.5-9,7.8-13.8,7.8c-8.8,0-18.8-12.5-18.8-20.6V22.5z"/>
	<path fill="#353535" d="M15.6,37.5c1.9,0,3.1-1.2,3.1-3.1V21.9c0-1.9-1.2-3.1-3.1-3.1s-3.1,1.2-3.1,3.1v12.5
		C12.5,36.2,13.8,37.5,15.6,37.5z"/>
</g>
<g id="Text" display="none">
</g>
<g id="Pixel_grid" display="none">
</g>
<g id="Layer_5" display="none">
</g>
<g id="Layer_8" display="none">
</g>
</svg>
