<?xml version="1.0" encoding="utf-8"?>
<!-- Generator: Adobe Illustrator 18.1.1, SVG Export Plug-In . SVG Version: 6.00 Build 0)  -->
<!DOCTYPE svg PUBLIC "-//W3C//DTD SVG 1.1//EN" "http://www.w3.org/Graphics/SVG/1.1/DTD/svg11.dtd">
<svg version="1.1" id="Layer_1" xmlns="http://www.w3.org/2000/svg" xmlns:xlink="http://www.w3.org/1999/xlink" x="0px" y="0px"
	 viewBox="0 0 100 100" enable-background="new 0 0 100 100" xml:space="preserve">
<g id="Circle_Center" display="none">
	<g display="inline" opacity="0.5">
		<rect fill="none" stroke="#E30613" stroke-width="0.25" stroke-miterlimit="10" width="100" height="100"/>
		<line fill="none" stroke="#E30613" stroke-width="0.25" stroke-miterlimit="10" x1="0" y1="50" x2="100" y2="50"/>
		<line fill="none" stroke="#E30613" stroke-width="0.25" stroke-miterlimit="10" x1="50" y1="0" x2="50" y2="100"/>
		<circle fill="none" stroke="#E30613" stroke-width="0.25" stroke-miterlimit="10" cx="50" cy="50" r="46.9"/>
	</g>
</g>
<g id="Layer_3" display="none">
</g>
<g id="Layer_4" display="none">
	
		<rect x="3.1" y="3.1" display="inline" fill="none" stroke="#FFED00" stroke-width="0.375" stroke-miterlimit="10" width="93.8" height="93.8"/>
</g>
<path fill="#353535" d="M93,75.6l-4.7-2.8c-8.8-5.5-18.7-9.1-28-10.5c4-2.8,7.2-6.9,9.3-11.6l6.7-2.3c0,0,0,0,0,0
	c4.5-0.1,8.1-3.8,8.1-8.1v-0.8c0-4.4-3.5-8-7.8-8.3v-7.4c0-11.4-9.2-20.6-20.6-20.6H44.1c-11.4,0-20.6,9.2-20.6,20.6v7.2
	c-4.3,0.2-7.8,3.9-7.8,8.3v0.8c0,4.5,3.8,8.3,8.3,8.3h0.3c0.5,0,0.8-0.3,0.8-0.9v-7.7v-8v-8c0-10.5,8.6-19.1,19.1-19.1h11.9
	C66.4,4.8,75,13.4,75,23.9V32v7.8v7.3l-4.7,1.6c1-2.8,1.6-5.8,1.6-8.6V24.7c0-9.4-7.5-16.9-16.7-16.9H45c-9.4,0-16.9,7.5-16.9,16.7
	V40c0,8.3,4.6,17.5,11.7,22.3c-9.4,1.3-18.3,4.5-27.7,10.4l-4.7,2.8c-0.6,0.5-1.1,1.2-1.1,2v17c0,1.2,1.1,2.3,2.3,2.3h83.1
	c1.2,0,2.3-1.1,2.3-2.2v-17C94.1,76.9,93.6,76.1,93,75.6z M23.4,46.7c-3.4-0.2-6.2-3-6.2-6.6v-0.8c0-3.4,2.8-6.4,6.2-6.6v7V46.7z
	 M82.8,39.5v0.8c0,3.4-2.8,6.4-6.2,6.6v-7v-7C80,33,82.8,35.9,82.8,39.5z M45,9.4V9.2h10c8.4,0,15.3,6.9,15.3,15.3v3.1
	c-4.7,1.8-9.6,2.7-14.7,2.7c-9.3,0-18.3-3.3-25.5-9.1C31.7,14.4,37.8,9.4,45,9.4z M29.7,40.2V24.7c0-0.6,0-1.2,0.1-1.8
	c7.4,5.9,16.6,9.1,26,9.1c5,0,9.9-0.8,14.5-2.6V40c0,3.4-0.7,6.5-1.8,9.4l-17.3,5.9c-0.3,0.2-0.6,0.5-0.5,0.9
	c0.2,0.3,0.5,0.5,0.8,0.5h0.2l15.9-5.4C63.8,59,56.5,64.1,50,64.1C38.6,64.1,29.7,51.1,29.7,40.2z M50,65.6c2.9,0,5.6-0.8,8.1-2.1
	c0.1,0,0.1,0,0.2,0c3.4,0.4,7,1.1,10.5,2.1c-5.4,5-11.8,7.7-18.6,7.7c-6.8,0-13.5-2.9-18.9-7.9c3.5-1,7-1.6,10.7-2c0,0,0,0,0.1,0
	C44.4,64.9,47.1,65.6,50,65.6z M92.5,94.5c0,0.5-0.3,0.8-0.8,0.8H8.6c-0.5,0-0.8-0.3-0.8-0.8v-17c0-0.3,0.2-0.6,0.2-0.8l4.7-2.8
	c5.8-3.5,11.4-6.1,17-7.9c0,0.1,0.1,0.3,0.2,0.4c5.8,5.6,13,8.6,20.3,8.6s14.4-3,20.2-8.6c0,0,0.1-0.1,0.1-0.2
	c5.8,1.9,11.6,4.5,16.9,7.8l4.7,2.8c0.3,0,0.5,0.3,0.5,0.6V94.5z"/>
<g id="Text" display="none">
</g>
<g id="Pixel_grid" display="none">
</g>
<g id="Layer_5" display="none">
</g>
<g id="Layer_8" display="none">
</g>
</svg>
