<?xml version="1.0" encoding="utf-8"?>
<!-- Generator: Adobe Illustrator 18.1.1, SVG Export Plug-In . SVG Version: 6.00 Build 0)  -->
<!DOCTYPE svg PUBLIC "-//W3C//DTD SVG 1.1//EN" "http://www.w3.org/Graphics/SVG/1.1/DTD/svg11.dtd">
<svg version="1.1" id="Layer_1" xmlns="http://www.w3.org/2000/svg" xmlns:xlink="http://www.w3.org/1999/xlink" x="0px" y="0px"
	 viewBox="0 0 100 100" enable-background="new 0 0 100 100" xml:space="preserve">
<g id="Circle_Center" display="none">
	<g display="inline" opacity="0.5">
		<rect fill="none" stroke="#E30613" stroke-width="0.125" stroke-miterlimit="10" width="100" height="100"/>
		<line fill="none" stroke="#E30613" stroke-width="0.125" stroke-miterlimit="10" x1="0" y1="50" x2="100" y2="50"/>
		<line fill="none" stroke="#E30613" stroke-width="0.125" stroke-miterlimit="10" x1="50" y1="0" x2="50" y2="100"/>
		<circle fill="none" stroke="#E30613" stroke-width="0.125" stroke-miterlimit="10" cx="50" cy="50" r="46.9"/>
	</g>
</g>
<g id="Layer_3" display="none">
</g>
<g id="Layer_4" display="none">
	
		<rect x="3.1" y="3.1" display="inline" fill="none" stroke="#FFED00" stroke-width="0.1875" stroke-miterlimit="10" width="93.8" height="93.8"/>
</g>
<g>
	<path fill="#353535" d="M89.4,75.6L85,72.8c-10.6-6.9-22.5-10.3-35-10.3s-24.4,3.4-34.7,10l-4.4,2.8c-0.9,0.3-1.6,1.6-1.6,2.5v15.9
		c0,1.9,1.6,3.1,3.1,3.1h75c1.9,0,3.1-1.2,3.4-3.1V78.1C90.9,77.2,90.3,76.2,89.4,75.6z M87.5,93.8h-75V78.1l4.1-2.8
		c10-6.2,21.6-9.7,33.4-9.7s23.4,3.4,33.4,9.7l4.1,2.5V93.8z"/>
	<path fill="#353535" d="M50,59.4c9.4,0,17.3-8.2,20.4-17.3l4.6-1.5v0h0.6c3.1,0,5.6-2.5,5.6-5.6v-4.7c0-2.8-2.2-5.3-5.3-5.3
		c-0.6,0-0.9,0.3-0.9,0.9v11.6l-3.6,1.2c0.3-1.5,0.5-3.1,0.5-4.6V19.7c0-9.1-7.8-16.6-17.2-16.6h-9.4c-9.4,0-17.2,7.5-17.2,16.6
		v14.4C28.1,45.6,37.8,59.4,50,59.4z M45.3,6.2h9.4c7.5,0,14.1,6.2,14.1,13.4v3.1c-4.4,1.6-8.8,2.5-13.4,2.5
		c-8.3,0-17.2-3.3-23.7-8.5C33.1,10.9,38.8,6.2,45.3,6.2z M31.2,20.2c6.9,5.1,15.8,8.2,24.1,8.2c4.6,0,9.1-0.8,13.4-2.1v7.7
		c0,1.9-0.3,3.8-0.9,5.7l-16,5.2c-0.6,0.3-1.2,0.9-0.9,1.9c0.3,0.6,0.9,0.9,1.6,0.9c0.3,0,0.3,0,0.6,0l13.4-4.4
		c-3.2,7-9.6,12.8-16.5,12.8c-10,0-18.8-12.2-18.8-22.2V20.2z"/>
	<path fill="#353535" d="M24.4,40.6c0.3,0,0.6-0.3,0.6-0.6V25.9c0-0.6-0.3-0.9-0.9-0.9c-2.8,0-5.3,2.5-5.3,5.3V35
		C18.8,38.1,21.2,40.6,24.4,40.6z"/>
</g>
<g id="Text" display="none">
</g>
<g id="Pixel_grid" display="none">
</g>
<g id="Layer_5" display="none">
</g>
<g id="Layer_8" display="none">
</g>
</svg>
