<?xml version="1.0" encoding="utf-8"?>
<!-- Generator: Adobe Illustrator 18.1.1, SVG Export Plug-In . SVG Version: 6.00 Build 0)  -->
<!DOCTYPE svg PUBLIC "-//W3C//DTD SVG 1.1//EN" "http://www.w3.org/Graphics/SVG/1.1/DTD/svg11.dtd">
<svg version="1.1" id="Layer_1" xmlns="http://www.w3.org/2000/svg" xmlns:xlink="http://www.w3.org/1999/xlink" x="0px" y="0px"
	 viewBox="0 0 100 100" enable-background="new 0 0 100 100" xml:space="preserve">
<g id="Circle_Center" display="none">
	<g display="inline" opacity="0.5">
		<rect fill="none" stroke="#E30613" stroke-width="0.25" stroke-miterlimit="10" width="100" height="100"/>
		<line fill="none" stroke="#E30613" stroke-width="0.25" stroke-miterlimit="10" x1="0" y1="50" x2="100" y2="50"/>
		<line fill="none" stroke="#E30613" stroke-width="0.25" stroke-miterlimit="10" x1="50" y1="0" x2="50" y2="100"/>
		<circle fill="none" stroke="#E30613" stroke-width="0.25" stroke-miterlimit="10" cx="50" cy="50" r="46.9"/>
	</g>
</g>
<g id="Layer_3" display="none">
</g>
<g id="Layer_4" display="none">
	
		<rect x="3.1" y="3.1" display="inline" fill="none" stroke="#FFED00" stroke-width="0.375" stroke-miterlimit="10" width="93.8" height="93.8"/>
</g>
<g>
	<path fill="#353535" d="M50,3.1C24.2,3.1,3.1,24.2,3.1,50S24.2,96.9,50,96.9S96.9,75.8,96.9,50S75.8,3.1,50,3.1z M50,95.3
		C25,95.3,4.7,75,4.7,50S25,4.7,50,4.7S95.3,25,95.3,50S75,95.3,50,95.3z"/>
	<path fill="#353535" d="M56.9,71.3c-0.3,0-0.6,0.1-1.1,0.3c-0.5,0.2-0.9,0.5-1.5,0.8s-1.1,0.6-1.6,0.8c-0.6,0.2-1,0.3-1.4,0.3
		c-0.6,0-0.9-0.3-0.9-0.9c0-0.4,0.1-1,0.3-1.8L57,40.1c0.1-0.3,0.1-0.7,0.1-1c0-0.3,0-0.6,0-0.8c0-0.7-0.2-1.1-0.7-1.4
		c-0.5-0.3-0.9-0.4-1.5-0.4c-0.6,0-1.6,0.2-2.9,0.7c-1.4,0.5-2.9,1.1-4.5,1.8c-1.7,0.7-3.4,1.5-5.1,2.3c-1.7,0.8-3.2,1.6-4.4,2.2
		c0.1,0.5,0.3,1.1,0.6,1.7c0.3,0.6,0.7,0.9,1.3,0.9c0.3,0,0.7-0.1,1.2-0.2c0.5-0.2,1-0.3,1.5-0.5c0.5-0.2,0.9-0.4,1.3-0.5
		c0.4-0.2,0.7-0.2,0.9-0.2c0.5,0,0.7,0.5,0.5,1.5l-6.3,29.8c-0.1,0.3-0.1,0.6-0.2,0.9c-0.1,0.4-0.1,0.7-0.1,1.1
		c0,1.1,0.4,1.9,1.1,2.3c0.7,0.5,1.7,0.7,2.8,0.7c1,0,2.3-0.2,3.7-0.7c1.4-0.5,2.8-1.1,4.3-1.8c1.5-0.7,2.9-1.5,4.3-2.3
		c1.4-0.8,2.6-1.6,3.7-2.3c-0.1-0.5-0.2-1.1-0.5-1.6C57.8,71.5,57.4,71.3,56.9,71.3z"/>
	<path fill="#353535" d="M55.2,16.2c-2.2,0-4,0.7-5.6,2.2c-1.6,1.4-2.3,3.2-2.3,5.2c0,1.5,0.5,2.7,1.6,3.6c1,0.9,2.4,1.3,4.2,1.3
		c2.1,0,3.9-0.7,5.3-2c1.5-1.3,2.2-3,2.2-5.1c0-1.2-0.4-2.3-1.3-3.5C58.5,16.8,57.1,16.2,55.2,16.2z"/>
</g>
<g id="Text" display="none">
</g>
<g id="Pixel_grid" display="none">
</g>
<g id="Layer_5" display="none">
</g>
<g id="Layer_8" display="none">
</g>
</svg>
