<?xml version="1.0" encoding="utf-8"?>
<!-- Generator: Adobe Illustrator 18.1.1, SVG Export Plug-In . SVG Version: 6.00 Build 0)  -->
<!DOCTYPE svg PUBLIC "-//W3C//DTD SVG 1.1//EN" "http://www.w3.org/Graphics/SVG/1.1/DTD/svg11.dtd">
<svg version="1.1" id="Layer_1" xmlns="http://www.w3.org/2000/svg" xmlns:xlink="http://www.w3.org/1999/xlink" x="0px" y="0px"
	 viewBox="0 0 100 100" enable-background="new 0 0 100 100" xml:space="preserve">
<g id="Circle_Center" display="none">
	<g display="inline" opacity="0.5">
		<rect fill="none" stroke="#E30613" stroke-width="0.125" stroke-miterlimit="10" width="100" height="100"/>
		<line fill="none" stroke="#E30613" stroke-width="0.125" stroke-miterlimit="10" x1="0" y1="50" x2="100" y2="50"/>
		<line fill="none" stroke="#E30613" stroke-width="0.125" stroke-miterlimit="10" x1="50" y1="0" x2="50" y2="100"/>
		<circle fill="none" stroke="#E30613" stroke-width="0.125" stroke-miterlimit="10" cx="50" cy="50" r="46.9"/>
	</g>
</g>
<g id="Layer_3" display="none">
</g>
<g id="Layer_4" display="none">
	
		<rect x="3.1" y="3.1" display="inline" fill="none" stroke="#FFED00" stroke-width="0.1875" stroke-miterlimit="10" width="93.8" height="93.8"/>
</g>
<g id="Layer_1_1_">
	<path fill="#353535" d="M50,96.9C24.1,96.9,3.1,75.9,3.1,50S24.1,3.1,50,3.1S96.9,24.1,96.9,50S75.9,96.9,50,96.9z M50,6.2
		C25.9,6.2,6.2,25.9,6.2,50S25.9,93.8,50,93.8S93.8,74.1,93.8,50S74.1,6.2,50,6.2z"/>
	<g enable-background="new    ">
		<path fill="#353535" d="M50.7,71.5c-0.2,0.8-0.3,1.4-0.3,1.8c0,0.6,0.3,0.9,0.9,0.9c0.4,0,0.9-0.1,1.4-0.3
			c0.6-0.2,1.1-0.5,1.6-0.8c0.5-0.3,1-0.6,1.5-0.8c0.5-0.2,0.8-0.3,1.1-0.3c0.5,0,0.9,0.3,1.2,0.8c0.3,0.6,0.5,1.1,0.5,1.6
			c-1,0.7-2.3,1.5-3.7,2.3c-1.4,0.8-2.8,1.6-4.3,2.3c-1.5,0.7-2.9,1.3-4.3,1.8c-1.4,0.5-2.6,0.7-3.7,0.7c-1.1,0-2-0.2-2.8-0.7
			c-0.7-0.5-1.1-1.2-1.1-2.3c0-0.4,0-0.8,0.1-1.1c0.1-0.4,0.1-0.7,0.2-0.9l6.2-29.8c0.2-1,0-1.5-0.5-1.5c-0.2,0-0.5,0.1-0.9,0.2
			c-0.4,0.2-0.8,0.3-1.3,0.5c-0.5,0.2-1,0.4-1.5,0.5c-0.5,0.2-0.9,0.2-1.2,0.2c-0.6,0-1-0.3-1.3-0.9c-0.3-0.6-0.5-1.1-0.6-1.7
			c1.2-0.6,2.7-1.4,4.4-2.2c1.7-0.8,3.4-1.6,5.1-2.3c1.7-0.7,3.2-1.3,4.5-1.8c1.4-0.5,2.3-0.7,2.9-0.7c0.5,0,1,0.1,1.5,0.4
			c0.5,0.3,0.7,0.7,0.7,1.4c0,0.2,0,0.5,0,0.8c0,0.3-0.1,0.7-0.1,1L50.7,71.5z M53.1,29.2c-1.8,0-3.2-0.4-4.2-1.3
			c-1-0.9-1.6-2.1-1.6-3.6c0-2,0.8-3.7,2.3-5.2c1.6-1.4,3.4-2.1,5.6-2.1c1.9,0,3.3,0.6,4.1,1.7c0.8,1.1,1.3,2.3,1.3,3.5
			c0,2.1-0.7,3.8-2.2,5.1C56.9,28.5,55.2,29.2,53.1,29.2z"/>
	</g>
</g>
<g id="Text" display="none">
</g>
<g id="Pixel_grid" display="none">
</g>
<g id="Layer_5" display="none">
</g>
<g id="Layer_8" display="none">
</g>
</svg>
