<?xml version="1.0" encoding="utf-8"?>
<!-- Generator: Adobe Illustrator 18.1.1, SVG Export Plug-In . SVG Version: 6.00 Build 0)  -->
<!DOCTYPE svg PUBLIC "-//W3C//DTD SVG 1.1//EN" "http://www.w3.org/Graphics/SVG/1.1/DTD/svg11.dtd">
<svg version="1.1" id="Layer_1" xmlns="http://www.w3.org/2000/svg" xmlns:xlink="http://www.w3.org/1999/xlink" x="0px" y="0px"
	 viewBox="0 0 100 100" enable-background="new 0 0 100 100" xml:space="preserve">
<g id="Circle_Center" display="none">
	
		<rect display="inline" fill="none" stroke="#E30613" stroke-width="6.250000e-02" stroke-miterlimit="10" width="100" height="100"/>
	
		<line display="inline" fill="none" stroke="#E30613" stroke-width="6.250000e-02" stroke-miterlimit="10" x1="0" y1="50" x2="100" y2="50"/>
	
		<line display="inline" fill="none" stroke="#E30613" stroke-width="6.250000e-02" stroke-miterlimit="10" x1="50" y1="0" x2="50" y2="100"/>
	
		<circle display="inline" fill="none" stroke="#E30613" stroke-width="6.666666e-02" stroke-miterlimit="10" cx="50" cy="50" r="50"/>
</g>
<g id="Layer_3" display="none">
</g>
<g id="Layer_4" display="none">
	<rect display="inline" fill="none" stroke="#FFED00" stroke-width="0.1" stroke-miterlimit="10" width="100" height="100"/>
</g>
<g id="Layer_1_1_">
	<path fill="#353535" d="M50,100C22.5,100,0,77.5,0,50S22.5,0,50,0s50,22.5,50,50S77.5,100,50,100z M50,6.2
		C25.6,6.2,6.2,25.6,6.2,50S25.6,93.8,50,93.8S93.8,74.4,93.8,50S74.4,6.2,50,6.2z"/>
	<g enable-background="new    ">
		<path fill="#353535" d="M50.8,71.1c-0.2,0.8-0.3,1.4-0.3,1.8c0,0.6,0.3,0.9,0.9,0.9c0.4,0,0.9-0.1,1.5-0.4
			c0.6-0.2,1.1-0.5,1.7-0.8c0.5-0.3,1-0.6,1.5-0.8c0.5-0.2,0.8-0.4,1.1-0.4c0.5,0,1,0.3,1.3,0.9c0.3,0.6,0.5,1.1,0.6,1.7
			c-1.1,0.7-2.3,1.6-3.8,2.4c-1.5,0.9-2.9,1.7-4.4,2.4c-1.5,0.7-3,1.4-4.4,1.9c-1.5,0.5-2.7,0.8-3.8,0.8c-1.1,0-2.1-0.2-2.9-0.7
			c-0.8-0.5-1.2-1.3-1.2-2.4c0-0.4,0-0.8,0.1-1.2c0.1-0.4,0.1-0.7,0.2-1l6.5-30.8c0.2-1,0-1.5-0.5-1.5c-0.2,0-0.5,0.1-0.9,0.3
			c-0.4,0.2-0.9,0.4-1.4,0.6c-0.5,0.2-1,0.4-1.5,0.6c-0.5,0.2-0.9,0.3-1.3,0.3c-0.6,0-1.1-0.3-1.4-0.9c-0.3-0.6-0.5-1.2-0.7-1.7
			c1.3-0.7,2.8-1.4,4.6-2.3c1.8-0.9,3.5-1.7,5.3-2.4c1.7-0.7,3.3-1.3,4.7-1.8c1.4-0.5,2.4-0.8,3-0.8c0.5,0,1,0.1,1.5,0.4
			c0.5,0.3,0.7,0.7,0.7,1.4c0,0.2,0,0.5-0.1,0.8c0,0.3-0.1,0.7-0.2,1L50.8,71.1z M53.2,27.2c-1.8,0-3.3-0.5-4.3-1.4
			c-1.1-0.9-1.6-2.1-1.6-3.7c0-2.1,0.8-3.9,2.4-5.4c1.6-1.5,3.5-2.2,5.8-2.2c2,0,3.4,0.6,4.2,1.8c0.9,1.2,1.3,2.4,1.3,3.6
			c0,2.2-0.8,3.9-2.3,5.3C57.2,26.5,55.3,27.2,53.2,27.2z"/>
	</g>
</g>
<g id="Text" display="none">
</g>
<g id="Pixel_grid" display="none">
</g>
<g id="Layer_5" display="none">
</g>
<g id="Layer_8" display="none">
</g>
</svg>
