<?xml version="1.0" encoding="utf-8"?>
<!-- Generator: Adobe Illustrator 18.1.1, SVG Export Plug-In . SVG Version: 6.00 Build 0)  -->
<!DOCTYPE svg PUBLIC "-//W3C//DTD SVG 1.1//EN" "http://www.w3.org/Graphics/SVG/1.1/DTD/svg11.dtd">
<svg version="1.1" id="Layer_1" xmlns="http://www.w3.org/2000/svg" xmlns:xlink="http://www.w3.org/1999/xlink" x="0px" y="0px"
	 viewBox="0 0 100 100" enable-background="new 0 0 100 100" xml:space="preserve">
<g id="Circle_Center" display="none">
	<g display="inline" opacity="0.5">
		<rect fill="none" stroke="#E30613" stroke-width="0.25" stroke-miterlimit="10" width="100" height="100"/>
		<line fill="none" stroke="#E30613" stroke-width="0.25" stroke-miterlimit="10" x1="0" y1="50" x2="100" y2="50"/>
		<line fill="none" stroke="#E30613" stroke-width="0.25" stroke-miterlimit="10" x1="50" y1="0" x2="50" y2="100"/>
		<circle fill="none" stroke="#E30613" stroke-width="0.25" stroke-miterlimit="10" cx="50" cy="50" r="46.9"/>
	</g>
</g>
<g id="Layer_3" display="none">
</g>
<g id="Layer_4" display="none">
	
		<rect x="3.1" y="3.1" display="inline" fill="none" stroke="#FFED00" stroke-width="0.375" stroke-miterlimit="10" width="93.8" height="93.8"/>
</g>
<g>
	<path fill="#353535" d="M77.2,37.7h-8.4V22.5c0-10.8-8.4-19.4-18.8-19.4s-18.8,8.8-18.8,19.4v15.2H23c-1.4,0-2.5,1.1-2.5,2.5v54.4
		c0,1.4,1.1,2.5,2.5,2.5h54.2c1.4,0,2.5-1.2,2.5-2.5V40.2C79.7,38.8,78.6,37.7,77.2,37.7z M32.8,22.5c0-9.7,7.7-17.8,17.2-17.8
		s17.2,8,17.2,17.8v15.2h-4.5V22.5c0-7.2-5.6-13-12.7-13s-12.7,5.8-12.7,13v15.2h-4.5V22.5z M61.1,37.7H38.9V22.5
		c0-6.2,5-11.4,11.1-11.4s11.1,5.2,11.1,11.4V37.7z M23,39.1v0.2h54.2c0.5,0,0.9,0.5,0.9,0.9v5.2H22V40C22,39.5,22.5,39.1,23,39.1z
		 M78.1,46.9v40.6H22V46.9H78.1z M77.2,95.3H23c-0.5,0-0.9-0.5-0.9-0.9v-5.3h56.1v5.3C78.1,94.8,77.7,95.3,77.2,95.3z"/>
	<path fill="#353535" d="M46.4,69.4l-1.9,7.3c-0.2,0.6,0,1.4,0.5,2s1.1,0.9,1.9,0.9h6.7c0.8,0,1.4-0.3,1.9-0.8
		c0.5-0.6,0.6-1.4,0.5-2.2l-2-7.7c2.3-1.2,3.8-3.8,3.8-6.6c0-4.5-3.9-8.3-8.6-7.7c-3.4,0.3-6.2,3.1-6.7,6.4
		C41.9,64.7,43.4,67.8,46.4,69.4z M43.9,61.4c0.5-2.7,2.7-4.8,5.3-5.2c0.3,0,0.5,0,0.8,0c3.4,0,6.1,2.8,6.1,6.1
		c0,2.3-1.2,4.4-3.4,5.5c-0.3,0.2-0.6,0.6-0.5,0.9l2.2,8.3c0,0.3,0,0.6-0.2,0.8s-0.3,0.3-0.6,0.3h-6.7c-0.2,0-0.5-0.2-0.6-0.3
		c-0.2-0.3-0.2-0.5-0.2-0.8l2-8c0.2-0.5-0.2-0.8-0.5-0.9C45,67,43.4,64.2,43.9,61.4z"/>
</g>
<g id="Text" display="none">
</g>
<g id="Pixel_grid" display="none">
</g>
<g id="Layer_5" display="none">
</g>
<g id="Layer_8" display="none">
</g>
</svg>
