<?xml version="1.0" encoding="utf-8"?>
<!-- Generator: Adobe Illustrator 18.1.1, SVG Export Plug-In . SVG Version: 6.00 Build 0)  -->
<!DOCTYPE svg PUBLIC "-//W3C//DTD SVG 1.1//EN" "http://www.w3.org/Graphics/SVG/1.1/DTD/svg11.dtd">
<svg version="1.1" id="Layer_1" xmlns="http://www.w3.org/2000/svg" xmlns:xlink="http://www.w3.org/1999/xlink" x="0px" y="0px"
	 viewBox="0 0 100 100" enable-background="new 0 0 100 100" xml:space="preserve">
<g id="Circle_Center" display="none">
	<g display="inline" opacity="0.5">
		<rect fill="none" stroke="#E30613" stroke-width="0.25" stroke-miterlimit="10" width="100" height="100"/>
		<line fill="none" stroke="#E30613" stroke-width="0.25" stroke-miterlimit="10" x1="0" y1="50" x2="100" y2="50"/>
		<line fill="none" stroke="#E30613" stroke-width="0.25" stroke-miterlimit="10" x1="50" y1="0" x2="50" y2="100"/>
		<circle fill="none" stroke="#E30613" stroke-width="0.25" stroke-miterlimit="10" cx="50" cy="50" r="46.9"/>
	</g>
</g>
<g id="Layer_3" display="none">
</g>
<g id="Layer_4" display="none">
	
		<rect x="3.1" y="3.1" display="inline" fill="none" stroke="#FFED00" stroke-width="0.375" stroke-miterlimit="10" width="93.8" height="93.8"/>
</g>
<g>
	<path fill="#353535" d="M92.7,25H73c0.7-0.7,1.2-1.5,1.7-2.3c1.7-3.1,1.7-6.7,0-9.8l-2.2-3.9c-1.7-3.4-5.3-5.5-9.1-5.5
		c-3.1,0-6.1,1.4-8.1,3.9L50,14.1l-0.5-0.3l-0.2-0.2l-4.8-6.2c-2-2.5-5-3.9-8.1-3.9c-3.8,0-7.2,2.2-9.1,5.5l-2.2,3.9
		c-1.6,3.1-1.6,6.7,0,9.8c0.4,0.9,1,1.7,1.7,2.3H7.3c-1.4,0-2.7,1.1-2.7,2.7v15c0,1.4,1.2,2.7,2.7,2.7h2v48.9c0,1.4,1.2,2.7,2.8,2.7
		h31.6h12.5h31.6c1.6,0,2.8-1.2,2.8-2.7V45.3h2c1.4,0,2.7-1.2,2.7-2.7v-15C95.3,26.2,94.1,25,92.7,25z M26.4,21.7
		c-1.4-2.5-1.4-5.6,0-8.3l2.2-3.9C30.2,6.7,33.1,5,36.4,5c2.7,0,5.2,1.2,6.9,3.4l5,6.4l0.2,0.2l0.8,0.9c0.2,0.2,0.3,0.3,0.6,0.3
		s0.5-0.2,0.6-0.3l5.9-7.5C58.1,6.2,60.6,5,63.3,5c3.3,0,6.2,1.7,7.8,4.5l2.2,3.9c1.4,2.5,1.4,5.6,0,8.3c-1.2,2.7-3.9,4.4-6.9,4.7
		L59.5,27c-0.3,0-0.6,0.2-0.6,0.5s0,0.6,0.2,0.8l5.5,7.2l-5.2,3.9l-8.8-11.6c-0.2-0.2-0.3-0.3-0.6-0.3s-0.5,0.2-0.6,0.3l-9.5,11.7
		l-5-4.1l5.3-7.2c0.2-0.2,0.3-0.5,0.2-0.8S40,27,39.7,27l-6.4-0.6C30.3,26.1,27.8,24.4,26.4,21.7z M6.2,42.7v-15
		c0-0.6,0.5-1.1,1.1-1.1h21.4c1.4,0.9,2.9,1.4,4.6,1.6l5,0.5L33,35.2c-0.2,0.2-0.2,0.5-0.2,0.6s0.2,0.3,0.3,0.5l6.2,5
		c0.2,0.2,0.3,0.2,0.5,0.2c0.3,0,0.6-0.2,0.6-0.3l3.3-4v6.7H7.3C6.7,43.8,6.2,43.3,6.2,42.7z M12.2,95.3c-0.6,0-1.2-0.5-1.2-1.1
		V45.3h32.8v50H12.2z M45.3,95.3V35.1l4.5-5.6l4.8,6.4v59.4H45.3z M89.1,94.2c0,0.6-0.5,1.1-1.1,1.1H56.2v-50h32.8V94.2z M93.8,42.7
		c0,0.6-0.5,1.1-1.1,1.1H56.2V38l2.2,2.9c0.2,0.2,0.3,0.3,0.5,0.3c0.3,0,0.5,0,0.6-0.2l6.4-4.8c0.3-0.3,0.5-0.8,0.2-1.1l-5-6.6
		l5.5-0.5c1.6-0.1,3.2-0.7,4.6-1.6h21.5c0.6,0,1.1,0.5,1.1,1.1V42.7z"/>
	<path fill="#353535" d="M55.9,22.3c0.2,0,0.2,0,0.3,0l7.3-0.9c1.7-0.2,3.3-1.1,4.1-2.7c0.8-1.4,0.8-3.3,0-4.8
		c-0.9-1.6-2.7-2.7-4.5-2.7c-1.6,0-3.1,0.8-4.1,2l-4.7,5.9c-0.5,0.6-0.5,1.4-0.2,2S55.2,22.3,55.9,22.3z M55.6,20.2l4.7-5.9
		c0.6-0.9,1.7-1.4,2.8-1.4c1.4,0,2.7,0.8,3.1,1.9c0.6,1.1,0.6,2.3,0,3.4s-1.6,1.7-2.8,1.9l-7.5,0.8c-0.2,0-0.3-0.2-0.3-0.2
		C55.5,20.5,55.5,20.3,55.6,20.2z"/>
	<path fill="#353535" d="M36.4,21.6l7.5,0.8h0.2c0.6,0,1.4-0.5,1.7-0.9c0.5-0.6,0.3-1.4-0.2-2l-4.7-5.9c-0.9-1.2-2.5-2-4.1-2
		c-1.9,0-3.6,0.9-4.5,2.7c-0.8,1.4-0.8,3.3,0,4.8C33.1,20.3,34.7,21.4,36.4,21.6z M33.8,14.7c0.6-1.2,1.7-1.9,3.1-1.9
		c1.1,0,2,0.5,2.8,1.4l4.7,5.9c0.2,0.2,0,0.3,0,0.5c0,0-0.2,0.2-0.3,0.2L36.6,20c-1.2-0.2-2.2-0.8-2.8-1.9S33.1,15.8,33.8,14.7z"/>
</g>
<g id="Text" display="none">
</g>
<g id="Pixel_grid" display="none">
</g>
<g id="Layer_5" display="none">
</g>
<g id="Layer_8" display="none">
</g>
</svg>
