<?xml version="1.0" encoding="utf-8"?>
<!-- Generator: Adobe Illustrator 18.1.1, SVG Export Plug-In . SVG Version: 6.00 Build 0)  -->
<!DOCTYPE svg PUBLIC "-//W3C//DTD SVG 1.1//EN" "http://www.w3.org/Graphics/SVG/1.1/DTD/svg11.dtd">
<svg version="1.1" id="Layer_1" xmlns="http://www.w3.org/2000/svg" xmlns:xlink="http://www.w3.org/1999/xlink" x="0px" y="0px"
	 viewBox="0 0 100 100" enable-background="new 0 0 100 100" xml:space="preserve">
<g id="Circle_Center" display="none">
	<g display="inline" opacity="0.5">
		<rect fill="none" stroke="#E30613" stroke-width="0.125" stroke-miterlimit="10" width="100" height="100"/>
		<line fill="none" stroke="#E30613" stroke-width="0.125" stroke-miterlimit="10" x1="0" y1="50" x2="100" y2="50"/>
		<line fill="none" stroke="#E30613" stroke-width="0.125" stroke-miterlimit="10" x1="50" y1="0" x2="50" y2="100"/>
		<circle fill="none" stroke="#E30613" stroke-width="0.125" stroke-miterlimit="10" cx="50" cy="50" r="46.9"/>
	</g>
</g>
<g id="Layer_3" display="none">
</g>
<g id="Layer_4" display="none">
	
		<rect x="3.1" y="3.1" display="inline" fill="none" stroke="#FFED00" stroke-width="0.1875" stroke-miterlimit="10" width="93.8" height="93.8"/>
</g>
<path fill="#353535" d="M93.4,21.9H74.1c1.1-0.9,2-2.1,2.8-3.4c1.9-3.1,1.9-6.9,0-10s-5-5-8.4-5.3c-3.8-0.3-7.2,1.2-9.4,4.1
	l-1.2,1.5c0,0,0,0,0,0l-0.7,0.9l-7.1,9L40.9,7.2c-2.2-2.8-5.9-4.4-9.4-4.1S25,5.3,23.1,8.8c-1.6,3.1-1.6,6.9,0,10
	c0.6,1.2,1.4,2.3,2.4,3.1h-19c-1.9,0-3.4,1.6-3.4,3.4v15c0,1.9,1.6,3.4,3.4,3.4h2.8v49.7c0,1.9,1.6,3.4,3.4,3.4h74.4
	c1.9,0,3.4-1.6,3.4-3.4V43.8h2.8c1.9,0,3.4-1.6,3.4-3.4v-15C96.9,23.4,95.3,21.9,93.4,21.9z M68.1,6.2c2.5,0,4.7,1.6,5.9,3.8
	s1.2,5,0,7.2c-1.2,2.5-3.4,3.8-5.9,4.1l-7.2,0.6h-8.5L52,21.3l7.7-9.8l1.9-2.4C63.1,7.2,65.6,5.9,68.1,6.2z M31.9,21.2
	c-2.5-0.3-4.7-1.9-5.9-4.1s-1.2-5,0-7.2s3.4-3.8,5.9-3.8c2.5-0.3,5,0.6,6.6,2.8l2.8,3.6c0,0.2,0.1,0.4,0.3,0.5l6.4,8.1l-0.5,0.6
	h-8.8L31.9,21.2z M6.2,40.3L6.6,25H45l-7.9,10c-0.6,0.6-0.3,1.6,0.3,2.2c0.3,0.3,0.6,0.3,0.9,0.3s0.9-0.3,1.2-0.6l8.8-11.1v14.9H6.6
	C6.2,40.6,6.2,40.6,6.2,40.3z M12.8,93.8c-0.3,0-0.3,0-0.3-0.3V43.8h35.9v50H12.8z M87.5,93.4c0,0.3,0,0.3-0.3,0.3H51.6v-50h35.9
	V93.4z M93.8,40.3c0,0.3,0,0.3-0.3,0.3H51.6V25.8l8.8,11.1c0.3,0.3,0.9,0.6,1.2,0.6s0.6-0.3,0.9-0.3c0.6-0.6,0.9-1.6,0.3-2.2
	l-7.9-10h38.5c0.3,0,0.3,0,0.3,0.3V40.3z"/>
<g id="Text" display="none">
</g>
<g id="Pixel_grid" display="none">
</g>
<g id="Layer_5" display="none">
</g>
<g id="Layer_8" display="none">
	<circle display="inline" fill="none" stroke="#E30613" stroke-width="0.1" stroke-miterlimit="10" cx="6.2" cy="25" r="3.1"/>
	<circle display="inline" fill="none" stroke="#E30613" stroke-width="0.1" stroke-miterlimit="10" cx="6.2" cy="40.6" r="3.1"/>
	<circle display="inline" fill="none" stroke="#E30613" stroke-width="0.1" stroke-miterlimit="10" cx="93.8" cy="25" r="3.1"/>
	<circle display="inline" fill="none" stroke="#E30613" stroke-width="0.1" stroke-miterlimit="10" cx="67.5" cy="13.8" r="10.6"/>
	<circle display="inline" fill="none" stroke="#E30613" stroke-width="0.1" stroke-miterlimit="10" cx="32.5" cy="13.8" r="10.6"/>
	<circle display="inline" fill="none" stroke="#E30613" stroke-width="0.1" stroke-miterlimit="10" cx="32.5" cy="13.8" r="7.5"/>
	<circle display="inline" fill="none" stroke="#E30613" stroke-width="0.1" stroke-miterlimit="10" cx="67.5" cy="13.8" r="7.5"/>
	<circle display="inline" fill="none" stroke="#E30613" stroke-width="0.1" stroke-miterlimit="10" cx="93.8" cy="40.6" r="3.1"/>
	<circle display="inline" fill="none" stroke="#E30613" stroke-width="0.1" stroke-miterlimit="10" cx="12.5" cy="93.8" r="3.1"/>
	<circle display="inline" fill="none" stroke="#E30613" stroke-width="0.1" stroke-miterlimit="10" cx="87.5" cy="93.8" r="3.1"/>
	
		<line display="inline" fill="none" stroke="#E30613" stroke-width="0.1" stroke-miterlimit="10" x1="9.4" y1="100" x2="9.4" y2="0"/>
	
		<line display="inline" fill="none" stroke="#E30613" stroke-width="0.1" stroke-miterlimit="10" x1="12.5" y1="100" x2="12.5" y2="0"/>
	<line display="inline" fill="none" stroke="#E30613" stroke-width="0.1" stroke-miterlimit="10" x1="0" y1="100" x2="0" y2="0"/>
	
		<line display="inline" fill="none" stroke="#E30613" stroke-width="0.1" stroke-miterlimit="10" x1="3.1" y1="100" x2="3.1" y2="0"/>
	
		<line display="inline" fill="none" stroke="#E30613" stroke-width="0.1" stroke-miterlimit="10" x1="96.9" y1="100" x2="96.9" y2="0"/>
	
		<line display="inline" fill="none" stroke="#E30613" stroke-width="0.1" stroke-miterlimit="10" x1="100" y1="100" x2="100" y2="0"/>
	
		<line display="inline" fill="none" stroke="#E30613" stroke-width="0.1" stroke-miterlimit="10" x1="48.4" y1="100" x2="48.4" y2="0"/>
	
		<line display="inline" fill="none" stroke="#E30613" stroke-width="0.1" stroke-miterlimit="10" x1="51.6" y1="100" x2="51.6" y2="0"/>
	
		<line display="inline" fill="none" stroke="#E30613" stroke-width="0.1" stroke-miterlimit="10" x1="87.5" y1="100" x2="87.5" y2="0"/>
	
		<line display="inline" fill="none" stroke="#E30613" stroke-width="0.1" stroke-miterlimit="10" x1="90.6" y1="100" x2="90.6" y2="0"/>
	
		<line display="inline" fill="none" stroke="#E30613" stroke-width="0.1" stroke-miterlimit="10" x1="100" y1="3.1" x2="0" y2="3.1"/>
	<line display="inline" fill="none" stroke="#E30613" stroke-width="0.1" stroke-miterlimit="10" x1="100" y1="0" x2="0" y2="0"/>
	
		<line display="inline" fill="none" stroke="#E30613" stroke-width="0.1" stroke-miterlimit="10" x1="65.9" y1="3.1" x2="3.1" y2="83.1"/>
	
		<line display="inline" fill="none" stroke="#E30613" stroke-width="0.1" stroke-miterlimit="10" x1="62.2" y1="3.1" x2="3.1" y2="78.1"/>
	
		<line display="inline" fill="none" stroke="#E30613" stroke-width="0.1" stroke-miterlimit="10" x1="33.8" y1="3.1" x2="96.9" y2="83.4"/>
	
		<line display="inline" fill="none" stroke="#E30613" stroke-width="0.1" stroke-miterlimit="10" x1="37.5" y1="3.1" x2="96.9" y2="78.4"/>
	<line display="inline" fill="none" stroke="#E30613" stroke-width="0.1" stroke-miterlimit="10" x1="100" y1="25" x2="0" y2="25"/>
	
		<line display="inline" fill="none" stroke="#E30613" stroke-width="0.1" stroke-miterlimit="10" x1="100" y1="21.9" x2="0" y2="21.9"/>
	
		<line display="inline" fill="none" stroke="#E30613" stroke-width="0.1" stroke-miterlimit="10" x1="100" y1="43.8" x2="0" y2="43.8"/>
	
		<line display="inline" fill="none" stroke="#E30613" stroke-width="0.1" stroke-miterlimit="10" x1="100" y1="40.6" x2="0" y2="40.6"/>
	
		<line display="inline" fill="none" stroke="#E30613" stroke-width="0.1" stroke-miterlimit="10" x1="100" y1="96.9" x2="0" y2="96.9"/>
	
		<line display="inline" fill="none" stroke="#E30613" stroke-width="0.1" stroke-miterlimit="10" x1="100" y1="93.8" x2="0" y2="93.8"/>
	
		<line display="inline" fill="none" stroke="#E30613" stroke-width="0.1" stroke-miterlimit="10" x1="100" y1="100" x2="0" y2="100"/>
	
		<line display="inline" fill="none" stroke="#E30613" stroke-width="0.1" stroke-miterlimit="10" x1="100" y1="96.9" x2="0" y2="96.9"/>
</g>
</svg>
