<?xml version="1.0" encoding="utf-8"?>
<!-- Generator: Adobe Illustrator 18.1.1, SVG Export Plug-In . SVG Version: 6.00 Build 0)  -->
<!DOCTYPE svg PUBLIC "-//W3C//DTD SVG 1.1//EN" "http://www.w3.org/Graphics/SVG/1.1/DTD/svg11.dtd">
<svg version="1.1" id="Layer_1" xmlns="http://www.w3.org/2000/svg" xmlns:xlink="http://www.w3.org/1999/xlink" x="0px" y="0px"
	 viewBox="0 0 100 100" enable-background="new 0 0 100 100" xml:space="preserve">
<g id="Circle_Center" display="none">
	<g display="inline" opacity="0.5">
		<rect fill="none" stroke="#E30613" stroke-width="0.125" stroke-miterlimit="10" width="100" height="100"/>
		<line fill="none" stroke="#E30613" stroke-width="0.125" stroke-miterlimit="10" x1="0" y1="50" x2="100" y2="50"/>
		<line fill="none" stroke="#E30613" stroke-width="0.125" stroke-miterlimit="10" x1="50" y1="0" x2="50" y2="100"/>
		<circle fill="none" stroke="#E30613" stroke-width="0.125" stroke-miterlimit="10" cx="50" cy="50" r="46.9"/>
	</g>
</g>
<g id="Layer_3" display="none">
</g>
<g id="Layer_4" display="none">
	
		<rect x="3.1" y="3.1" display="inline" fill="none" stroke="#FFED00" stroke-width="0.1875" stroke-miterlimit="10" width="93.8" height="93.8"/>
</g>
<g>
	<path fill="#353535" d="M93.4,31.2H6.6c-1.9,0-3.4,1.6-3.4,3.4v55.6c0,1.9,1.6,3.4,3.4,3.4h86.9c1.9,0,3.4-1.6,3.4-3.4V34.7
		C96.9,32.8,95.3,31.2,93.4,31.2z M6.5,43.8h87.2V50H6.5L6.5,43.8z M6.6,34.4h86.9c0.3,0,0.3,0,0.3,0.3v5.9H6.5L6.6,34.4
		C6.2,34.7,6.2,34.4,6.6,34.4z M93.4,90.6H6.6c-0.3,0-0.3,0-0.3-0.3l0.2-37.2h87.3v37.2C93.8,90.6,93.8,90.6,93.4,90.6z"/>
	<path fill="#353535" d="M45.3,62.5H14.1c-0.9,0-1.6,0.6-1.6,1.6s0.6,1.6,1.6,1.6h31.2c0.9,0,1.6-0.6,1.6-1.6S46.2,62.5,45.3,62.5z"
		/>
</g>
<g id="Text" display="none">
</g>
<g id="Pixel_grid" display="none">
</g>
<g id="Layer_5" display="none">
</g>
<g id="Layer_8" display="none">
</g>
</svg>
