<?xml version="1.0" encoding="utf-8"?>
<!-- Generator: Adobe Illustrator 18.1.1, SVG Export Plug-In . SVG Version: 6.00 Build 0)  -->
<!DOCTYPE svg PUBLIC "-//W3C//DTD SVG 1.1//EN" "http://www.w3.org/Graphics/SVG/1.1/DTD/svg11.dtd">
<svg version="1.1" id="Layer_1" xmlns="http://www.w3.org/2000/svg" xmlns:xlink="http://www.w3.org/1999/xlink" x="0px" y="0px"
	 viewBox="0 0 100 100" enable-background="new 0 0 100 100" xml:space="preserve">
<g id="Circle_Center" display="none">
	<g display="inline" opacity="0.5">
		<rect fill="none" stroke="#E30613" stroke-width="0.25" stroke-miterlimit="10" width="100" height="100"/>
		<line fill="none" stroke="#E30613" stroke-width="0.25" stroke-miterlimit="10" x1="0" y1="50" x2="100" y2="50"/>
		<line fill="none" stroke="#E30613" stroke-width="0.25" stroke-miterlimit="10" x1="50" y1="0" x2="50" y2="100"/>
		<circle fill="none" stroke="#E30613" stroke-width="0.25" stroke-miterlimit="10" cx="50" cy="50" r="46.9"/>
	</g>
</g>
<g id="Layer_3" display="none">
</g>
<g id="Layer_4" display="none">
	
		<rect x="3.1" y="3.1" display="inline" fill="none" stroke="#FFED00" stroke-width="0.375" stroke-miterlimit="10" width="93.8" height="93.8"/>
</g>
<g>
	<path fill="#353535" d="M94.4,34.4H5.8c-1.6,0-2.7,1.1-2.7,2.7v55.6c0,1.6,1.1,2.7,2.7,2.7h88.4c1.6,0,2.7-1.1,2.8-2.5V37
		C97,35.5,95.8,34.4,94.4,34.4z M4.7,45.3h90.8v7.8H4.7V45.3z M5.8,35.9h88.6c0.6,0,1.1,0.5,1.1,1.1v6.7H4.7V37
		C4.7,36.4,5.2,35.9,5.8,35.9z M94.4,93.8H5.8c-0.6,0-1.1-0.5-1.1-0.9V54.7h90.8v38C95.5,93.3,95,93.8,94.4,93.8z"/>
	<path fill="#353535" d="M84.8,62.5H73c-1.4,0-2.7,1.2-2.7,2.7v5.6c0,1.4,1.2,2.7,2.7,2.7h11.9c1.4,0,2.7-1.2,2.7-2.7v-5.6
		C87.5,63.8,86.2,62.5,84.8,62.5z M85.9,70.8c0,0.6-0.5,1.1-1.1,1.1H73c-0.6,0-1.1-0.5-1.1-1.1v-5.6c0-0.6,0.5-1.1,1.1-1.1h11.9
		c0.6,0,1.1,0.5,1.1,1.1V70.8z"/>
	<path fill="#353535" d="M63.3,78.1h-50c-0.5,0-0.8,0.3-0.8,0.8s0.3,0.8,0.8,0.8h50c0.5,0,0.8-0.3,0.8-0.8S63.8,78.1,63.3,78.1z"/>
	<path fill="#353535" d="M13.3,71.9h20.3c0.5,0,0.8-0.3,0.8-0.8s-0.3-0.8-0.8-0.8H13.3c-0.5,0-0.8,0.3-0.8,0.8S12.8,71.9,13.3,71.9z
		"/>
	<path fill="#353535" d="M13.3,64.1h20.3c0.5,0,0.8-0.3,0.8-0.8s-0.3-0.8-0.8-0.8H13.3c-0.5,0-0.8,0.3-0.8,0.8S12.8,64.1,13.3,64.1z
		"/>
</g>
<g id="Text" display="none">
</g>
<g id="Pixel_grid" display="none">
</g>
<g id="Layer_5" display="none">
</g>
<g id="Layer_8" display="none">
</g>
</svg>
