<?xml version="1.0" encoding="utf-8"?>
<!-- Generator: Adobe Illustrator 18.1.1, SVG Export Plug-In . SVG Version: 6.00 Build 0)  -->
<!DOCTYPE svg PUBLIC "-//W3C//DTD SVG 1.1//EN" "http://www.w3.org/Graphics/SVG/1.1/DTD/svg11.dtd">
<svg version="1.1" id="Layer_1" xmlns="http://www.w3.org/2000/svg" xmlns:xlink="http://www.w3.org/1999/xlink" x="0px" y="0px"
	 viewBox="0 0 100 100" enable-background="new 0 0 100 100" xml:space="preserve">
<g id="Circle_Center" display="none">
	<g display="inline" opacity="0.5">
		<rect fill="none" stroke="#E30613" stroke-width="0.125" stroke-miterlimit="10" width="100" height="100"/>
		<line fill="none" stroke="#E30613" stroke-width="0.125" stroke-miterlimit="10" x1="0" y1="50" x2="100" y2="50"/>
		<line fill="none" stroke="#E30613" stroke-width="0.125" stroke-miterlimit="10" x1="50" y1="0" x2="50" y2="100"/>
		<circle fill="none" stroke="#E30613" stroke-width="0.125" stroke-miterlimit="10" cx="50" cy="50" r="46.9"/>
	</g>
</g>
<g id="Layer_3" display="none">
</g>
<g id="Layer_4" display="none">
	
		<rect x="3.1" y="3.1" display="inline" fill="none" stroke="#FFED00" stroke-width="0.1875" stroke-miterlimit="10" width="93.8" height="93.8"/>
</g>
<g>
	<path fill="#353535" d="M96.2,62.8L90,52.2c-0.9-1.6-2.5-2.5-4.4-2.5H73.8c-0.7,0-1.3,0.1-1.9,0.4v-6c0-1.9-1.6-3.4-3.4-3.4H6.6
		c-1.9,0-3.4,1.6-3.4,3.4v43.1c0,1.9,1.6,3.4,3.4,3.4h9.6c1.2,3.7,4.7,6.2,8.9,6.2s7.6-2.6,8.9-6.2h0.5h25.9h3.6
		c1.2,3.7,4.7,6.2,8.9,6.2c4,0,7.5-2.6,8.8-6.2h10.2c2.8,0,5-2.5,5-5.3V65.6C96.9,64.7,96.9,63.8,96.2,62.8z M25,93.8
		c-3.4,0-6.2-2.8-6.2-6.2s2.8-6.2,6.2-6.2s6.2,2.8,6.2,6.2S28.4,93.8,25,93.8z M63.4,87.5h-3.1H34.4c0-5.3-4.1-9.4-9.4-9.4
		s-9.4,4.1-9.4,9.4H6.6c-0.3,0-0.3,0-0.3-0.3V44.1c0-0.3,0-0.3,0.3-0.3h61.9c0.3,0,0.3,0,0.3,0.3V55v23.1V79
		C65.6,80.5,63.4,83.7,63.4,87.5z M72.8,93.8c-3.4,0-6.2-2.8-6.2-6.2s2.8-6.2,6.2-6.2s6.2,2.8,6.2,6.2S76.2,93.8,72.8,93.8z
		 M93.8,85.3c0,1.2-0.9,2.2-1.9,2.2h-9.7c0-5.3-4.1-9.4-9.4-9.4c-0.3,0-0.6,0-0.9,0v0V55c0-1.2,0.9-2.2,1.9-2.2h11.9
		c0.6,0,1.2,0.3,1.6,0.9l6.2,10.6c0.3,0.3,0.3,0.9,0.3,1.2V85.3z"/>
	<circle fill="#353535" cx="81.2" cy="62.5" r="3.1"/>
</g>
<g id="Text" display="none">
</g>
<g id="Pixel_grid" display="none">
</g>
<g id="Layer_5" display="none">
</g>
<g id="Layer_8" display="none">
</g>
</svg>
