<?xml version="1.0" encoding="utf-8"?>
<!-- Generator: Adobe Illustrator 18.1.1, SVG Export Plug-In . SVG Version: 6.00 Build 0)  -->
<!DOCTYPE svg PUBLIC "-//W3C//DTD SVG 1.1//EN" "http://www.w3.org/Graphics/SVG/1.1/DTD/svg11.dtd">
<svg version="1.1" id="Layer_1" xmlns="http://www.w3.org/2000/svg" xmlns:xlink="http://www.w3.org/1999/xlink" x="0px" y="0px"
	 viewBox="0 0 100 100" enable-background="new 0 0 100 100" xml:space="preserve">
<g id="Circle_Center" display="none">
	<g display="inline" opacity="0.5">
		<rect fill="none" stroke="#E30613" stroke-width="0.25" stroke-miterlimit="10" width="100" height="100"/>
		<line fill="none" stroke="#E30613" stroke-width="0.25" stroke-miterlimit="10" x1="0" y1="50" x2="100" y2="50"/>
		<line fill="none" stroke="#E30613" stroke-width="0.25" stroke-miterlimit="10" x1="50" y1="0" x2="50" y2="100"/>
		<circle fill="none" stroke="#E30613" stroke-width="0.25" stroke-miterlimit="10" cx="50" cy="50" r="46.9"/>
	</g>
</g>
<g id="Layer_3" display="none">
</g>
<g id="Layer_4" display="none">
	
		<rect x="3.1" y="3.1" display="inline" fill="none" stroke="#FFED00" stroke-width="0.375" stroke-miterlimit="10" width="93.8" height="93.8"/>
</g>
<g>
	<path fill="#353535" d="M96.6,61.6l-7.3-11.9c-0.5-0.8-1.4-1.2-2.3-1.2H71.4c-0.3,0-0.6,0.1-0.9,0.2v-6.8c0-1.6-1.2-2.8-2.8-2.8
		H5.9c-1.6,0-2.8,1.2-2.8,2.8v42.8c0,1.6,1.2,2.8,2.8,2.8h9.7c0.4,5.3,4.8,9.4,10.1,9.4s9.7-4.1,10.1-9.4h0H60h4.1
		c0.4,5.3,4.8,9.4,10.1,9.4s9.7-4.1,10.1-9.4h9.9c1.4,0,2.7-1.2,2.8-2.7V63C97,62.5,96.9,62,96.6,61.6z M25.8,95.3
		c-4.7,0-8.6-3.9-8.6-8.6s3.9-8.6,8.6-8.6s8.6,3.9,8.6,8.6S30.5,95.3,25.8,95.3z M35.9,85.9L35.9,85.9c-0.4-5.3-4.8-9.4-10.2-9.4
		s-9.7,4.1-10.1,9.4H5.9c-0.8,0-1.2-0.5-1.2-1.1v-43c0-0.8,0.5-1.2,1.2-1.2h61.6c0.8,0,1.2,0.6,1.2,1.2v9.2v27.1
		c-2.6,1.7-4.4,4.5-4.6,7.8H60H35.9z M74.2,95.3c-4.7,0-8.6-3.9-8.6-8.6s3.9-8.6,8.6-8.6s8.6,3.9,8.6,8.6S78.9,95.3,74.2,95.3z
		 M95.3,84.8c0,0.6-0.5,1.1-1.1,1.1h-9.9c-0.4-5.3-4.8-9.4-10.1-9.4c-1.3,0-2.6,0.3-3.8,0.7V50.5c0.2-0.3,0.5-0.5,0.9-0.5h15.5
		c0.3,0,0.8,0.2,0.9,0.5l7.3,11.9c0.2,0.2,0.2,0.5,0.2,0.6V84.8z"/>
	<path fill="#353535" d="M87.2,62.8l-3.3-6.1c0-0.3-0.3-0.5-0.6-0.5h-5.9c-0.5,0-0.8,0.3-0.8,0.8v6.2c0,0.5,0.3,0.8,0.8,0.8h9.4
		c0.5,0,0.8-0.3,0.6-0.8C87.3,63.1,87.3,63,87.2,62.8z M78.1,62.5v-4.7h4.7l2.7,4.7H78.1z"/>
	<circle fill="#353535" cx="25.8" cy="86.7" r="3.9"/>
	<circle fill="#353535" cx="74.2" cy="86.7" r="3.9"/>
</g>
<g id="Text" display="none">
</g>
<g id="Pixel_grid" display="none">
</g>
<g id="Layer_5" display="none">
</g>
<g id="Layer_8" display="none">
</g>
</svg>
