<?xml version="1.0" encoding="utf-8"?>
<!-- Generator: Adobe Illustrator 18.1.1, SVG Export Plug-In . SVG Version: 6.00 Build 0)  -->
<!DOCTYPE svg PUBLIC "-//W3C//DTD SVG 1.1//EN" "http://www.w3.org/Graphics/SVG/1.1/DTD/svg11.dtd">
<svg version="1.1" xmlns="http://www.w3.org/2000/svg" xmlns:xlink="http://www.w3.org/1999/xlink" x="0px" y="0px"
	 viewBox="0 0 64 64" enable-background="new 0 0 64 64" xml:space="preserve">
<g id="Circle_Center" display="none">
</g>
<g id="Layer_3" display="none">
</g>
<g id="Layer_4" display="none">
</g>
<g id="Layer_1">
	<path fill="#353535" d="M32,62.1c-16.5,0-30-13.5-30-30s13.5-30,30-30s30,13.5,30,30S48.5,62.1,32,62.1z M32,3.1c-16,0-29,13-29,29
		s13,29,29,29s29-13,29-29S48,3.1,32,3.1z"/>
	<path fill="#353535" d="M53.4,32.5H10.6c-0.3,0-0.5-0.2-0.5-0.5s0.2-0.5,0.5-0.5h42.8c0.3,0,0.5,0.2,0.5,0.5S53.7,32.5,53.4,32.5z"
		/>
</g>
<g id="Text" display="none">
</g>
<g id="Pixel_grid" display="none">
</g>
<g id="Layer_5" display="none">
</g>
<g id="Layer_8" display="none">
</g>
</svg>
