<?xml version="1.0" encoding="utf-8"?>
<!-- Generator: Adobe Illustrator 18.1.1, SVG Export Plug-In . SVG Version: 6.00 Build 0)  -->
<!DOCTYPE svg PUBLIC "-//W3C//DTD SVG 1.1//EN" "http://www.w3.org/Graphics/SVG/1.1/DTD/svg11.dtd">
<svg version="1.1" xmlns="http://www.w3.org/2000/svg" xmlns:xlink="http://www.w3.org/1999/xlink" x="0px" y="0px"
	 viewBox="0 0 64 64" enable-background="new 0 0 64 64" xml:space="preserve">
<g id="Circle_Center" display="none">
	<g display="inline" opacity="0.5">
		<rect fill="none" stroke="#E30613" stroke-width="0.25" stroke-miterlimit="10" width="64" height="64"/>
		<line fill="none" stroke="#E30613" stroke-width="0.25" stroke-miterlimit="10" x1="0" y1="32" x2="64" y2="32"/>
		<line fill="none" stroke="#E30613" stroke-width="0.25" stroke-miterlimit="10" x1="32" y1="0" x2="32" y2="64"/>
		<circle fill="none" stroke="#E30613" stroke-width="0.25" stroke-miterlimit="10" cx="32" cy="32" r="30"/>
	</g>
</g>
<g id="Layer_3" display="none">
</g>
<g id="Layer_4" display="none">
	
		<rect x="2" y="2" display="inline" fill="none" stroke="#FFED00" stroke-width="0.375" stroke-miterlimit="10" width="60" height="60"/>
</g>
<g id="Layer_1">
	<path fill="#353535" d="M59.4,28c-0.9-0.9-1.9-1.8-2.1-2.7c-0.3-1,0.1-2.3,0.5-3.5c0.5-1.7,1-3.4,0.2-4.7c-0.8-1.3-2.5-1.8-4.2-2.2
		c-1.3-0.3-2.6-0.7-3.3-1.3c-0.7-0.7-1-2-1.3-3.3C48.8,8.5,48.3,6.8,47,6c-1.1-0.7-3-0.3-4.7,0.2c-1.3,0.4-2.7,0.7-3.5,0.5
		c-0.9-0.2-1.8-1.2-2.7-2.1C34.8,3.3,33.6,2,32,2s-2.8,1.3-4.1,2.6c-0.9,0.9-1.8,1.9-2.7,2.1c-0.9,0.2-2.3-0.1-3.5-0.5
		C20,5.8,18.1,5.4,17,6c-1.3,0.8-1.8,2.5-2.2,4.2c-0.3,1.3-0.7,2.6-1.3,3.3c-0.7,0.7-2,1-3.3,1.3C8.5,15.3,6.8,15.7,6,17
		c-0.8,1.3-0.3,3,0.2,4.7c0.4,1.3,0.7,2.6,0.5,3.5c-0.2,0.9-1.2,1.8-2.1,2.7C3.3,29.2,2,30.5,2,32s1.3,2.8,2.6,4.1
		c0.9,0.9,1.9,1.8,2.1,2.7c0.3,1-0.1,2.3-0.5,3.5C5.8,44,5.3,45.7,6,47c0.8,1.3,2.5,1.8,4.2,2.2c1.3,0.3,2.6,0.7,3.3,1.3
		c0.7,0.7,1,2,1.3,3.3c0.4,1.7,0.9,3.4,2.2,4.2c1.1,0.7,3,0.3,4.7-0.2c1.3-0.4,2.7-0.7,3.5-0.5c0.9,0.2,1.8,1.2,2.7,2.1
		c1.2,1.3,2.5,2.6,4.1,2.6s2.8-1.3,4.1-2.6c0.9-0.9,1.8-1.9,2.7-2.1c0.9-0.2,2.3,0.1,3.5,0.5c1.7,0.5,3.5,0.9,4.7,0.2
		c1.3-0.8,1.8-2.5,2.2-4.2c0.3-1.3,0.7-2.6,1.3-3.3c0.7-0.7,2-1,3.3-1.3c1.7-0.4,3.4-0.9,4.2-2.2c0.8-1.3,0.3-3-0.2-4.7
		c-0.4-1.3-0.7-2.6-0.5-3.5c0.2-0.9,1.2-1.8,2.1-2.7c1.3-1.2,2.6-2.5,2.6-4.1S60.7,29.2,59.4,28z M58.7,35.4c-1,1-2.1,2-2.4,3.2
		c-0.3,1.2,0.1,2.7,0.5,4.1c0.4,1.5,0.8,3,0.3,3.9c-0.6,1-2.1,1.3-3.6,1.7c-1.4,0.4-2.9,0.7-3.7,1.6s-1.2,2.3-1.6,3.7
		c-0.4,1.5-0.8,3-1.7,3.6c-0.8,0.5-2.4,0.1-3.9-0.3c-1.4-0.4-3-0.8-4.1-0.5c-1.2,0.3-2.2,1.4-3.2,2.4C34.3,59.9,33.1,61,32,61
		c-1.1,0-2.3-1.2-3.3-2.3c-1-1-2-2.1-3.2-2.4c-0.3-0.1-0.6-0.1-1-0.1c-1,0-2.1,0.3-3.1,0.6c-1.5,0.4-3.1,0.8-3.9,0.3
		c-1-0.6-1.3-2.1-1.7-3.6c-0.4-1.4-0.7-2.9-1.6-3.7s-2.3-1.2-3.7-1.6c-1.5-0.4-3-0.8-3.6-1.7c-0.5-0.9-0.1-2.4,0.3-3.9
		c0.4-1.4,0.8-2.9,0.5-4.1c-0.3-1.2-1.4-2.2-2.4-3.2C4.2,34.3,3,33.2,3,32c0-1.1,1.2-2.3,2.3-3.3c1-1,2.1-2,2.4-3.2
		c0.3-1.2-0.1-2.7-0.5-4.1c-0.4-1.5-0.8-3-0.3-3.9c0.6-1,2.1-1.3,3.6-1.7c1.4-0.4,2.9-0.7,3.7-1.6s1.2-2.3,1.6-3.7
		c0.4-1.5,0.8-3,1.7-3.6c0.8-0.5,2.4-0.1,3.9,0.3c1.4,0.4,3,0.8,4.1,0.5c1.2-0.3,2.2-1.4,3.2-2.4C29.7,4.2,30.9,3,32,3
		c1.1,0,2.3,1.2,3.3,2.3c1,1,2,2.1,3.2,2.4c1.1,0.3,2.7-0.1,4.1-0.5c1.5-0.4,3.1-0.8,3.9-0.3c1,0.6,1.3,2.1,1.7,3.6
		c0.4,1.4,0.7,2.9,1.6,3.7s2.3,1.2,3.7,1.6c1.5,0.4,3,0.8,3.6,1.7c0.5,0.9,0.1,2.4-0.3,3.9c-0.4,1.4-0.8,2.9-0.5,4.1
		c0.3,1.2,1.4,2.2,2.4,3.2c1.1,1.1,2.3,2.2,2.3,3.3C61,33.2,59.8,34.3,58.7,35.4z"/>
</g>
<g id="Text" display="none">
</g>
<g id="Pixel_grid" display="none">
</g>
<g id="Layer_5" display="none">
</g>
<g id="Layer_8" display="none">
</g>
</svg>
