<?xml version="1.0" encoding="utf-8"?>
<!-- Generator: Adobe Illustrator 18.1.1, SVG Export Plug-In . SVG Version: 6.00 Build 0)  -->
<!DOCTYPE svg PUBLIC "-//W3C//DTD SVG 1.1//EN" "http://www.w3.org/Graphics/SVG/1.1/DTD/svg11.dtd">
<svg version="1.1" xmlns="http://www.w3.org/2000/svg" xmlns:xlink="http://www.w3.org/1999/xlink" x="0px" y="0px"
	 viewBox="0 0 32 32" enable-background="new 0 0 32 32" xml:space="preserve">
<g id="Circle_Center" display="none">
	<g display="inline" opacity="0.5">
		<rect y="0" fill="none" stroke="#E30613" stroke-width="0.125" stroke-miterlimit="10" width="32" height="32"/>
		<line fill="none" stroke="#E30613" stroke-width="0.125" stroke-miterlimit="10" x1="0" y1="16" x2="32" y2="16"/>
		<line fill="none" stroke="#E30613" stroke-width="0.125" stroke-miterlimit="10" x1="16" y1="0" x2="16" y2="32"/>
		<circle fill="none" stroke="#E30613" stroke-width="0.125" stroke-miterlimit="10" cx="16" cy="16" r="15"/>
	</g>
</g>
<g id="Layer_3" display="none">
</g>
<g id="Layer_4" display="none">
	
		<rect x="1" y="1" display="inline" fill="none" stroke="#FFED00" stroke-width="0.1875" stroke-miterlimit="10" width="30" height="30"/>
</g>
<g id="Layer_1">
	<path fill="#353535" d="M29.3,12.7c-0.5-0.6-1-1.2-1.2-1.7c-0.3-0.6-0.3-1.4-0.4-2.2c-0.1-1.3-0.2-2.6-1.1-3.4
		c-0.9-0.9-2.2-1-3.4-1.1c-0.8-0.1-1.6-0.2-2.2-0.4c-0.6-0.2-1.1-0.7-1.7-1.2c-1-0.8-2-1.7-3.3-1.7s-2.3,0.9-3.3,1.7
		c-0.6,0.5-1.2,1-1.7,1.2c-0.6,0.3-1.4,0.3-2.2,0.4C7.6,4.4,6.3,4.5,5.4,5.4c-0.9,0.9-1,2.2-1.1,3.4C4.2,9.6,4.1,10.4,3.9,11
		c-0.2,0.6-0.7,1.1-1.2,1.7c-0.8,1-1.7,2-1.7,3.3s0.9,2.3,1.7,3.3c0.5,0.6,1,1.2,1.2,1.7c0.3,0.6,0.3,1.4,0.4,2.2
		c0.1,1.3,0.2,2.6,1.1,3.4c0.9,0.9,2.2,1,3.4,1.1c0.8,0.1,1.6,0.2,2.2,0.4c0.6,0.2,1.1,0.7,1.7,1.2c1,0.8,2,1.7,3.3,1.7
		s2.3-0.9,3.3-1.7c0.6-0.5,1.2-1,1.7-1.2c0.6-0.3,1.4-0.3,2.2-0.4c1.3-0.1,2.6-0.2,3.4-1.1c0.9-0.9,1-2.2,1.1-3.4
		c0.1-0.8,0.2-1.6,0.4-2.2c0.2-0.6,0.7-1.1,1.2-1.7c0.8-1,1.7-2,1.7-3.3S30.1,13.7,29.3,12.7z M28.6,18.7c-0.5,0.6-1.1,1.3-1.4,2
		c-0.3,0.7-0.4,1.6-0.5,2.4c-0.1,1.1-0.2,2.2-0.8,2.8c-0.6,0.6-1.7,0.7-2.8,0.8c-0.8,0.1-1.7,0.2-2.4,0.5c-0.7,0.3-1.4,0.8-2,1.4
		C17.8,29.3,16.9,30,16,30s-1.8-0.7-2.7-1.4c-0.6-0.5-1.3-1.1-2-1.4c-0.7-0.3-1.6-0.4-2.4-0.5c-1.1-0.1-2.2-0.2-2.8-0.8
		c-0.6-0.6-0.7-1.7-0.8-2.8c-0.1-0.8-0.2-1.7-0.5-2.4c-0.3-0.7-0.8-1.4-1.4-2C2.7,17.8,2,16.9,2,16s0.7-1.8,1.4-2.7
		c0.5-0.6,1.1-1.3,1.4-2c0.3-0.7,0.4-1.6,0.5-2.4c0.1-1.1,0.2-2.2,0.8-2.8c0.6-0.6,1.7-0.7,2.8-0.8c0.8-0.1,1.7-0.2,2.4-0.5
		c0.7-0.3,1.4-0.8,2-1.4C14.2,2.7,15.1,2,16,2s1.8,0.7,2.7,1.4c0.6,0.5,1.3,1.1,2,1.4c0.7,0.3,1.6,0.4,2.4,0.5
		c1.1,0.1,2.2,0.2,2.8,0.8c0.6,0.6,0.7,1.7,0.8,2.8c0.1,0.8,0.2,1.7,0.5,2.4c0.3,0.7,0.8,1.4,1.4,2c0.7,0.9,1.4,1.7,1.4,2.7
		S29.3,17.8,28.6,18.7z"/>
</g>
<g id="Text" display="none">
</g>
<g id="Pixel_grid" display="none">
</g>
<g id="Layer_5" display="none">
</g>
<g id="Layer_8" display="none">
</g>
</svg>
