<?xml version="1.0" encoding="utf-8"?>
<!-- Generator: Adobe Illustrator 18.1.1, SVG Export Plug-In . SVG Version: 6.00 Build 0)  -->
<!DOCTYPE svg PUBLIC "-//W3C//DTD SVG 1.1//EN" "http://www.w3.org/Graphics/SVG/1.1/DTD/svg11.dtd">
<svg version="1.1" id="Layer_1" xmlns="http://www.w3.org/2000/svg" xmlns:xlink="http://www.w3.org/1999/xlink" x="0px" y="0px"
	 viewBox="0 0 100 100" enable-background="new 0 0 100 100" xml:space="preserve">
<g id="Circle_Center" display="none">
	<g display="inline" opacity="0.5">
		<rect fill="none" stroke="#E30613" stroke-width="0.125" stroke-miterlimit="10" width="100" height="100"/>
		<line fill="none" stroke="#E30613" stroke-width="0.125" stroke-miterlimit="10" x1="0" y1="50" x2="100" y2="50"/>
		<line fill="none" stroke="#E30613" stroke-width="0.125" stroke-miterlimit="10" x1="50" y1="0" x2="50" y2="100"/>
		<circle fill="none" stroke="#E30613" stroke-width="0.125" stroke-miterlimit="10" cx="50" cy="50" r="46.9"/>
	</g>
</g>
<g id="Layer_3" display="none">
</g>
<g id="Layer_4" display="none">
	
		<rect x="3.1" y="3.1" display="inline" fill="none" stroke="#FFED00" stroke-width="0.1875" stroke-miterlimit="10" width="93.8" height="93.8"/>
</g>
<g>
	<path fill="#353535" d="M80.3,9.4H62.5V6.2c0-1.6-1.2-3.1-3.1-3.1H40.6c-1.6,0-3.1,1.2-3.1,3.1v3.1H19.7c-4.1,0-7.2,3.1-7.2,6.9
		v2.8c0,1.6,1.2,2.8,2.8,2.8h0.3v71.9c0,1.9,1.6,3.4,3.4,3.4h61.9c1.9,0,3.4-1.6,3.4-3.4V21.9h0.3c1.6,0,2.8-1.2,2.8-3.1v-2.5
		C87.5,12.5,84.4,9.4,80.3,9.4z M81.2,93.8c0,0.3,0,0.3-0.3,0.3H19.1c-0.3,0-0.3,0-0.3-0.3V22.2h62.5V93.8z M84.4,18.8H15.6v-2.5
		c0-1.9,1.9-3.8,4.1-3.8h20.9V6.2h18.8v6.2h20.9c2.2,0,4.1,1.9,4.1,3.8V18.8z"/>
	<path fill="#353535" d="M60.9,81.2c0.9,0,1.6-0.6,1.6-1.6V35.9c0-0.9-0.6-1.6-1.6-1.6s-1.6,0.6-1.6,1.6v43.8
		C59.4,80.6,60,81.2,60.9,81.2z"/>
	<path fill="#353535" d="M39.1,81.2c0.9,0,1.6-0.6,1.6-1.6V35.9c0-0.9-0.6-1.6-1.6-1.6s-1.6,0.6-1.6,1.6v43.8
		C37.5,80.6,38.1,81.2,39.1,81.2z"/>
</g>
<g id="Text" display="none">
</g>
<g id="Pixel_grid" display="none">
	
		<line display="inline" fill="none" stroke="#3EC11F" stroke-width="0.1" stroke-linecap="round" stroke-linejoin="round" stroke-miterlimit="10" x1="15.6" y1="0" x2="15.6" y2="100"/>
	
		<line display="inline" fill="none" stroke="#3EC11F" stroke-width="0.1" stroke-linecap="round" stroke-linejoin="round" stroke-miterlimit="10" x1="18.8" y1="0" x2="18.8" y2="100"/>
	
		<line display="inline" fill="none" stroke="#3EC11F" stroke-width="0.1" stroke-linecap="round" stroke-linejoin="round" stroke-miterlimit="10" x1="37.5" y1="0" x2="37.5" y2="100"/>
	
		<line display="inline" fill="none" stroke="#3EC11F" stroke-width="0.1" stroke-linecap="round" stroke-linejoin="round" stroke-miterlimit="10" x1="40.6" y1="0" x2="40.6" y2="100"/>
	
		<line display="inline" fill="none" stroke="#3EC11F" stroke-width="0.1" stroke-linecap="round" stroke-linejoin="round" stroke-miterlimit="10" x1="59.4" y1="0" x2="59.4" y2="100"/>
	
		<line display="inline" fill="none" stroke="#3EC11F" stroke-width="0.1" stroke-linecap="round" stroke-linejoin="round" stroke-miterlimit="10" x1="62.5" y1="0" x2="62.5" y2="100"/>
	
		<line display="inline" fill="none" stroke="#3EC11F" stroke-width="0.1" stroke-linecap="round" stroke-linejoin="round" stroke-miterlimit="10" x1="81.2" y1="0" x2="81.2" y2="100"/>
	
		<line display="inline" fill="none" stroke="#3EC11F" stroke-width="0.1" stroke-linecap="round" stroke-linejoin="round" stroke-miterlimit="10" x1="84.4" y1="0" x2="84.4" y2="100"/>
	
		<line display="inline" fill="none" stroke="#3EC11F" stroke-width="0.1" stroke-linecap="round" stroke-linejoin="round" stroke-miterlimit="10" x1="0" y1="96.9" x2="100" y2="96.9"/>
	
		<line display="inline" fill="none" stroke="#3EC11F" stroke-width="0.1" stroke-linecap="round" stroke-linejoin="round" stroke-miterlimit="10" x1="0" y1="93.8" x2="100" y2="93.8"/>
</g>
<g id="Layer_5" display="none">
</g>
<g id="Layer_8" display="none">
	<circle display="inline" fill="none" stroke="#E30613" stroke-width="0.1" stroke-miterlimit="10" cx="84.4" cy="18.8" r="3.1"/>
	<circle display="inline" fill="none" stroke="#E30613" stroke-width="0.1" stroke-miterlimit="10" cx="15.6" cy="18.8" r="3.1"/>
	<circle display="inline" fill="none" stroke="#E30613" stroke-width="0.1" stroke-miterlimit="10" cx="18.8" cy="15.6" r="6.2"/>
	<circle display="inline" fill="none" stroke="#E30613" stroke-width="0.1" stroke-miterlimit="10" cx="81.2" cy="15.6" r="6.2"/>
	<circle display="inline" fill="none" stroke="#E30613" stroke-width="0.1" stroke-miterlimit="10" cx="40.6" cy="6.2" r="3.1"/>
	<circle display="inline" fill="none" stroke="#E30613" stroke-width="0.1" stroke-miterlimit="10" cx="59.4" cy="6.2" r="3.1"/>
	<circle display="inline" fill="none" stroke="#E30613" stroke-width="0.1" stroke-miterlimit="10" cx="18.8" cy="93.8" r="3.1"/>
	<circle display="inline" fill="none" stroke="#E30613" stroke-width="0.1" stroke-miterlimit="10" cx="81.2" cy="93.8" r="3.1"/>
	
		<line display="inline" fill="none" stroke="#E30613" stroke-width="0.1" stroke-miterlimit="10" x1="15.6" y1="100" x2="15.6" y2="0"/>
	
		<line display="inline" fill="none" stroke="#E30613" stroke-width="0.1" stroke-miterlimit="10" x1="18.8" y1="100" x2="18.8" y2="0"/>
	
		<line display="inline" fill="none" stroke="#E30613" stroke-width="0.1" stroke-miterlimit="10" x1="37.5" y1="100" x2="37.5" y2="0"/>
	
		<line display="inline" fill="none" stroke="#E30613" stroke-width="0.1" stroke-miterlimit="10" x1="40.6" y1="100" x2="40.6" y2="0"/>
	<line display="inline" fill="none" stroke="#E30613" stroke-width="0.1" stroke-miterlimit="10" x1="0" y1="100" x2="0" y2="0"/>
	
		<line display="inline" fill="none" stroke="#E30613" stroke-width="0.1" stroke-miterlimit="10" x1="3.1" y1="100" x2="3.1" y2="0"/>
	
		<line display="inline" fill="none" stroke="#E30613" stroke-width="0.1" stroke-miterlimit="10" x1="100" y1="100" x2="100" y2="0"/>
	
		<line display="inline" fill="none" stroke="#E30613" stroke-width="0.1" stroke-miterlimit="10" x1="59.4" y1="100" x2="59.4" y2="0"/>
	
		<line display="inline" fill="none" stroke="#E30613" stroke-width="0.1" stroke-miterlimit="10" x1="62.5" y1="100" x2="62.5" y2="0"/>
	
		<line display="inline" fill="none" stroke="#E30613" stroke-width="0.1" stroke-miterlimit="10" x1="81.2" y1="100" x2="81.2" y2="0"/>
	
		<line display="inline" fill="none" stroke="#E30613" stroke-width="0.1" stroke-miterlimit="10" x1="84.4" y1="100" x2="84.4" y2="0"/>
	
		<line display="inline" fill="none" stroke="#E30613" stroke-width="0.1" stroke-miterlimit="10" x1="87.5" y1="100" x2="87.5" y2="0"/>
	
		<line display="inline" fill="none" stroke="#E30613" stroke-width="0.1" stroke-miterlimit="10" x1="12.5" y1="100" x2="12.5" y2="0"/>
	
		<line display="inline" fill="none" stroke="#E30613" stroke-width="0.1" stroke-miterlimit="10" x1="100" y1="3.1" x2="0" y2="3.1"/>
	<line display="inline" fill="none" stroke="#E30613" stroke-width="0.1" stroke-miterlimit="10" x1="100" y1="0" x2="0" y2="0"/>
	
		<line display="inline" fill="none" stroke="#E30613" stroke-width="0.1" stroke-miterlimit="10" x1="100" y1="21.9" x2="0" y2="21.9"/>
	
		<line display="inline" fill="none" stroke="#E30613" stroke-width="0.1" stroke-miterlimit="10" x1="100" y1="18.8" x2="0" y2="18.8"/>
	
		<line display="inline" fill="none" stroke="#E30613" stroke-width="0.1" stroke-miterlimit="10" x1="100" y1="12.5" x2="0" y2="12.5"/>
	
		<line display="inline" fill="none" stroke="#E30613" stroke-width="0.1" stroke-miterlimit="10" x1="100" y1="9.4" x2="0" y2="9.4"/>
	
		<line display="inline" fill="none" stroke="#E30613" stroke-width="0.1" stroke-miterlimit="10" x1="100" y1="6.2" x2="0" y2="6.2"/>
	
		<line display="inline" fill="none" stroke="#E30613" stroke-width="0.1" stroke-miterlimit="10" x1="100" y1="3.1" x2="0" y2="3.1"/>
	
		<line display="inline" fill="none" stroke="#E30613" stroke-width="0.1" stroke-miterlimit="10" x1="100" y1="34.4" x2="0" y2="34.4"/>
	
		<line display="inline" fill="none" stroke="#E30613" stroke-width="0.1" stroke-miterlimit="10" x1="100" y1="81.2" x2="0" y2="81.2"/>
	
		<line display="inline" fill="none" stroke="#E30613" stroke-width="0.1" stroke-miterlimit="10" x1="100" y1="96.9" x2="0" y2="96.9"/>
	
		<line display="inline" fill="none" stroke="#E30613" stroke-width="0.1" stroke-miterlimit="10" x1="100" y1="93.8" x2="0" y2="93.8"/>
	
		<line display="inline" fill="none" stroke="#E30613" stroke-width="0.1" stroke-miterlimit="10" x1="100" y1="100" x2="0" y2="100"/>
	
		<line display="inline" fill="none" stroke="#E30613" stroke-width="0.1" stroke-miterlimit="10" x1="100" y1="96.9" x2="0" y2="96.9"/>
</g>
</svg>
