<?xml version="1.0" encoding="utf-8"?>
<!-- Generator: Adobe Illustrator 18.1.1, SVG Export Plug-In . SVG Version: 6.00 Build 0)  -->
<!DOCTYPE svg PUBLIC "-//W3C//DTD SVG 1.1//EN" "http://www.w3.org/Graphics/SVG/1.1/DTD/svg11.dtd">
<svg version="1.1" id="Layer_1" xmlns="http://www.w3.org/2000/svg" xmlns:xlink="http://www.w3.org/1999/xlink" x="0px" y="0px"
	 viewBox="0 0 100 100" enable-background="new 0 0 100 100" xml:space="preserve">
<g id="Circle_Center" display="none">
	<g display="inline" opacity="0.5">
		<rect fill="none" stroke="#E30613" stroke-width="0.25" stroke-miterlimit="10" width="100" height="100"/>
		<line fill="none" stroke="#E30613" stroke-width="0.25" stroke-miterlimit="10" x1="0" y1="50" x2="100" y2="50"/>
		<line fill="none" stroke="#E30613" stroke-width="0.25" stroke-miterlimit="10" x1="50" y1="0" x2="50" y2="100"/>
		<circle fill="none" stroke="#E30613" stroke-width="0.25" stroke-miterlimit="10" cx="50" cy="50" r="46.9"/>
	</g>
</g>
<g id="Layer_3" display="none">
</g>
<g id="Layer_4" display="none">
	
		<rect x="3.1" y="3.1" display="inline" fill="none" stroke="#FFED00" stroke-width="0.375" stroke-miterlimit="10" width="93.8" height="93.8"/>
</g>
<g>
	<path fill="#353535" d="M81.6,9.4H60.9V5.6c0-1.4-1.1-2.5-2.5-2.5H41.6c-1.4,0-2.5,1.1-2.5,2.5v3.8H18.4c-3.4,0-6.2,2.8-6.4,6.4
		v2.3c0,1.2,0.9,2.1,2,2.2v73.9c0,1.6,1.1,2.7,2.7,2.7h66.6c1.4,0,2.7-1.1,2.7-2.7V20.3c1-0.1,1.9-1,2-2.2v-2.3
		C88,12.2,85,9.4,81.6,9.4z M40.6,5.6c0-0.5,0.5-0.9,0.9-0.9h16.9c0.5,0,0.9,0.5,0.9,0.9v3.8H40.6V5.6z M84.4,94.2
		c0,0.6-0.5,1.1-1.1,1.1H16.7c-0.6,0-1.1-0.5-1.1-1.1V20.6h68.8V94.2z M86.2,18.1c0,0.3-0.3,0.6-0.6,0.6H14.2
		c-0.3,0-0.6-0.3-0.6-0.6v-2.3c0-2.7,2.2-4.8,4.8-4.8h63c2.7,0,4.8,2.2,4.8,4.8V18.1z"/>
	<path fill="#353535" d="M49.7,31.2c-2.3,0-4.4,1.9-4.4,4.4V80c0,2.3,1.9,4.4,4.4,4.4h0.6c2.3,0,4.4-2,4.4-4.4V35.6
		c0-2.3-1.9-4.4-4.4-4.4H49.7z M53.1,35.6V80c0,1.6-1.2,2.8-2.8,2.8h-0.6c-1.6,0-2.8-1.2-2.8-2.8V35.6c0-1.6,1.2-2.8,2.8-2.8h0.6
		C51.9,32.8,53.1,34.1,53.1,35.6z"/>
	<path fill="#353535" d="M68.3,31.2c-2.3,0-4.4,1.9-4.4,4.4V80c0,2.3,1.9,4.4,4.4,4.4h0.6c2.5,0,4.4-2,4.4-4.4V35.6
		c0-2.3-1.9-4.4-4.4-4.4H68.3z M71.7,35.6V80c0,1.6-1.2,2.8-2.8,2.8h-0.6c-1.6,0-2.8-1.2-2.8-2.8V35.6c0-1.6,1.2-2.8,2.8-2.8h0.6
		C70.5,32.8,71.7,34.1,71.7,35.6z"/>
	<path fill="#353535" d="M30.8,31.2c-2.3,0-4.4,1.9-4.4,4.4V80c0,2.3,1.9,4.4,4.4,4.4h0.6c2.3,0,4.4-2,4.4-4.4V35.6
		c0-2.3-1.9-4.4-4.4-4.4H30.8z M34.2,35.6V80c0,1.6-1.2,2.8-2.8,2.8h-0.6c-1.6,0-2.8-1.2-2.8-2.8V35.6c0-1.6,1.2-2.8,2.8-2.8h0.6
		C33,32.8,34.2,34.1,34.2,35.6z"/>
	<path fill="#353535" d="M23.1,26.6h53.8c0.5,0,0.9-0.3,0.9-0.8S77.5,25,77,25H23.1c-0.5,0-0.8,0.3-0.8,0.8S22.7,26.6,23.1,26.6z"/>
	<path fill="#353535" d="M23.1,90.6h53.8c0.5,0,0.9-0.3,0.9-0.8s-0.3-0.8-0.8-0.8H23.1c-0.5,0-0.8,0.3-0.8,0.8S22.7,90.6,23.1,90.6z
		"/>
</g>
<g id="Text" display="none">
</g>
<g id="Pixel_grid" display="none">
</g>
<g id="Layer_5" display="none">
	<path display="inline" fill="none" stroke="#3AAA35" stroke-width="0.375" stroke-miterlimit="10" d="M13,16.1L13,16.1
		c0-3.3,2.7-5.9,5.8-5.9l0,0c3.3,0,5.8,2.7,5.8,5.8l0,0c0,3.3-2.7,5.8-5.8,5.8l0,0C15.5,21.9,13,19.2,13,16.1z"/>
	<path display="inline" fill="none" stroke="#3AAA35" stroke-width="0.375" stroke-miterlimit="10" d="M75.3,16.1L75.3,16.1
		c0-3.3,2.7-5.9,5.8-5.9l0,0c3.3,0,5.8,2.7,5.8,5.8l0,0c0,3.3-2.7,5.8-5.8,5.8l0,0C78,21.9,75.3,19.2,75.3,16.1z"/>
</g>
<g id="Layer_8" display="none">
</g>
</svg>
