<?xml version="1.0" encoding="utf-8"?>
<!-- Generator: Adobe Illustrator 18.1.1, SVG Export Plug-In . SVG Version: 6.00 Build 0)  -->
<!DOCTYPE svg PUBLIC "-//W3C//DTD SVG 1.1//EN" "http://www.w3.org/Graphics/SVG/1.1/DTD/svg11.dtd">
<svg version="1.1" id="Layer_1" xmlns="http://www.w3.org/2000/svg" xmlns:xlink="http://www.w3.org/1999/xlink" x="0px" y="0px"
	 viewBox="0 0 100 100" enable-background="new 0 0 100 100" xml:space="preserve">
<g id="Circle_Center" display="none">
	
		<rect display="inline" fill="none" stroke="#E30613" stroke-width="6.250000e-02" stroke-miterlimit="10" width="100" height="100"/>
	
		<line display="inline" fill="none" stroke="#E30613" stroke-width="6.250000e-02" stroke-miterlimit="10" x1="0" y1="50" x2="100" y2="50"/>
	
		<line display="inline" fill="none" stroke="#E30613" stroke-width="6.250000e-02" stroke-miterlimit="10" x1="50" y1="0" x2="50" y2="100"/>
	
		<circle display="inline" fill="none" stroke="#E30613" stroke-width="6.666666e-02" stroke-miterlimit="10" cx="50" cy="50" r="50"/>
</g>
<g id="Layer_3" display="none">
</g>
<g id="Layer_4" display="none">
	<rect display="inline" fill="none" stroke="#FFED00" stroke-width="0.1" stroke-miterlimit="10" width="100" height="100"/>
</g>
<g>
	<path fill="#353535" d="M12.5,95c0,2.5,2.5,5,5,5h65c2.5,0,5-2.5,5-5V18.8h-75V95z M18.8,25h62.5v68.8H18.8V25z"/>
	<path fill="#353535" d="M87.5,6.2h-25V5.6c0-3.1-1.9-5.6-4.4-5.6H42.5c-3.1,0-5,2.5-5,5.6v0.6h-25c-1.9,0-3.1,1.2-3.1,3.1
		s1.2,3.1,3.1,3.1h75c1.9,0,3.1-1.2,3.1-3.1S89.4,6.2,87.5,6.2z"/>
</g>
<g id="Text" display="none">
</g>
<g id="Pixel_grid" display="none">
	<g display="inline">
		
			<rect fill="none" stroke="#3EC11F" stroke-width="0.1" stroke-linecap="round" stroke-linejoin="round" stroke-miterlimit="10" width="100" height="100"/>
		
			<line fill="none" stroke="#3EC11F" stroke-width="0.1" stroke-linecap="round" stroke-linejoin="round" stroke-miterlimit="10" x1="0" y1="6.2" x2="100" y2="6.2"/>
		
			<line fill="none" stroke="#3EC11F" stroke-width="0.1" stroke-linecap="round" stroke-linejoin="round" stroke-miterlimit="10" x1="0" y1="12.5" x2="100" y2="12.5"/>
		
			<line fill="none" stroke="#3EC11F" stroke-width="0.1" stroke-linecap="round" stroke-linejoin="round" stroke-miterlimit="10" x1="0" y1="18.8" x2="100" y2="18.8"/>
		
			<line fill="none" stroke="#3EC11F" stroke-width="0.1" stroke-linecap="round" stroke-linejoin="round" stroke-miterlimit="10" x1="0" y1="25" x2="100" y2="25"/>
		
			<line fill="none" stroke="#3EC11F" stroke-width="0.1" stroke-linecap="round" stroke-linejoin="round" stroke-miterlimit="10" x1="0" y1="31.2" x2="100" y2="31.2"/>
		
			<line fill="none" stroke="#3EC11F" stroke-width="0.1" stroke-linecap="round" stroke-linejoin="round" stroke-miterlimit="10" x1="0" y1="37.5" x2="100" y2="37.5"/>
		
			<line fill="none" stroke="#3EC11F" stroke-width="0.1" stroke-linecap="round" stroke-linejoin="round" stroke-miterlimit="10" x1="0" y1="43.8" x2="100" y2="43.8"/>
		
			<line fill="none" stroke="#3EC11F" stroke-width="0.1" stroke-linecap="round" stroke-linejoin="round" stroke-miterlimit="10" x1="0" y1="50" x2="100" y2="50"/>
		
			<line fill="none" stroke="#3EC11F" stroke-width="0.1" stroke-linecap="round" stroke-linejoin="round" stroke-miterlimit="10" x1="0" y1="56.2" x2="100" y2="56.2"/>
		
			<line fill="none" stroke="#3EC11F" stroke-width="0.1" stroke-linecap="round" stroke-linejoin="round" stroke-miterlimit="10" x1="0" y1="62.5" x2="100" y2="62.5"/>
		
			<line fill="none" stroke="#3EC11F" stroke-width="0.1" stroke-linecap="round" stroke-linejoin="round" stroke-miterlimit="10" x1="0" y1="68.8" x2="100" y2="68.8"/>
		
			<line fill="none" stroke="#3EC11F" stroke-width="0.1" stroke-linecap="round" stroke-linejoin="round" stroke-miterlimit="10" x1="0" y1="75" x2="100" y2="75"/>
		
			<line fill="none" stroke="#3EC11F" stroke-width="0.1" stroke-linecap="round" stroke-linejoin="round" stroke-miterlimit="10" x1="0" y1="81.2" x2="100" y2="81.2"/>
		
			<line fill="none" stroke="#3EC11F" stroke-width="0.1" stroke-linecap="round" stroke-linejoin="round" stroke-miterlimit="10" x1="0" y1="87.5" x2="100" y2="87.5"/>
		
			<line fill="none" stroke="#3EC11F" stroke-width="0.1" stroke-linecap="round" stroke-linejoin="round" stroke-miterlimit="10" x1="0" y1="93.8" x2="100" y2="93.8"/>
		
			<line fill="none" stroke="#3EC11F" stroke-width="0.1" stroke-linecap="round" stroke-linejoin="round" stroke-miterlimit="10" x1="93.8" y1="0" x2="93.8" y2="100"/>
		
			<line fill="none" stroke="#3EC11F" stroke-width="0.1" stroke-linecap="round" stroke-linejoin="round" stroke-miterlimit="10" x1="87.5" y1="0" x2="87.5" y2="100"/>
		
			<line fill="none" stroke="#3EC11F" stroke-width="0.1" stroke-linecap="round" stroke-linejoin="round" stroke-miterlimit="10" x1="81.2" y1="0" x2="81.2" y2="100"/>
		
			<line fill="none" stroke="#3EC11F" stroke-width="0.1" stroke-linecap="round" stroke-linejoin="round" stroke-miterlimit="10" x1="75" y1="0" x2="75" y2="100"/>
		
			<line fill="none" stroke="#3EC11F" stroke-width="0.1" stroke-linecap="round" stroke-linejoin="round" stroke-miterlimit="10" x1="68.8" y1="0" x2="68.8" y2="100"/>
		
			<line fill="none" stroke="#3EC11F" stroke-width="0.1" stroke-linecap="round" stroke-linejoin="round" stroke-miterlimit="10" x1="62.5" y1="0" x2="62.5" y2="100"/>
		
			<line fill="none" stroke="#3EC11F" stroke-width="0.1" stroke-linecap="round" stroke-linejoin="round" stroke-miterlimit="10" x1="56.2" y1="0" x2="56.2" y2="100"/>
		
			<line fill="none" stroke="#3EC11F" stroke-width="0.1" stroke-linecap="round" stroke-linejoin="round" stroke-miterlimit="10" x1="50" y1="0" x2="50" y2="100"/>
		
			<line fill="none" stroke="#3EC11F" stroke-width="0.1" stroke-linecap="round" stroke-linejoin="round" stroke-miterlimit="10" x1="43.8" y1="0" x2="43.8" y2="100"/>
		
			<line fill="none" stroke="#3EC11F" stroke-width="0.1" stroke-linecap="round" stroke-linejoin="round" stroke-miterlimit="10" x1="37.5" y1="0" x2="37.5" y2="100"/>
		
			<line fill="none" stroke="#3EC11F" stroke-width="0.1" stroke-linecap="round" stroke-linejoin="round" stroke-miterlimit="10" x1="31.2" y1="0" x2="31.2" y2="100"/>
		
			<line fill="none" stroke="#3EC11F" stroke-width="0.1" stroke-linecap="round" stroke-linejoin="round" stroke-miterlimit="10" x1="25" y1="0" x2="25" y2="100"/>
		
			<line fill="none" stroke="#3EC11F" stroke-width="0.1" stroke-linecap="round" stroke-linejoin="round" stroke-miterlimit="10" x1="18.8" y1="0" x2="18.8" y2="100"/>
		
			<line fill="none" stroke="#3EC11F" stroke-width="0.1" stroke-linecap="round" stroke-linejoin="round" stroke-miterlimit="10" x1="12.5" y1="0" x2="12.5" y2="100"/>
		
			<line fill="none" stroke="#3EC11F" stroke-width="0.1" stroke-linecap="round" stroke-linejoin="round" stroke-miterlimit="10" x1="6.2" y1="0" x2="6.2" y2="100"/>
	</g>
</g>
<g id="Layer_5" display="none">
</g>
<g id="Layer_8" display="none">
</g>
</svg>
