<?xml version="1.0" encoding="utf-8"?>
<!-- Generator: Adobe Illustrator 18.1.1, SVG Export Plug-In . SVG Version: 6.00 Build 0)  -->
<!DOCTYPE svg PUBLIC "-//W3C//DTD SVG 1.1//EN" "http://www.w3.org/Graphics/SVG/1.1/DTD/svg11.dtd">
<svg version="1.1" id="Layer_1" xmlns="http://www.w3.org/2000/svg" xmlns:xlink="http://www.w3.org/1999/xlink" x="0px" y="0px"
	 viewBox="0 0 100 100" enable-background="new 0 0 100 100" xml:space="preserve">
<g id="Circle_Center" display="none">
	
		<rect display="inline" fill="none" stroke="#E30613" stroke-width="6.250000e-02" stroke-miterlimit="10" width="100" height="100"/>
	
		<line display="inline" fill="none" stroke="#E30613" stroke-width="6.250000e-02" stroke-miterlimit="10" x1="0" y1="50" x2="100" y2="50"/>
	
		<line display="inline" fill="none" stroke="#E30613" stroke-width="6.250000e-02" stroke-miterlimit="10" x1="50" y1="0" x2="50" y2="100"/>
	
		<circle display="inline" fill="none" stroke="#E30613" stroke-width="6.666666e-02" stroke-miterlimit="10" cx="50" cy="50" r="50"/>
</g>
<g id="Layer_3" display="none">
</g>
<g id="Layer_4" display="none">
	<rect display="inline" fill="none" stroke="#FFED00" stroke-width="0.1" stroke-miterlimit="10" width="100" height="100"/>
</g>
<g>
	<path fill="#353535" d="M34.4,31.2h12.5v12.5c0,1.9,1.2,3.1,3.1,3.1s3.1-1.2,3.1-3.1V31.2h12.5c1.9,0,3.1-1.2,3.1-3.1
		S67.5,25,65.6,25H53.1V12.5c0-1.9-1.2-3.1-3.1-3.1s-3.1,1.2-3.1,3.1V25H34.4c-1.9,0-3.1,1.2-3.1,3.1S32.5,31.2,34.4,31.2z"/>
	<path fill="#353535" d="M98.1,26.9c-0.6-1.2-1.9-1.9-3.8-1.9H83.1c-1.2,0-3.1,1.2-3.1,3.1s1.2,3.1,3.1,3.1h10l-9.4,37.5H28.1
		l-3-13.7c0.1-0.4,0-0.8-0.1-1.3l-10.6-45c-0.6-1.2-1.9-2.5-3.1-2.5H3.1C1.2,6.2,0,7.5,0,9.4s1.2,3.1,3.1,3.1h5.6l10,43.1
		c0.1,0.1,0.1,0.2,0.2,0.4l3.6,14.6c0.6,2.5,2.5,4.4,5,4.4H85c2.5,0,4.4-1.9,5-3.8l10-40C100,30,98.8,28.1,98.1,26.9z"/>
	<circle fill="#353535" cx="31.2" cy="87.5" r="6.2"/>
	<circle fill="#353535" cx="75" cy="87.5" r="6.2"/>
</g>
<g id="Text" display="none">
</g>
<g id="Pixel_grid" display="none">
</g>
<g id="Layer_5" display="none">
</g>
<g id="Layer_8" display="none">
</g>
</svg>
