<?xml version="1.0" encoding="utf-8"?>
<!-- Generator: Adobe Illustrator 18.1.1, SVG Export Plug-In . SVG Version: 6.00 Build 0)  -->
<!DOCTYPE svg PUBLIC "-//W3C//DTD SVG 1.1//EN" "http://www.w3.org/Graphics/SVG/1.1/DTD/svg11.dtd">
<svg version="1.1" id="Layer_1" xmlns="http://www.w3.org/2000/svg" xmlns:xlink="http://www.w3.org/1999/xlink" x="0px" y="0px"
	 viewBox="0 0 100 100" enable-background="new 0 0 100 100" xml:space="preserve">
<g id="Circle_Center" display="none">
	<g display="inline" opacity="0.5">
		<rect fill="none" stroke="#E30613" stroke-width="0.25" stroke-miterlimit="10" width="100" height="100"/>
		<line fill="none" stroke="#E30613" stroke-width="0.25" stroke-miterlimit="10" x1="0" y1="50" x2="100" y2="50"/>
		<line fill="none" stroke="#E30613" stroke-width="0.25" stroke-miterlimit="10" x1="50" y1="0" x2="50" y2="100"/>
		<circle fill="none" stroke="#E30613" stroke-width="0.25" stroke-miterlimit="10" cx="50" cy="50" r="46.9"/>
	</g>
</g>
<g id="Layer_3" display="none">
</g>
<g id="Layer_4" display="none">
	
		<rect x="3.1" y="3.1" display="inline" fill="none" stroke="#FFED00" stroke-width="0.375" stroke-miterlimit="10" width="93.8" height="93.8"/>
</g>
<g>
	<path fill="#353535" d="M95.3,87.3L74,66.2c3.6-5.8,5.7-12.7,5.7-20.1C79.7,25,62.5,7.8,41.4,7.8S3.1,25,3.1,46.1
		s17.2,38.3,38.3,38.3c9.8,0,18.7-3.7,25.4-9.7l20.5,20.7c1.1,1.1,2.5,1.6,3.9,1.6c1.6,0,3-0.5,4.1-1.7c0.9-1.1,1.6-2.3,1.6-3.9
		C96.9,89.8,96.4,88.4,95.3,87.3z M4.7,46.1c0-20.3,16.4-36.7,36.7-36.7s36.7,16.4,36.7,36.7S61.7,82.8,41.4,82.8S4.7,66.4,4.7,46.1
		z M94.2,94.2c-1.6,1.6-4.1,1.6-5.6,0L68,73.6c1.9-1.9,3.6-3.9,5.1-6.1l20.9,21.1c0.8,0.8,1.2,1.7,1.2,2.8S95,93.4,94.2,94.2z"/>
	<path fill="#353535" d="M41.4,15.9c-16.6,0-30.2,13.6-30.2,30.2s13.4,30.2,30.2,30.2s30.2-13.6,30.2-30.2S58,15.9,41.4,15.9z
		 M41.4,74.7c-15.8,0-28.6-12.8-28.6-28.6s12.8-28.6,28.6-28.6S70,30.3,70,46.1S57.2,74.7,41.4,74.7z"/>
	<path fill="#353535" d="M41.4,22.5c-4.4,0-8.6,1.2-12.2,3.4c-0.5,0.3-0.5,0.8-0.3,1.1c0.3,0.5,0.8,0.5,1.1,0.3
		c3.4-2,7.3-3.1,11.4-3.1c7,0,13.8,3.3,17.8,9.1c0.2,0.2,0.3,0.3,0.6,0.3c0.2,0,0.3,0,0.5-0.3c0.3-0.3,0.5-0.8,0.2-1.1
		C56.1,26.1,48.9,22.5,41.4,22.5z"/>
</g>
<g id="Text" display="none">
</g>
<g id="Pixel_grid" display="none">
</g>
<g id="Layer_5" display="none">
</g>
<g id="Layer_8" display="none">
</g>
</svg>
