<?xml version="1.0" encoding="utf-8"?>
<!-- Generator: Adobe Illustrator 18.1.1, SVG Export Plug-In . SVG Version: 6.00 Build 0)  -->
<!DOCTYPE svg PUBLIC "-//W3C//DTD SVG 1.1//EN" "http://www.w3.org/Graphics/SVG/1.1/DTD/svg11.dtd">
<svg version="1.1" id="Layer_1" xmlns="http://www.w3.org/2000/svg" xmlns:xlink="http://www.w3.org/1999/xlink" x="0px" y="0px"
	 viewBox="0 0 100 100" enable-background="new 0 0 100 100" xml:space="preserve">
<g id="Circle_Center" display="none">
	<g display="inline" opacity="0.5">
		<rect fill="none" stroke="#E30613" stroke-width="0.125" stroke-miterlimit="10" width="100" height="100"/>
		<line fill="none" stroke="#E30613" stroke-width="0.125" stroke-miterlimit="10" x1="0" y1="50" x2="100" y2="50"/>
		<line fill="none" stroke="#E30613" stroke-width="0.125" stroke-miterlimit="10" x1="50" y1="0" x2="50" y2="100"/>
		<circle fill="none" stroke="#E30613" stroke-width="0.125" stroke-miterlimit="10" cx="50" cy="50" r="46.9"/>
	</g>
</g>
<g id="Layer_3" display="none">
</g>
<g id="Layer_4" display="none">
	
		<rect x="3.1" y="3.1" display="inline" fill="none" stroke="#FFED00" stroke-width="0.1875" stroke-miterlimit="10" width="93.8" height="93.8"/>
</g>
<g>
	<path fill="#353535" d="M95,85.9L75.2,66.2c3.8-6,6-13.2,6-20.8c0-21.6-17.5-39.1-39.1-39.1S3.1,23.8,3.1,45.3s17.5,39.1,39.1,39.1
		c9.3,0,17.9-3.3,24.7-8.8L86.2,95c1.2,1.2,2.8,1.9,4.4,1.9s3.1-0.6,4.4-1.9s1.9-2.8,1.9-4.4S96.2,87.5,95,85.9z M6.2,45.3
		c0-19.7,16.2-35.9,35.9-35.9s35.9,16.2,35.9,35.9S61.9,81.2,42.2,81.2S6.2,65,6.2,45.3z M92.8,92.8c-1.2,1.2-3.1,1.2-4.4,0
		L69.2,73.5c1.5-1.5,3-3.1,4.3-4.8l19.4,19.7c0.6,0.6,0.9,1.2,0.9,2.2S93.4,92.2,92.8,92.8z"/>
	<path fill="#353535" d="M67.8,27.8c-5.9-8.4-15.3-13.4-25.6-13.4c-5.6,0-11.2,1.6-16.2,4.7c-0.6,0.3-0.9,1.2-0.6,1.9
		c0.6,0.9,1.6,0.9,2.2,0.6c4.4-2.5,9.4-4.1,14.7-4.1c9.4,0,17.8,4.7,23.1,12.2c0.3,0.3,0.6,0.6,1.2,0.6c0.3,0,0.6,0,0.9-0.3
		C68.1,29.4,68.4,28.4,67.8,27.8z"/>
</g>
<g id="Text" display="none">
</g>
<g id="Pixel_grid" display="none">
</g>
<g id="Layer_5" display="none">
</g>
<g id="Layer_8" display="none">
</g>
</svg>
