<?xml version="1.0" encoding="utf-8"?>
<!-- Generator: Adobe Illustrator 18.1.1, SVG Export Plug-In . SVG Version: 6.00 Build 0)  -->
<!DOCTYPE svg PUBLIC "-//W3C//DTD SVG 1.1//EN" "http://www.w3.org/Graphics/SVG/1.1/DTD/svg11.dtd">
<svg version="1.1" xmlns="http://www.w3.org/2000/svg" xmlns:xlink="http://www.w3.org/1999/xlink" x="0px" y="0px"
	 viewBox="0 0 16 16" enable-background="new 0 0 16 16" xml:space="preserve">
<g id="Circle_Center" display="none">
	
		<rect x="0" display="inline" fill="none" stroke="#E30613" stroke-width="6.250000e-02" stroke-miterlimit="10" width="16" height="16"/>
	
		<line display="inline" fill="none" stroke="#E30613" stroke-width="6.250000e-02" stroke-miterlimit="10" x1="0" y1="8" x2="16" y2="8"/>
	
		<line display="inline" fill="none" stroke="#E30613" stroke-width="6.250000e-02" stroke-miterlimit="10" x1="8" y1="0" x2="8" y2="16"/>
	<circle display="inline" fill="none" stroke="#E30613" stroke-width="6.666666e-02" stroke-miterlimit="10" cx="8" cy="8" r="8"/>
</g>
<g id="Layer_3" display="none">
</g>
<g id="Layer_4" display="none">
	
		<rect x="0" y="0" display="inline" fill="none" stroke="#FFED00" stroke-width="0.1" stroke-miterlimit="10" width="16" height="16"/>
</g>
<g id="Layer_1">
	<path fill="#353535" d="M16,5.7c-0.1-0.3-0.3-0.5-0.6-0.5l-4.6-0.7L8.7,0.4c-0.3-0.5-1.1-0.5-1.4,0L5.3,4.5L0.7,5.2
		C0.4,5.2,0.1,5.4,0,5.7C-0.1,6,0,6.3,0.2,6.5l3.3,3.2l-0.8,4.6c0,0.2,0,0.5,0.2,0.6c0.2,0.3,0.6,0.4,1,0.2L8,13l4.1,2.2
		c0.1,0.1,0.2,0.1,0.4,0.1c0.2,0,0.4-0.1,0.6-0.3c0.1-0.2,0.2-0.4,0.2-0.6l-0.8-4.6l3.3-3.2C16,6.3,16.1,6,16,5.7z M11.7,9.3
		c-0.1,0.1-0.1,0.2-0.1,0.4l0.8,4.6l-4.2-2.2c-0.1,0-0.1,0-0.2,0s-0.1,0-0.2,0l-4.1,2.2l0.8-4.6c0-0.1,0-0.3-0.1-0.4L1,6l4.6-0.7
		c0.1,0,0.3-0.1,0.3-0.2L8,0.9l2.1,4.2c0.1,0.1,0.2,0.2,0.3,0.2L15,6L11.7,9.3z"/>
</g>
<g id="Text" display="none">
</g>
<g id="Pixel_grid" display="none">
</g>
<g id="Layer_5" display="none">
</g>
<g id="Layer_8" display="none">
</g>
</svg>
