<?xml version="1.0" encoding="utf-8"?>
<!-- Generator: Adobe Illustrator 18.1.1, SVG Export Plug-In . SVG Version: 6.00 Build 0)  -->
<!DOCTYPE svg PUBLIC "-//W3C//DTD SVG 1.1//EN" "http://www.w3.org/Graphics/SVG/1.1/DTD/svg11.dtd">
<svg version="1.1" xmlns="http://www.w3.org/2000/svg" xmlns:xlink="http://www.w3.org/1999/xlink" x="0px" y="0px"
	 viewBox="0 0 64 64" enable-background="new 0 0 64 64" xml:space="preserve">
<g id="Circle_Center" display="none">
	<g display="inline" opacity="0.5">
		<rect fill="none" stroke="#E30613" stroke-width="0.25" stroke-miterlimit="10" width="64" height="64"/>
		<line fill="none" stroke="#E30613" stroke-width="0.25" stroke-miterlimit="10" x1="0" y1="32" x2="64" y2="32"/>
		<line fill="none" stroke="#E30613" stroke-width="0.25" stroke-miterlimit="10" x1="32" y1="0" x2="32" y2="64"/>
		<circle fill="none" stroke="#E30613" stroke-width="0.25" stroke-miterlimit="10" cx="32" cy="32" r="30"/>
	</g>
</g>
<g id="Layer_3" display="none">
</g>
<g id="Layer_4" display="none">
	
		<rect x="2" y="2" display="inline" fill="none" stroke="#FFED00" stroke-width="0.375" stroke-miterlimit="10" width="60" height="60"/>
</g>
<g id="Layer_1">
	<path fill="#353535" d="M60.7,22.9c-0.2-0.7-0.8-1.1-1.5-1.2l-17.7-2.6L33.6,3c-0.3-0.6-0.9-1-1.6-1c-0.7,0-1.3,0.4-1.6,1
		l-7.9,16.1L4.7,21.6c-0.7,0.1-1.2,0.6-1.5,1.2c-0.2,0.7,0,1.4,0.5,1.9l12.8,12.5l-3,17.6c-0.1,0.5,0,1.1,0.4,1.5
		c0.5,0.6,1.5,0.8,2.2,0.4L32,48.5l15.8,8.3c0.3,0.1,0.5,0.2,0.8,0.2c0.5,0,1-0.2,1.4-0.7c0.3-0.4,0.5-0.9,0.4-1.5l-3-17.6
		l12.8-12.5C60.8,24.2,60.9,23.5,60.7,22.9z M59.1,24.1L46.3,36.6c-0.1,0.1-0.2,0.3-0.1,0.4l3,17.6c0,0.2,0,0.5-0.2,0.6
		c-0.2,0.3-0.6,0.4-1,0.2l-15.8-8.3c-0.1,0-0.1-0.1-0.2-0.1s-0.2,0-0.2,0.1L16,55.4c-0.3,0.2-0.7,0.1-1-0.2
		c-0.2-0.2-0.2-0.4-0.2-0.6l3-17.6c0-0.2,0-0.3-0.1-0.4L4.9,24.1c-0.2-0.2-0.3-0.5-0.2-0.8c0.1-0.3,0.3-0.5,0.6-0.5L23,20.2
		c0.2,0,0.3-0.1,0.4-0.3l7.9-16c0.3-0.6,1.2-0.6,1.4,0l7.9,16c0.1,0.1,0.2,0.2,0.4,0.3l17.7,2.6c0.3,0,0.5,0.2,0.6,0.5
		C59.4,23.6,59.3,23.9,59.1,24.1z"/>
</g>
<g id="Text" display="none">
</g>
<g id="Pixel_grid" display="none">
</g>
<g id="Layer_5" display="none">
</g>
<g id="Layer_8" display="none">
</g>
</svg>
