<?xml version="1.0" encoding="utf-8"?>
<!-- Generator: Adobe Illustrator 18.1.1, SVG Export Plug-In . SVG Version: 6.00 Build 0)  -->
<!DOCTYPE svg PUBLIC "-//W3C//DTD SVG 1.1//EN" "http://www.w3.org/Graphics/SVG/1.1/DTD/svg11.dtd">
<svg version="1.1" xmlns="http://www.w3.org/2000/svg" xmlns:xlink="http://www.w3.org/1999/xlink" x="0px" y="0px"
	 viewBox="0 0 32 32" enable-background="new 0 0 32 32" xml:space="preserve">
<g id="Circle_Center" display="none">
	<g display="inline" opacity="0.5">
		<rect y="0" fill="none" stroke="#E30613" stroke-width="0.125" stroke-miterlimit="10" width="32" height="32"/>
		<line fill="none" stroke="#E30613" stroke-width="0.125" stroke-miterlimit="10" x1="0" y1="16" x2="32" y2="16"/>
		<line fill="none" stroke="#E30613" stroke-width="0.125" stroke-miterlimit="10" x1="16" y1="0" x2="16" y2="32"/>
		<circle fill="none" stroke="#E30613" stroke-width="0.125" stroke-miterlimit="10" cx="16" cy="16" r="15"/>
	</g>
</g>
<g id="Layer_3" display="none">
</g>
<g id="Layer_4" display="none">
	
		<rect x="1" y="1" display="inline" fill="none" stroke="#FFED00" stroke-width="0.1875" stroke-miterlimit="10" width="30" height="30"/>
</g>
<g id="Layer_1">
	<path fill="#353535" d="M30.6,11.4c-0.1-0.4-0.5-0.7-0.9-0.8l-8.7-1.3L17,1.5c-0.2-0.4-0.6-0.6-1-0.6c-0.4,0-0.8,0.2-1,0.6
		l-3.9,7.9l-8.7,1.3c-0.4,0.1-0.8,0.4-0.9,0.8c-0.1,0.4,0,0.9,0.3,1.2L8,18.8l-1.5,8.7c-0.1,0.3,0,0.7,0.3,0.9
		c0.3,0.4,1,0.5,1.4,0.3l7.8-4.1l7.8,4.1c0.2,0.1,0.4,0.1,0.5,0.1c0.3,0,0.7-0.2,0.9-0.4c0.2-0.3,0.3-0.6,0.3-0.9L24,18.8l6.3-6.2
		C30.6,12.3,30.7,11.8,30.6,11.4z M29.1,12l-6.3,6.1c-0.1,0.1-0.2,0.3-0.1,0.4l1.5,8.6c0,0,0,0.1,0,0.1c0,0-0.1,0.1-0.1,0.1
		l-7.8-4.1c-0.1,0-0.1-0.1-0.2-0.1s-0.2,0-0.2,0.1L8,27.3c0,0-0.1,0-0.1-0.1c0,0,0-0.1,0-0.1l1.5-8.6c0-0.2,0-0.3-0.1-0.4L2.9,12
		c-0.1-0.1,0-0.1,0-0.1s0-0.1,0.1-0.1l8.6-1.3c0.2,0,0.3-0.1,0.4-0.3l3.9-7.8c0.1-0.1,0.2-0.1,0.3,0l3.9,7.8
		c0.1,0.1,0.2,0.2,0.4,0.3l8.6,1.3c0.1,0,0.1,0.1,0.1,0.1C29.1,11.9,29.1,11.9,29.1,12z"/>
</g>
<g id="Text" display="none">
</g>
<g id="Pixel_grid" display="none">
</g>
<g id="Layer_5" display="none">
</g>
<g id="Layer_8" display="none">
</g>
</svg>
