<?xml version="1.0" encoding="utf-8"?>
<!-- Generator: Adobe Illustrator 18.1.1, SVG Export Plug-In . SVG Version: 6.00 Build 0)  -->
<!DOCTYPE svg PUBLIC "-//W3C//DTD SVG 1.1//EN" "http://www.w3.org/Graphics/SVG/1.1/DTD/svg11.dtd">
<svg version="1.1" id="Layer_1" xmlns="http://www.w3.org/2000/svg" xmlns:xlink="http://www.w3.org/1999/xlink" x="0px" y="0px"
	 viewBox="0 0 100 100" enable-background="new 0 0 100 100" xml:space="preserve">
<g id="Circle_Center" display="none">
	<g display="inline" opacity="0.5">
		<rect fill="none" stroke="#E30613" stroke-width="0.125" stroke-miterlimit="10" width="100" height="100"/>
		<line fill="none" stroke="#E30613" stroke-width="0.125" stroke-miterlimit="10" x1="0" y1="50" x2="100" y2="50"/>
		<line fill="none" stroke="#E30613" stroke-width="0.125" stroke-miterlimit="10" x1="50" y1="0" x2="50" y2="100"/>
		<circle fill="none" stroke="#E30613" stroke-width="0.125" stroke-miterlimit="10" cx="50" cy="50" r="46.9"/>
	</g>
</g>
<g id="Layer_3" display="none">
</g>
<g id="Layer_4" display="none">
	
		<rect x="3.1" y="3.1" display="inline" fill="none" stroke="#FFED00" stroke-width="0.1875" stroke-miterlimit="10" width="93.8" height="93.8"/>
</g>
<g>
	<path fill="#353535" d="M77.8,33.8H34.4V21.9c0-8.8,6.9-15.6,15.6-15.6c3.1,0,5.9,0.6,8.4,2.5c0.6,0.3,1.9,0,2.2-0.6s0-1.9-0.6-2.2
		c-2.8-1.9-6.6-2.8-10-2.8c-10.3,0-18.8,8.4-18.8,18.8v11.9h-9.1c-1.9,0-3.4,1.6-3.4,3.4v55.6c0,1.9,1.6,3.4,3.4,3.4h55.6
		c1.9,0,3.4-1.6,3.4-3.4V37.2C81.2,35.3,79.7,33.8,77.8,33.8z M78.1,92.8c0,0.3,0,0.3-0.3,0.3H22.2c-0.3,0-0.3,0-0.3-0.3l0.3-55.9
		c-0.3,0.3-0.3,0,0,0h55.6c0.3,0,0.3,0,0.3,0.3V92.8z"/>
	<path fill="#353535" d="M50,50c-0.9,0-1.6,0-2.5,0.3c-3.1,0.9-5.9,3.8-6.6,7.2c-0.9,4.4,0.9,8.1,4.7,10.3v8.4c0,2.8,2.2,5,4.7,5
		s4.7-2.2,4.7-4.7v-8.8c2.8-1.9,4.4-4.4,4.4-7.8C59.4,54.4,55.3,50,50,50z M52.8,65.6c-0.6,0-0.9,0.6-0.9,1.2v9.7
		c0,0.9-0.6,1.9-1.6,1.9s-1.6-0.9-1.6-1.9v-9.4c0-0.6-0.3-1.2-0.9-1.6c-2.5-0.9-4.7-3.4-3.8-7.2c0.3-2.5,2.2-4.4,4.4-5
		c0.3-0.3,0.9-0.3,1.6-0.3c3.4,0,6.2,3.1,6.2,6.9C56.2,62.5,55.3,64.4,52.8,65.6z"/>
</g>
<g id="Text" display="none">
</g>
<g id="Pixel_grid" display="none">
</g>
<g id="Layer_5" display="none">
</g>
<g id="Layer_8" display="none">
</g>
</svg>
