<?xml version="1.0" encoding="utf-8"?>
<!-- Generator: Adobe Illustrator 18.1.1, SVG Export Plug-In . SVG Version: 6.00 Build 0)  -->
<!DOCTYPE svg PUBLIC "-//W3C//DTD SVG 1.1//EN" "http://www.w3.org/Graphics/SVG/1.1/DTD/svg11.dtd">
<svg version="1.1" id="Layer_1" xmlns="http://www.w3.org/2000/svg" xmlns:xlink="http://www.w3.org/1999/xlink" x="0px" y="0px"
	 viewBox="0 0 100 100" enable-background="new 0 0 100 100" xml:space="preserve">
<g id="Circle_Center" display="none">
	<g display="inline" opacity="0.5">
		<rect fill="none" stroke="#E30613" stroke-width="0.125" stroke-miterlimit="10" width="100" height="100"/>
		<line fill="none" stroke="#E30613" stroke-width="0.125" stroke-miterlimit="10" x1="0" y1="50" x2="100" y2="50"/>
		<line fill="none" stroke="#E30613" stroke-width="0.125" stroke-miterlimit="10" x1="50" y1="0" x2="50" y2="100"/>
		<circle fill="none" stroke="#E30613" stroke-width="0.125" stroke-miterlimit="10" cx="50" cy="50" r="46.9"/>
	</g>
</g>
<g id="Layer_3" display="none">
</g>
<g id="Layer_4" display="none">
	
		<rect x="3.1" y="3.1" display="inline" fill="none" stroke="#FFED00" stroke-width="0.1875" stroke-miterlimit="10" width="93.8" height="93.8"/>
</g>
<path fill="#353535" d="M80.6,28.1c-0.3-1.9-1.6-3.1-3.4-3.1H65.6v-6.2C65.6,10,58.8,3.1,50,3.1S34.4,10,34.4,18.8V25H22.8
	c-1.9,0-3.1,1.2-3.4,3.1l-6.6,65c-0.3,0.9,0,1.6,0.6,2.5s1.6,1.2,2.5,1.2h68.1c0.9,0,1.9-0.6,2.5-1.2s0.9-1.6,0.9-2.5L80.6,28.1z
	 M37.5,18.8c0-6.9,5.6-12.5,12.5-12.5s12.5,5.6,12.5,12.5V25h-25V18.8z M83.8,93.8H15.9v-0.3l6.9-65.3h11.6v6.5
	c-1.8,0.6-3.1,2.4-3.1,4.4c0,2.6,2.1,4.7,4.7,4.7s4.7-2.1,4.7-4.7c0-2-1.3-3.8-3.1-4.4v-6.5h25v6.5c-1.8,0.6-3.1,2.4-3.1,4.4
	c0,2.6,2.1,4.7,4.7,4.7s4.7-2.1,4.7-4.7c0-2-1.3-3.8-3.1-4.4v-6.5h11.6c0.3,0,0.3,0.3,0.3,0.3l6.6,65.3
	C83.8,93.8,83.8,93.8,83.8,93.8z"/>
<g id="Text" display="none">
</g>
<g id="Pixel_grid" display="none">
</g>
<g id="Layer_5" display="none">
</g>
<g id="Layer_8" display="none">
	<circle display="inline" fill="none" stroke="#E30613" stroke-width="0.1" stroke-miterlimit="10" cx="22.5" cy="28.1" r="3.1"/>
	<circle display="inline" fill="none" stroke="#E30613" stroke-width="0.1" stroke-miterlimit="10" cx="64.1" cy="39.1" r="4.7"/>
	<circle display="inline" fill="none" stroke="#E30613" stroke-width="0.1" stroke-miterlimit="10" cx="35.9" cy="39.1" r="4.7"/>
	<circle display="inline" fill="none" stroke="#E30613" stroke-width="0.1" stroke-miterlimit="10" cx="50" cy="18.8" r="15.6"/>
	<circle display="inline" fill="none" stroke="#E30613" stroke-width="0.1" stroke-miterlimit="10" cx="50" cy="18.8" r="12.5"/>
	<circle display="inline" fill="none" stroke="#E30613" stroke-width="0.1" stroke-miterlimit="10" cx="77.2" cy="28.1" r="3.1"/>
	<circle display="inline" fill="none" stroke="#E30613" stroke-width="0.1" stroke-miterlimit="10" cx="15.6" cy="93.8" r="3.1"/>
	<circle display="inline" fill="none" stroke="#E30613" stroke-width="0.1" stroke-miterlimit="10" cx="84.4" cy="93.8" r="3.1"/>
	
		<line display="inline" fill="none" stroke="#E30613" stroke-width="0.1" stroke-miterlimit="10" x1="15.6" y1="100" x2="15.6" y2="0"/>
	
		<line display="inline" fill="none" stroke="#E30613" stroke-width="0.1" stroke-miterlimit="10" x1="12.5" y1="100" x2="12.5" y2="0"/>
	
		<line display="inline" fill="none" stroke="#E30613" stroke-width="0.1" stroke-miterlimit="10" x1="15" y1="99.7" x2="25.6" y2="0.6"/>
	
		<line display="inline" fill="none" stroke="#E30613" stroke-width="0.1" stroke-miterlimit="10" x1="11.9" y1="99.4" x2="22.5" y2="0.3"/>
	
		<line display="inline" fill="none" stroke="#E30613" stroke-width="0.1" stroke-miterlimit="10" x1="85" y1="99.7" x2="74.4" y2="0.6"/>
	
		<line display="inline" fill="none" stroke="#E30613" stroke-width="0.1" stroke-miterlimit="10" x1="88.1" y1="99.4" x2="77.5" y2="0.3"/>
	<line display="inline" fill="none" stroke="#E30613" stroke-width="0.1" stroke-miterlimit="10" x1="0" y1="100" x2="0" y2="0"/>
	
		<line display="inline" fill="none" stroke="#E30613" stroke-width="0.1" stroke-miterlimit="10" x1="96.9" y1="100" x2="96.9" y2="0"/>
	
		<line display="inline" fill="none" stroke="#E30613" stroke-width="0.1" stroke-miterlimit="10" x1="100" y1="100" x2="100" y2="0"/>
	
		<line display="inline" fill="none" stroke="#E30613" stroke-width="0.1" stroke-miterlimit="10" x1="48.4" y1="100" x2="48.4" y2="0"/>
	
		<line display="inline" fill="none" stroke="#E30613" stroke-width="0.1" stroke-miterlimit="10" x1="51.6" y1="100" x2="51.6" y2="0"/>
	
		<line display="inline" fill="none" stroke="#E30613" stroke-width="0.1" stroke-miterlimit="10" x1="87.5" y1="100" x2="87.5" y2="0"/>
	
		<line display="inline" fill="none" stroke="#E30613" stroke-width="0.1" stroke-miterlimit="10" x1="84.4" y1="100" x2="84.4" y2="0"/>
	
		<line display="inline" fill="none" stroke="#E30613" stroke-width="0.1" stroke-miterlimit="10" x1="65.6" y1="100" x2="65.6" y2="0"/>
	
		<line display="inline" fill="none" stroke="#E30613" stroke-width="0.1" stroke-miterlimit="10" x1="62.5" y1="100" x2="62.5" y2="0"/>
	
		<line display="inline" fill="none" stroke="#E30613" stroke-width="0.1" stroke-miterlimit="10" x1="37.5" y1="100" x2="37.5" y2="0"/>
	
		<line display="inline" fill="none" stroke="#E30613" stroke-width="0.1" stroke-miterlimit="10" x1="34.4" y1="100" x2="34.4" y2="0"/>
	
		<line display="inline" fill="none" stroke="#E30613" stroke-width="0.1" stroke-miterlimit="10" x1="100" y1="3.1" x2="0" y2="3.1"/>
	<line display="inline" fill="none" stroke="#E30613" stroke-width="0.1" stroke-miterlimit="10" x1="100" y1="0" x2="0" y2="0"/>
	<line display="inline" fill="none" stroke="#E30613" stroke-width="0.1" stroke-miterlimit="10" x1="100" y1="25" x2="0" y2="25"/>
	
		<line display="inline" fill="none" stroke="#E30613" stroke-width="0.1" stroke-miterlimit="10" x1="100" y1="28.1" x2="0" y2="28.1"/>
	
		<line display="inline" fill="none" stroke="#E30613" stroke-width="0.1" stroke-miterlimit="10" x1="100" y1="6.2" x2="0" y2="6.2"/>
	
		<line display="inline" fill="none" stroke="#E30613" stroke-width="0.1" stroke-miterlimit="10" x1="100" y1="43.8" x2="0" y2="43.8"/>
	
		<line display="inline" fill="none" stroke="#E30613" stroke-width="0.1" stroke-miterlimit="10" x1="100" y1="40.6" x2="0" y2="40.6"/>
	
		<line display="inline" fill="none" stroke="#E30613" stroke-width="0.1" stroke-miterlimit="10" x1="100" y1="96.9" x2="0" y2="96.9"/>
	
		<line display="inline" fill="none" stroke="#E30613" stroke-width="0.1" stroke-miterlimit="10" x1="100" y1="93.8" x2="0" y2="93.8"/>
	
		<line display="inline" fill="none" stroke="#E30613" stroke-width="0.1" stroke-miterlimit="10" x1="100" y1="100" x2="0" y2="100"/>
	
		<line display="inline" fill="none" stroke="#E30613" stroke-width="0.1" stroke-miterlimit="10" x1="100" y1="96.9" x2="0" y2="96.9"/>
</g>
</svg>
