<?xml version="1.0" encoding="utf-8"?>
<!-- Generator: Adobe Illustrator 18.1.1, SVG Export Plug-In . SVG Version: 6.00 Build 0)  -->
<!DOCTYPE svg PUBLIC "-//W3C//DTD SVG 1.1//EN" "http://www.w3.org/Graphics/SVG/1.1/DTD/svg11.dtd">
<svg version="1.1" id="Layer_1" xmlns="http://www.w3.org/2000/svg" xmlns:xlink="http://www.w3.org/1999/xlink" x="0px" y="0px"
	 viewBox="0 0 100 100" enable-background="new 0 0 100 100" xml:space="preserve">
<g id="Circle_Center" display="none">
	<g display="inline" opacity="0.5">
		<rect fill="none" stroke="#E30613" stroke-width="0.25" stroke-miterlimit="10" width="100" height="100"/>
		<line fill="none" stroke="#E30613" stroke-width="0.25" stroke-miterlimit="10" x1="0" y1="50" x2="100" y2="50"/>
		<line fill="none" stroke="#E30613" stroke-width="0.25" stroke-miterlimit="10" x1="50" y1="0" x2="50" y2="100"/>
		<circle fill="none" stroke="#E30613" stroke-width="0.25" stroke-miterlimit="10" cx="50" cy="50" r="46.9"/>
	</g>
</g>
<g id="Layer_3" display="none">
</g>
<g id="Layer_4" display="none">
	
		<rect x="3.1" y="3.1" display="inline" fill="none" stroke="#FFED00" stroke-width="0.375" stroke-miterlimit="10" width="93.8" height="93.8"/>
</g>
<g>
	<path fill="#353535" d="M78.3,35.3c0-0.6-0.2-1-0.5-1.4l-3.7-7.3c-0.5-0.9-1.4-1.6-2.5-1.6h-7.5v-7.8c0-7.8-6.2-14.1-14.1-14.1
		S35.9,9.4,35.9,17.2V25h-7.7c-0.9,0-1.9,0.5-2.3,1.4l-4.1,8c-0.1,0.3-0.1,0.5,0,0.7c0,0.1,0,0.1,0,0.2l-5.2,58.9
		c-0.2,0.8,0.2,1.6,0.6,2s1.1,0.8,1.9,0.8l61.6-0.2c0.8,0,1.6,0,2-0.6s0.6-1.2,0.6-2L78.3,35.3z M72.7,27.3l2.9,5.6H64.1v-2.5v-3.8
		h7.5C72,26.7,72.5,26.9,72.7,27.3z M37.5,30.5v-3.8h25v3.8V33h-25V30.5z M37.6,25c0.8-6.1,6-10.9,12.4-10.9S61.6,18.9,62.4,25H37.6
		z M50,4.7c6.9,0,12.5,5.6,12.5,12.5v2.9c-2.3-4.5-7-7.6-12.5-7.6s-10.2,3.1-12.5,7.6v-2.9C37.5,10.3,43.1,4.7,50,4.7z M27.5,27.3
		c0.2-0.5,0.5-0.6,0.9-0.6h7.5v3.8V33H24.6L27.5,27.3z M81.6,95c-0.2,0.2-0.5,0.3-0.8,0.3l-61.4-0.2c-0.3,0-0.6-0.2-0.8-0.3
		c-0.3-0.2-0.3-0.5-0.3-0.8l5.2-58.7c0,0,0-0.1,0-0.1l0.3-0.6c0.2-0.2,0.4-0.3,0.6-0.3h11.6v4.7c-1.8,0.4-3.1,1.9-3.1,3.8
		c0,2.2,1.7,3.9,3.9,3.9s3.9-1.7,3.9-3.9c0-1.9-1.3-3.5-3.1-3.8v-4.7h25v4.7c-1.8,0.4-3.1,1.9-3.1,3.8c0,2.2,1.7,3.9,3.9,3.9
		s3.9-1.7,3.9-3.9c0-1.9-1.3-3.5-3.1-3.8v-4.7h11.7c0.2,0,0.5,0.1,0.7,0.3l0.1,0.3c0,0,0,0,0.1,0c0.1,0.1,0.1,0.3,0.1,0.5l5.2,58.7
		C81.9,94.5,81.7,94.8,81.6,95z M36.7,40.6c1.2,0,2.3,1.1,2.3,2.3s-1.1,2.3-2.3,2.3s-2.3-1.1-2.3-2.3S35.5,40.6,36.7,40.6z
		 M63.3,40.6c1.2,0,2.3,1.1,2.3,2.3s-1.1,2.3-2.3,2.3s-2.3-1.1-2.3-2.3S62,40.6,63.3,40.6z"/>
	<path fill="#353535" d="M73.4,89.1H26.6c-0.5,0-0.8,0.3-0.8,0.8s0.3,0.8,0.8,0.8h46.9c0.5,0,0.8-0.3,0.8-0.8S73.9,89.1,73.4,89.1z"
		/>
</g>
<g id="Text" display="none">
</g>
<g id="Pixel_grid" display="none">
</g>
<g id="Layer_5" display="none">
</g>
<g id="Layer_8" display="none">
</g>
</svg>
