<?xml version="1.0" encoding="utf-8"?>
<!-- Generator: Adobe Illustrator 18.1.1, SVG Export Plug-In . SVG Version: 6.00 Build 0)  -->
<!DOCTYPE svg PUBLIC "-//W3C//DTD SVG 1.1//EN" "http://www.w3.org/Graphics/SVG/1.1/DTD/svg11.dtd">
<svg version="1.1" xmlns="http://www.w3.org/2000/svg" xmlns:xlink="http://www.w3.org/1999/xlink" x="0px" y="0px"
	 viewBox="0 0 16 16" enable-background="new 0 0 16 16" xml:space="preserve">
<g id="Circle_Center" display="none">
	
		<rect x="0" display="inline" fill="none" stroke="#E30613" stroke-width="6.250000e-02" stroke-miterlimit="10" width="16" height="16"/>
	
		<line display="inline" fill="none" stroke="#E30613" stroke-width="6.250000e-02" stroke-miterlimit="10" x1="0" y1="8" x2="16" y2="8"/>
	
		<line display="inline" fill="none" stroke="#E30613" stroke-width="6.250000e-02" stroke-miterlimit="10" x1="8" y1="0" x2="8" y2="16"/>
	<circle display="inline" fill="none" stroke="#E30613" stroke-width="6.666666e-02" stroke-miterlimit="10" cx="8" cy="8" r="8"/>
</g>
<g id="Layer_3" display="none">
</g>
<g id="Layer_4" display="none">
	
		<rect x="0" y="0" display="inline" fill="none" stroke="#FFED00" stroke-width="0.1" stroke-miterlimit="10" width="16" height="16"/>
</g>
<g id="Layer_1">
	<g>
		<path fill="#353535" d="M4.5,5.3c0-0.9,0.7-1.6,1.6-1.6c0.9,0,1.6,0.7,1.6,1.6S7,6.9,6.1,6.9C5.2,6.9,4.5,6.2,4.5,5.3z M6.8,5.3
			c0-0.4-0.3-0.7-0.7-0.7c-0.4,0-0.7,0.3-0.7,0.7c0,0.4,0.3,0.7,0.7,0.7C6.5,6.1,6.8,5.7,6.8,5.3z M9.5,4c0-0.1,0.1-0.1,0.2-0.1
			l0.4,0c0.2,0,0.3,0.2,0.2,0.3l-4,7.8c0,0-0.1,0.1-0.2,0.1l-0.4,0c-0.2,0-0.3-0.2-0.2-0.3L9.5,4z M9.9,9c0.9,0,1.6,0.7,1.6,1.6
			s-0.7,1.6-1.6,1.6c-0.9,0-1.6-0.7-1.6-1.6S9,9,9.9,9z M9.9,11.3c0.4,0,0.7-0.3,0.7-0.7c0-0.4-0.3-0.7-0.7-0.7
			c-0.4,0-0.7,0.3-0.7,0.7C9.1,11,9.5,11.3,9.9,11.3z"/>
	</g>
	<path fill="#353535" d="M8,16c-4.4,0-8-3.6-8-8s3.6-8,8-8s8,3.6,8,8S12.4,16,8,16z M8,1C4.1,1,1,4.1,1,8s3.1,7,7,7c3.9,0,7-3.1,7-7
		S11.9,1,8,1z"/>
</g>
<g id="Text" display="none">
</g>
<g id="Pixel_grid" display="none">
</g>
<g id="Layer_5" display="none">
</g>
<g id="Layer_8" display="none">
</g>
</svg>
