<?xml version="1.0" encoding="utf-8"?>
<!-- Generator: Adobe Illustrator 18.1.1, SVG Export Plug-In . SVG Version: 6.00 Build 0)  -->
<!DOCTYPE svg PUBLIC "-//W3C//DTD SVG 1.1//EN" "http://www.w3.org/Graphics/SVG/1.1/DTD/svg11.dtd">
<svg version="1.1" id="Layer_1" xmlns="http://www.w3.org/2000/svg" xmlns:xlink="http://www.w3.org/1999/xlink" x="0px" y="0px"
	 viewBox="0 0 100 100" enable-background="new 0 0 100 100" xml:space="preserve">
<g id="Circle_Center" display="none">
	<g display="inline" opacity="0.5">
		<rect fill="none" stroke="#E30613" stroke-width="0.25" stroke-miterlimit="10" width="100" height="100"/>
		<line fill="none" stroke="#E30613" stroke-width="0.25" stroke-miterlimit="10" x1="0" y1="50" x2="100" y2="50"/>
		<line fill="none" stroke="#E30613" stroke-width="0.25" stroke-miterlimit="10" x1="50" y1="0" x2="50" y2="100"/>
		<circle fill="none" stroke="#E30613" stroke-width="0.25" stroke-miterlimit="10" cx="50" cy="50" r="46.9"/>
	</g>
</g>
<g id="Layer_3" display="none">
</g>
<g id="Layer_4" display="none">
	
		<rect x="3.1" y="3.1" display="inline" fill="none" stroke="#FFED00" stroke-width="0.375" stroke-miterlimit="10" width="93.8" height="93.8"/>
</g>
<g>
	<path fill="#353535" d="M50,3.1C24.5,3.1,3.6,23.8,3.1,49.2h0v1.6h0C3.2,56.5,4.4,62,6.4,67.1L7,68.6c7.2,16.6,23.8,28.3,43,28.3
		c25.8,0,46.9-21.1,46.9-46.9S75.8,3.1,50,3.1z M95.3,49.2H89c-0.1-4.8-1.1-9.4-2.7-13.6l5.8-2.4C94.1,38.2,95.2,43.6,95.3,49.2z
		 M91.5,31.8l-5.8,2.4c-1.8-4.2-4.4-7.9-7.5-11.2l4.4-4.4C86.3,22.4,89.3,26.9,91.5,31.8z M81.5,17.5l-4.4,4.4
		c-3.3-3.2-7.2-5.8-11.4-7.7l2.4-5.8C73.1,10.6,77.6,13.7,81.5,17.5z M50.8,4.7c5.6,0.1,10.9,1.2,15.8,3.1l-2.4,5.8
		C60,12,55.5,11.1,50.8,11V4.7z M49.2,4.7V11c-4.7,0.1-9.3,1-13.5,2.7l-2.4-5.8C38.3,5.9,43.6,4.8,49.2,4.7z M31.9,8.5l2.4,5.8
		c-4.4,1.9-8.3,4.6-11.6,7.9l-4.4-4.4C22.2,13.8,26.8,10.7,31.9,8.5z M17.2,18.8l4.4,4.4c-3.1,3.3-5.6,7.1-7.4,11.3l-5.8-2.4
		C10.5,27.2,13.5,22.7,17.2,18.8z M7.8,33.6l5.8,2.4C12,40.1,11,44.6,11,49.2H4.7C4.8,43.7,5.9,38.4,7.8,33.6z M4.7,50.8H11
		c0.1,4.7,1,9.2,2.6,13.4l-5.8,2.4C5.9,61.6,4.8,56.3,4.7,50.8z M17.5,81.5C13.7,77.6,10.6,73,8.4,68l5.8-2.4
		c1.9,4.3,4.5,8.2,7.7,11.5L17.5,81.5z M18.6,82.6l4.4-4.4c3.3,3.1,7.1,5.7,11.3,7.6l-2.4,5.8C26.9,89.4,22.4,86.3,18.6,82.6z
		 M49.2,95.3c-5.6-0.1-10.9-1.2-15.9-3.2l2.4-5.8c4.2,1.6,8.7,2.6,13.5,2.7V95.3z M12.5,50c0-20.6,16.9-37.5,37.5-37.5
		S87.5,29.4,87.5,50S70.6,87.5,50,87.5S12.5,70.6,12.5,50z M50.8,95.3V89c4.8-0.1,9.3-1,13.5-2.7l2.4,5.8
		C61.8,94.1,56.4,95.2,50.8,95.3z M68.2,91.5l-2.4-5.8c4.1-1.8,7.8-4.3,11-7.3l4.4,4.4C77.4,86.4,73,89.4,68.2,91.5z M82.3,81.7
		l-4.4-4.4c3.2-3.3,5.8-7.1,7.7-11.4l5.8,2.4C89.2,73.3,86.1,77.8,82.3,81.7z M92.1,66.9l-5.8-2.4c1.7-4.2,2.7-8.9,2.8-13.7h6.2
		C95.2,56.5,94.1,61.9,92.1,66.9z"/>
	<path fill="#353535" d="M50,19.5c-16.9,0-30.5,13.8-30.5,30.5S33.1,80.5,50,80.5S80.5,66.9,80.5,50S66.9,19.5,50,19.5z M50,78.9
		c-15.9,0-28.9-13-28.9-28.9s13-28.9,28.9-28.9s28.9,13,28.9,28.9S65.9,78.9,50,78.9z"/>
	<path fill="#353535" d="M51.4,29.9c-6,0-11.1,4.4-11.1,11c0,3.9,1.2,7.2,1.8,9.6h-2c-0.4,0-0.7,0.3-0.7,0.7v0.2
		c0,0.4,0.3,0.8,0.7,0.8h2.4c0.2,1.3,0.4,2.6,0.4,4.4c0.1,2.5-0.9,6.9-2.6,10.8V68c-0.1,0.4,0.3,0.8,0.7,0.8h18.7
		c0.4,0,0.7-0.3,0.7-0.7v-0.8c0-0.4-0.1-0.8-0.7-0.8H43.2c1.5-3.4,2-6.6,2-9.8c0-1.5-0.1-3.1-0.3-4.4h10.6c0.4,0,0.7-0.3,0.7-0.7
		v-0.2c0-0.4-0.2-0.8-0.7-0.8h-11c-0.5-2.2-1.8-5.7-1.8-9.5c0-5.3,3.9-8.8,8.6-8.8c4.5,0,7.5,2.8,7.9,3.3c0.5,0.5,0.9,0.4,1.2,0.1
		l0.4-0.5c0.4-0.5,0.4-0.8,0.1-1.2C60.1,32.7,56.4,29.9,51.4,29.9z"/>
</g>
<g id="Text" display="none">
</g>
<g id="Pixel_grid" display="none">
</g>
<g id="Layer_5" display="none">
</g>
<g id="Layer_8" display="none">
</g>
</svg>
