<?xml version="1.0" encoding="utf-8"?>
<!-- Generator: Adobe Illustrator 18.1.1, SVG Export Plug-In . SVG Version: 6.00 Build 0)  -->
<!DOCTYPE svg PUBLIC "-//W3C//DTD SVG 1.1//EN" "http://www.w3.org/Graphics/SVG/1.1/DTD/svg11.dtd">
<svg version="1.1" id="Layer_1" xmlns="http://www.w3.org/2000/svg" xmlns:xlink="http://www.w3.org/1999/xlink" x="0px" y="0px"
	 viewBox="0 0 100 100" enable-background="new 0 0 100 100" xml:space="preserve">
<g id="Circle_Center" display="none">
	
		<rect display="inline" fill="none" stroke="#E30613" stroke-width="6.250000e-02" stroke-miterlimit="10" width="100" height="100"/>
	
		<line display="inline" fill="none" stroke="#E30613" stroke-width="6.250000e-02" stroke-miterlimit="10" x1="0" y1="50" x2="100" y2="50"/>
	
		<line display="inline" fill="none" stroke="#E30613" stroke-width="6.250000e-02" stroke-miterlimit="10" x1="50" y1="0" x2="50" y2="100"/>
	
		<circle display="inline" fill="none" stroke="#E30613" stroke-width="6.666666e-02" stroke-miterlimit="10" cx="50" cy="50" r="50"/>
</g>
<g id="Layer_3" display="none">
</g>
<g id="Layer_4" display="none">
	<rect display="inline" fill="none" stroke="#FFED00" stroke-width="0.1" stroke-miterlimit="10" width="100" height="100"/>
</g>
<g>
	<path fill="#353535" d="M50,0C22.5,0,0,22.5,0,50s22.5,50,50,50s50-22.5,50-50S77.5,0,50,0z M50,93.8C25.6,93.8,6.2,74.4,6.2,50
		S25.6,6.2,50,6.2S93.8,25.6,93.8,50S74.4,93.8,50,93.8z"/>
	<path fill="#353535" d="M51.6,25.9c-8,0-14.4,5.4-14.4,14.4c0,4.5,1.6,8.7,2.1,11.1h-2.2c-0.7,0-1.2,0.6-1.2,1.3v0.7
		c0,0.7,0.5,1.3,1.2,1.3h3c1,5.2,0.8,11.1-2.6,17.5v1.2c0,0.7,0.6,1.3,1.3,1.3h22.3c0.7,0,1.2-0.6,1.2-1.3v-3.4
		c0-0.8-0.6-1.3-1.2-1.3H45.8c1.7-4.5,1.8-10.7,1.2-14.1H56c0.8,0,1.3-0.5,1.3-1.2v-0.8c0-0.7-0.6-1.3-1.3-1.3h-9.6
		c-0.5-2.5-2.5-6.9-2.5-11.2c0-4.9,3.4-8,7.7-8c3.8,0,7.5,3.6,7.5,3.6c0.5,0.6,1.3,0.7,1.9-0.1l2.4-3c0.5-0.6,0.4-1.4-0.1-1.8
		C61.5,29.3,57.5,25.9,51.6,25.9z"/>
</g>
<g id="Text" display="none">
</g>
<g id="Pixel_grid" display="none">
</g>
<g id="Layer_5" display="none">
</g>
<g id="Layer_8" display="none">
</g>
</svg>
