<?xml version="1.0" encoding="utf-8"?>
<!-- Generator: Adobe Illustrator 18.1.1, SVG Export Plug-In . SVG Version: 6.00 Build 0)  -->
<!DOCTYPE svg PUBLIC "-//W3C//DTD SVG 1.1//EN" "http://www.w3.org/Graphics/SVG/1.1/DTD/svg11.dtd">
<svg version="1.1" id="Layer_1" xmlns="http://www.w3.org/2000/svg" xmlns:xlink="http://www.w3.org/1999/xlink" x="0px" y="0px"
	 viewBox="0 0 100 100" enable-background="new 0 0 100 100" xml:space="preserve">
<g id="Circle_Center" display="none">
	<g display="inline" opacity="0.5">
		<rect fill="none" stroke="#E30613" stroke-width="0.125" stroke-miterlimit="10" width="100" height="100"/>
		<line fill="none" stroke="#E30613" stroke-width="0.125" stroke-miterlimit="10" x1="0" y1="50" x2="100" y2="50"/>
		<line fill="none" stroke="#E30613" stroke-width="0.125" stroke-miterlimit="10" x1="50" y1="0" x2="50" y2="100"/>
		<circle fill="none" stroke="#E30613" stroke-width="0.125" stroke-miterlimit="10" cx="50" cy="50" r="46.9"/>
	</g>
</g>
<g id="Layer_3" display="none">
</g>
<g id="Layer_4" display="none">
	
		<rect x="3.1" y="3.1" display="inline" fill="none" stroke="#FFED00" stroke-width="0.1875" stroke-miterlimit="10" width="93.8" height="93.8"/>
</g>
<g>
	<path fill="#353535" d="M50,3.1C24.1,3.1,3.1,24.1,3.1,50S24.1,96.9,50,96.9S96.9,75.9,96.9,50S75.9,3.1,50,3.1z M48.4,85.9v7.8
		c-6.8-0.2-13.3-2.1-18.9-5.1l3.9-6.8C38,84.2,43,85.7,48.4,85.9z M51.6,85.9c5.4-0.2,10.5-1.7,15-4.1l3.9,6.8
		c-5.7,3-12.1,4.8-18.9,5.1V85.9z M50,82.8c-18.1,0-32.8-14.7-32.8-32.8S31.9,17.2,50,17.2S82.8,31.9,82.8,50S68.1,82.8,50,82.8z
		 M14.1,48.4H6.3c0.2-6.8,2.1-13.3,5.1-19l6.8,3.9C15.8,37.9,14.3,43,14.1,48.4z M14.1,51.6c0.2,5.5,1.7,10.6,4.2,15.2l-6.8,3.9
		c-3.1-5.7-5-12.2-5.2-19.1H14.1z M51.6,14.1V6.3c6.9,0.2,13.3,2.1,19,5.2l-3.9,6.8C62.1,15.8,57,14.3,51.6,14.1z M48.4,14.1
		c-5.4,0.2-10.6,1.7-15.2,4.2l-3.9-6.8c5.7-3.1,12.2-4.9,19.1-5.2V14.1z M85.9,51.6h7.8c-0.2,6.8-2.1,13.2-5.1,18.9l-6.8-3.9
		C84.2,62,85.7,56.9,85.9,51.6z M85.9,48.4c-0.2-5.4-1.7-10.5-4.1-15l6.8-3.9c3.1,5.7,4.9,12.1,5.1,19H85.9z M87,26.8l-6.8,3.9
		c-2.8-4.3-6.5-8.1-10.8-10.9l3.9-6.8C78.8,16.5,83.5,21.2,87,26.8z M26.7,13.1l3.9,6.8c-4.3,2.8-8,6.5-10.8,10.9L13,26.8
		C16.5,21.3,21.1,16.6,26.7,13.1z M13.1,73.4l6.8-3.9c2.8,4.3,6.5,8,10.8,10.8L26.8,87C21.3,83.5,16.6,78.9,13.1,73.4z M73.2,87
		l-3.9-6.8c4.4-2.8,8.2-6.6,11-11l6.8,3.9C83.5,78.8,78.8,83.5,73.2,87z"/>
	<path fill="#353535" d="M51.3,30.1c-6.6,0-11.8,4.4-11.8,11.5c0,4.2,1.5,7.9,1.8,9.3h-1.8c-0.6,0-1,0.5-1,1.1v0.4
		c0,0.6,0.5,1.1,1,1.1H42c0.8,4.2,0.6,9.2-2.2,14.5v1c0,0.6,0.5,1.1,1.1,1.1h17.9c0.6,0,1-0.5,1-1.1v-1.5c0-0.6-0.4-1.1-1-1.1H44.7
		c1.7-3.8,1.8-10,1.2-12.9h8.6c0.6,0,1.1-0.4,1.1-1V52c0-0.6-0.5-1.1-1.1-1.1h-9.2c-0.2-1.1-1.9-4.9-1.9-9.3c0-4.7,3.3-7.9,7.6-7.9
		c3.8,0,6.9,3.3,6.9,3.3c0.5,0.6,1,0.7,1.6-0.1l1.2-1.5c0.4-0.4,0.3-1.1-0.1-1.5C59.3,32.8,56.2,30.1,51.3,30.1z"/>
</g>
<g id="Text" display="none">
</g>
<g id="Pixel_grid" display="none">
</g>
<g id="Layer_5" display="none">
</g>
<g id="Layer_8" display="none">
</g>
</svg>
